<svg width="30" height="32" viewBox="0 0 30 32" fill="none" xmlns="http://www.w3.org/2000/svg">
<path fill-rule="evenodd" clip-rule="evenodd" d="M8.34375 0.113635C7.41008 0.689029 7.3706 1.9193 8.2381 3.41009C9.44631 5.48653 12.0828 7.86353 14.1836 8.77051C14.7799 9.02795 14.6661 9.04477 14.0291 8.79335C12.5739 8.21923 11.0127 7.10205 9.28989 5.40201C8.30221 4.4274 7.61162 3.62304 7.30631 3.09151L7.15729 2.83214L6.96076 3.02647C6.78016 3.20514 6.76662 3.24543 6.79388 3.5253C6.8417 4.01825 7.30881 4.87346 7.83365 5.42919C9.04242 6.70914 11.8587 8.63805 14.0491 9.68627C14.488 9.89622 14.8284 10.0687 14.8056 10.0695C14.6502 10.0751 13.3402 9.54303 12.4832 9.12627C10.6696 8.2442 8.94134 7.18632 8.16547 6.48326C7.89838 6.24124 7.69716 6.10955 7.5608 6.08773C6.77289 5.96127 7.47789 7.40386 8.55883 8.12976C9.4658 8.73882 12.4887 10.0826 14.5096 10.7752C14.9313 10.9197 15.216 11.0387 15.1422 11.0398C14.7603 11.0453 12.1049 10.1863 10.2763 9.46585C9.41322 9.12583 8.27827 8.60248 8.16566 8.49267C8.08099 8.41004 7.88359 8.54124 7.88359 8.68016C7.88359 9.05732 8.60833 9.84558 9.18675 10.0976C9.82419 10.3752 11.7531 10.8391 14.8777 11.4661C15.9923 11.6898 15.5782 11.6629 13.4052 11.3704C11.5406 11.1194 9.86148 10.8446 9.24872 10.6901C8.73323 10.56 8.719 10.5768 8.95469 11.0367C9.20122 11.5177 9.45834 11.7445 9.84706 11.8236C10.4603 11.9484 11.4478 12.0147 13.5586 12.0731C14.7059 12.1048 15.7688 12.1354 15.9207 12.1412C16.5692 12.1657 13.7565 12.3113 11.8562 12.3516C10.3038 12.3844 9.78553 12.4137 9.78553 12.4687C9.78553 12.5779 10.0881 12.8563 10.3676 13.0045C10.5691 13.1112 10.7084 13.1334 11.1352 13.1266C11.6129 13.119 13.9947 12.8597 15.5479 12.6463C16.2532 12.5495 16.5611 12.5375 16.2581 12.6188C16.1569 12.646 14.9352 12.8688 13.5433 13.1139C12.1515 13.3591 11.0126 13.578 11.0126 13.6006C11.0125 13.6233 11.1701 13.7155 11.3627 13.8056C11.67 13.9493 11.7632 13.9652 12.1231 13.9354C12.6044 13.8955 13.917 13.6003 15.6726 13.1372C16.363 12.9551 16.9385 12.8167 16.9516 12.8297C16.9714 12.8493 15.1649 13.4393 12.8071 14.1832C12.5287 14.2711 12.301 14.3602 12.301 14.3814C12.301 14.4508 12.6274 14.5686 12.9127 14.602C13.1018 14.6242 13.3219 14.5952 13.5904 14.5129C14.1194 14.3508 15.8499 13.7226 16.7162 13.3783C17.0984 13.2264 17.422 13.1128 17.4351 13.1259C17.4619 13.1524 17.1517 13.2993 15.233 14.1692C14.5004 14.5013 13.909 14.8 13.9188 14.833C13.9437 14.9173 14.3695 15.0357 14.6674 15.0413C14.953 15.0466 15.4596 14.8173 16.9636 14.0019C18.2101 13.3262 18.2115 13.3256 18.1688 13.3938C18.1486 13.4261 17.5668 13.8293 16.8758 14.2899C16.1849 14.7505 15.636 15.1536 15.6561 15.1858C15.6774 15.2199 15.8838 15.2299 16.153 15.2098C16.8714 15.156 17.2707 14.9298 18.1222 14.0941C18.5076 13.7157 18.8319 13.4151 18.8429 13.4259C18.8936 13.4761 18.0943 14.6022 17.8214 14.8651C17.1388 15.5224 16.2151 15.7526 15.3782 15.4739L14.9892 15.3443L14.7034 15.5084C13.5668 16.161 12.3357 17.5092 11.4312 19.0918C10.8808 20.0548 10.3763 21.2031 9.87727 22.6297C8.39401 26.8691 6.46745 29.699 4.32582 30.7841C2.83406 31.54 1.58158 31.3648 1.03739 30.3241C0.670508 29.6226 1.05469 28.4976 1.77968 28.1505C2.16061 27.9681 2.73541 27.9984 3.25162 28.2282L3.61973 28.392L3.38064 28.1813C3.02223 27.8657 2.54448 27.7078 2.0495 27.7416C1.31745 27.7914 0.522897 28.2779 0.184054 28.8835C0.0200617 29.1765 0 29.2686 0 29.7282C0 30.3642 0.168164 30.7661 0.616887 31.2026C1.17156 31.7422 1.94232 32.0028 2.97554 32C3.66887 31.9981 4.00189 31.9187 4.63945 31.6035C6.00187 30.93 7.80576 28.8895 8.91183 26.7707C9.0381 26.5289 9.15554 26.331 9.17296 26.3309C9.19032 26.3307 9.25298 26.4653 9.31202 26.6298C9.53254 27.2437 10.2082 27.8847 10.9577 28.1911C11.521 28.4214 12.192 28.4242 12.6835 28.1985C13.3788 27.8792 13.8199 27.4024 14.0261 26.747C14.2707 25.9699 14.129 25.3311 13.6271 24.9486C13.3761 24.7576 13.3056 24.7816 13.4881 24.9962C14.0198 25.6211 13.5035 26.8564 12.5095 27.3373C12.0826 27.5438 11.4651 27.551 11.0363 27.3542C10.6342 27.1698 10.1021 26.6156 9.84343 26.1116C9.64026 25.7156 9.63218 25.6742 9.63218 25.0248C9.63218 24.3514 9.63281 24.3484 9.89582 23.8235C10.4952 22.6274 12.0341 21.407 14.108 20.4831C14.5414 20.2901 15.6027 19.8989 16.4665 19.6141C18.4737 18.952 19.0354 18.7509 19.8049 18.4191C21.9345 17.5008 23.1003 16.5267 23.5877 15.2583C23.7651 14.7965 23.823 13.8781 23.7135 13.2643C23.671 13.0262 23.5567 12.5954 23.4595 12.3068C23.3623 12.0183 23.2828 11.7126 23.2828 11.6274C23.2828 11.4263 23.5117 11.2579 24.2924 10.8848C24.6283 10.7243 25.0548 10.4707 25.2402 10.3214L25.5772 10.0499L27.6342 10.4511C28.7655 10.6719 29.6987 10.845 29.7079 10.8359C29.7171 10.8267 28.8262 10.494 27.7281 10.0963C25.9095 9.43774 25.7286 9.35981 25.6987 9.22165C25.4148 7.91473 24.6016 7.21951 23.3568 7.21951C22.1107 7.21951 20.9737 7.93092 20.5872 8.95234C20.3981 9.4523 20.2698 10.6962 20.3561 11.1942C20.4191 11.558 20.4141 11.6186 20.3052 11.8182C20.0213 12.3384 19.021 12.7809 18.2518 12.7265C17.5282 12.6752 17.1477 12.3037 17.1477 11.6489C17.1477 10.8441 17.7639 10.3002 18.5689 10.3945C19.0353 10.4492 19.4177 10.794 19.4177 11.16C19.4177 11.3129 19.3159 11.324 19.2686 11.1762C19.2164 11.0138 18.894 10.8514 18.6026 10.8408C18.0659 10.8212 17.7612 11.0891 17.7612 11.5804C17.7612 11.8608 17.9449 12.0448 18.2885 12.1085C18.6774 12.1807 19.6571 11.887 19.988 11.5991C20.0799 11.5191 20.0916 11.4467 20.0581 11.1662C19.9446 10.2155 19.5022 9.87721 17.5158 9.22221C15.4005 8.52467 13.7385 7.44433 11.7795 5.49326C9.7342 3.45644 8.37866 1.28038 8.51997 0.2607C8.53984 0.117215 8.5498 -0.000121257 8.54203 9.40436e-08C8.5342 0.000121385 8.44496 0.0512662 8.34375 0.113635ZM23.7599 8.7094C23.9372 8.83206 23.9323 8.90767 23.743 8.97895C23.6194 9.02538 23.5358 9.00455 23.3134 8.87178C23.1617 8.78105 23.0374 8.68612 23.0374 8.66083C23.0374 8.57456 23.6221 8.61383 23.7599 8.7094ZM23.252 13.6317C23.1093 15.4097 21.8467 16.7176 19.1722 17.8576C18.8179 18.0087 17.7109 18.4321 16.712 18.7987C13.8908 19.8344 12.8778 20.2731 11.8553 20.9024C11.6129 21.0516 11.3914 21.1736 11.3632 21.1736C11.335 21.1736 11.4447 21.0595 11.607 20.9198C12.4229 20.2183 14.1215 19.3271 16.1354 18.5439C16.7765 18.2946 17.7014 17.9351 18.1906 17.745C20.1551 16.9819 21.3555 16.2949 22.0976 15.5092C22.7548 14.8132 23.0375 14.1564 23.1367 13.0943L23.1839 12.5888L23.2355 12.8922C23.2639 13.059 23.2713 13.3919 23.252 13.6317Z" fill="white"/>
</svg>
