<svg width="26" height="26" viewBox="0 0 26 26" fill="none" xmlns="http://www.w3.org/2000/svg">
<path d="M16.3041 5.41683C17.3623 5.62327 18.3347 6.14077 19.097 6.90309C19.8594 7.66541 20.3769 8.63787 20.5833 9.696M16.3041 1.0835C18.5025 1.32772 20.5525 2.31219 22.1176 3.87525C23.6826 5.43832 24.6696 7.48709 24.9166 9.68516M23.8333 18.3302V21.5802C23.8345 21.8819 23.7727 22.1805 23.6519 22.457C23.531 22.7334 23.3537 22.9815 23.1314 23.1855C22.9091 23.3895 22.6466 23.5448 22.3608 23.6414C22.075 23.7381 21.7721 23.774 21.4716 23.7468C18.138 23.3846 14.9359 22.2455 12.1225 20.421C9.50495 18.7577 7.28575 16.5385 5.62247 13.921C3.79161 11.0948 2.65223 7.87707 2.29663 4.5285C2.26956 4.22892 2.30517 3.92699 2.40118 3.64192C2.49719 3.35686 2.6515 3.09491 2.8543 2.87275C3.05709 2.6506 3.30392 2.4731 3.57908 2.35156C3.85423 2.23003 4.15167 2.16711 4.45247 2.16683H7.70247C8.22822 2.16165 8.73791 2.34783 9.13654 2.69066C9.53518 3.03348 9.79555 3.50956 9.86913 4.03016C10.0063 5.07023 10.2607 6.09145 10.6275 7.07433C10.7732 7.46208 10.8048 7.88349 10.7184 8.28862C10.632 8.69375 10.4312 9.06562 10.14 9.36016L8.76414 10.736C10.3063 13.4482 12.552 15.6938 15.2641 17.236L16.64 15.8602C16.9345 15.5689 17.3064 15.3682 17.7115 15.2818C18.1166 15.1954 18.5381 15.2269 18.9258 15.3727C19.9087 15.7394 20.9299 15.9938 21.97 16.131C22.4962 16.2052 22.9768 16.4703 23.3204 16.8758C23.6639 17.2813 23.8465 17.7989 23.8333 18.3302Z" stroke="url(#paint0_linear_525_447)" stroke-width="2" stroke-linecap="round" stroke-linejoin="round"/>
<defs>
<linearGradient id="paint0_linear_525_447" x1="24.9166" y1="12.4733" x2="2.28784" y2="12.4733" gradientUnits="userSpaceOnUse">
<stop stop-color="#9855FF"/>
<stop offset="1" stop-color="#E336FF"/>
</linearGradient>
</defs>
</svg>
