<svg width="25" height="22" viewBox="0 0 25 22" fill="none" xmlns="http://www.w3.org/2000/svg">
<path fill-rule="evenodd" clip-rule="evenodd" d="M1.72715 9.50675C8.42861 6.37602 12.9082 4.35249 15.1659 3.35982C21.5448 0.534517 22.8708 0.0381797 23.7309 0C23.9101 0 24.3401 0.03818 24.6268 0.267258C24.8418 0.458157 24.9135 0.725415 24.9493 0.916314C24.9852 1.10721 25.021 1.52719 24.9852 1.87081C24.6268 5.72696 23.1575 15.1574 22.3691 19.4717C22.0465 21.3043 21.4015 21.9152 20.7923 21.9915C19.4663 22.1061 18.427 21.037 17.1369 20.1589C15.1301 18.7462 13.9833 17.8681 12.0123 16.4936C9.75457 14.8901 11.2239 14.012 12.514 12.5993C12.8365 12.2175 18.7496 6.52873 18.8571 5.99422C18.8571 5.91786 18.8929 5.68878 18.7496 5.57424C18.6062 5.4597 18.427 5.49788 18.2837 5.53606C18.0687 5.57424 14.8434 7.86502 8.57196 12.3702C7.6402 13.0575 6.81596 13.3629 6.06339 13.3629C5.23914 13.3629 3.66233 12.8666 2.47972 12.4466C1.04625 11.9503 -0.100521 11.683 0.00698948 10.843C0.0786628 10.4231 0.652049 9.96491 1.72715 9.50675Z" fill="url(#paint0_linear_525_451)"/>
<defs>
<linearGradient id="paint0_linear_525_451" x1="25" y1="11.0521" x2="5.49604e-07" y2="11.0521" gradientUnits="userSpaceOnUse">
<stop stop-color="#9855FF"/>
<stop offset="1" stop-color="#E336FF"/>
</linearGradient>
</defs>
</svg>
