<svg width="26" height="26" viewBox="0 0 26 26" fill="none" xmlns="http://www.w3.org/2000/svg">
<path fill-rule="evenodd" clip-rule="evenodd" d="M22.2117 3.7785C19.7676 1.34321 16.5172 0.0014875 13.0542 0C5.9188 0 0.111351 5.77931 0.108487 12.8829C0.107615 15.1535 0.703605 17.3699 1.83655 19.3239L0 26L6.86267 24.2084C8.75352 25.2348 10.8824 25.7759 13.049 25.7766H13.0544C20.1891 25.7766 25.997 19.9966 26 12.8929C26.0012 9.45058 24.6558 6.21366 22.2117 3.7785ZM13.0544 23.6008H13.05C11.1193 23.6 9.22558 23.0838 7.57362 22.1081L7.18066 21.8762L3.10824 22.9392L4.19522 18.9877L3.93939 18.5823C2.86237 16.8775 2.29341 14.907 2.29428 12.8835C2.29665 6.97935 7.12349 2.17596 13.0587 2.17596C15.9326 2.17695 18.6343 3.29221 20.6657 5.31645C22.6972 7.34056 23.8152 10.031 23.8141 12.8923C23.8117 18.7969 18.9849 23.6008 13.0544 23.6008ZM18.9564 15.5806C18.6329 15.4195 17.0427 14.6407 16.7461 14.5332C16.4497 14.426 16.234 14.3722 16.0184 14.6945C15.8028 15.0168 15.1827 15.7418 14.994 15.9568C14.8053 16.1715 14.6166 16.1985 14.2933 16.0372C13.9697 15.8762 12.9276 15.5362 11.692 14.4394C10.7304 13.5858 10.0813 12.5317 9.89257 12.2093C9.70387 11.887 9.87239 11.7128 10.0344 11.5523C10.1799 11.408 10.3579 11.1762 10.5197 10.9883C10.6815 10.8004 10.7353 10.666 10.8432 10.4512C10.951 10.2364 10.8971 10.0483 10.8161 9.88728C10.7353 9.72602 10.0884 8.14146 9.81883 7.49687C9.55627 6.86927 9.2896 6.95418 9.09106 6.94427C8.90261 6.93497 8.68676 6.93286 8.47103 6.93286C8.25543 6.93286 7.90506 7.01344 7.6085 7.33573C7.31206 7.65802 6.47643 8.43685 6.47643 10.0214C6.47643 11.606 7.6354 13.1366 7.7972 13.3515C7.95887 13.5664 10.0782 16.8179 13.3229 18.2124C14.0945 18.5442 14.6971 18.7421 15.1669 18.8906C15.9419 19.1357 16.647 19.101 17.2043 19.0182C17.8258 18.9257 19.118 18.2393 19.3876 17.4874C19.6571 16.7354 19.6571 16.0908 19.5763 15.9565C19.4954 15.8224 19.2798 15.7418 18.9564 15.5806Z" fill="url(#paint0_linear_525_454)"/>
<defs>
<linearGradient id="paint0_linear_525_454" x1="26" y1="13.0616" x2="5.71589e-07" y2="13.0616" gradientUnits="userSpaceOnUse">
<stop stop-color="#9855FF"/>
<stop offset="1" stop-color="#E336FF"/>
</linearGradient>
</defs>
</svg>
