<svg width="25" height="26" viewBox="0 0 25 26" fill="none" xmlns="http://www.w3.org/2000/svg">
<g clip-path="url(#clip0_534_489)">
<path d="M12.5061 0.689453C7.36568 0.689453 5.86232 0.694756 5.57009 0.718998C4.5152 0.806684 3.85878 0.972778 3.14365 1.32883C2.59253 1.60249 2.15789 1.91972 1.72892 2.3644C0.947696 3.17536 0.474226 4.17306 0.30283 5.35901C0.219499 5.93475 0.195257 6.05217 0.190333 8.99299C0.188439 9.97326 0.190333 11.2634 0.190333 12.9938C0.190333 18.13 0.196015 19.6319 0.220635 19.9235C0.30586 20.95 0.46684 21.5958 0.807739 22.3022C1.45923 23.6545 2.70351 24.6696 4.16938 25.0484C4.67694 25.179 5.23753 25.251 5.9572 25.2851C6.26212 25.2984 9.36998 25.3078 12.4797 25.3078C15.5895 25.3078 18.6992 25.304 18.9966 25.2889C19.8299 25.2497 20.3138 25.1847 20.8488 25.0465C22.3241 24.6658 23.5457 23.6658 24.2104 22.2947C24.5447 21.6053 24.7142 20.9349 24.7909 19.962C24.8076 19.7499 24.8146 16.368 24.8146 12.9906C24.8146 9.61267 24.807 6.23701 24.7903 6.0249C24.7127 5.03629 24.5432 4.37154 24.1981 3.66891C23.915 3.09374 23.6006 2.6642 23.1442 2.22501C22.3296 1.44701 21.3334 0.973535 20.1464 0.802328C19.5712 0.719187 19.4566 0.694567 16.5135 0.689453H12.5061Z" fill="url(#paint0_radial_534_489)"/>
<path d="M12.5061 0.689453C7.36568 0.689453 5.86232 0.694756 5.57009 0.718998C4.5152 0.806684 3.85878 0.972778 3.14365 1.32883C2.59253 1.60249 2.15789 1.91972 1.72892 2.3644C0.947696 3.17536 0.474226 4.17306 0.30283 5.35901C0.219499 5.93475 0.195257 6.05217 0.190333 8.99299C0.188439 9.97326 0.190333 11.2634 0.190333 12.9938C0.190333 18.13 0.196015 19.6319 0.220635 19.9235C0.30586 20.95 0.46684 21.5958 0.807739 22.3022C1.45923 23.6545 2.70351 24.6696 4.16938 25.0484C4.67694 25.179 5.23753 25.251 5.9572 25.2851C6.26212 25.2984 9.36998 25.3078 12.4797 25.3078C15.5895 25.3078 18.6992 25.304 18.9966 25.2889C19.8299 25.2497 20.3138 25.1847 20.8488 25.0465C22.3241 24.6658 23.5457 23.6658 24.2104 22.2947C24.5447 21.6053 24.7142 20.9349 24.7909 19.962C24.8076 19.7499 24.8146 16.368 24.8146 12.9906C24.8146 9.61267 24.807 6.23701 24.7903 6.0249C24.7127 5.03629 24.5432 4.37154 24.1981 3.66891C23.915 3.09374 23.6006 2.6642 23.1442 2.22501C22.3296 1.44701 21.3334 0.973535 20.1464 0.802328C19.5712 0.719187 19.4566 0.694567 16.5135 0.689453H12.5061Z" fill="url(#paint1_radial_534_489)"/>
<path d="M12.5004 3.90918C10.0315 3.90918 9.72168 3.91997 8.75201 3.9641C7.78424 4.00842 7.12365 4.16163 6.54564 4.38644C5.94774 4.61863 5.44056 4.92922 4.93527 5.4347C4.4296 5.93999 4.11901 6.44717 3.88606 7.04488C3.66069 7.62308 3.50728 8.28386 3.46372 9.25125C3.42035 10.2209 3.40899 10.5309 3.40899 12.9998C3.40899 15.4687 3.41997 15.7776 3.46391 16.7472C3.50842 17.715 3.66163 18.3756 3.88625 18.9536C4.11863 19.5515 4.42922 20.0587 4.9347 20.564C5.4398 21.0696 5.94698 21.381 6.5445 21.6132C7.12289 21.838 7.78367 21.9912 8.75125 22.0355C9.72092 22.0796 10.0306 22.0904 12.4992 22.0904C14.9683 22.0904 15.2772 22.0796 16.2469 22.0355C17.2146 21.9912 17.876 21.838 18.4544 21.6132C19.0521 21.381 19.5585 21.0696 20.0636 20.564C20.5693 20.0587 20.8799 19.5515 21.1128 18.9538C21.3363 18.3756 21.4897 17.7148 21.5351 16.7474C21.5787 15.7778 21.5901 15.4687 21.5901 12.9998C21.5901 10.5309 21.5787 10.2211 21.5351 9.25144C21.4897 8.28367 21.3363 7.62308 21.1128 7.04507C20.8799 6.44717 20.5693 5.93999 20.0636 5.4347C19.5579 4.92903 19.0523 4.61844 18.4538 4.38644C17.8743 4.16163 17.2133 4.00842 16.2455 3.9641C15.2759 3.91997 14.9672 3.90918 12.4975 3.90918H12.5004ZM11.6849 5.54739C11.9269 5.54701 12.197 5.54739 12.5004 5.54739C14.9276 5.54739 15.2153 5.5561 16.1738 5.59966C17.0601 5.64019 17.5411 5.78829 17.8616 5.91272C18.2858 6.07748 18.5883 6.27445 18.9062 6.59262C19.2244 6.91079 19.4214 7.21381 19.5865 7.63804C19.711 7.95811 19.8592 8.43915 19.8996 9.32549C19.9431 10.2838 19.9526 10.5717 19.9526 12.9977C19.9526 15.4238 19.9431 15.7117 19.8996 16.67C19.8591 17.5563 19.711 18.0373 19.5865 18.3574C19.4218 18.7816 19.2244 19.0837 18.9062 19.4017C18.5881 19.7199 18.286 19.9168 17.8616 20.0816C17.5415 20.2066 17.0601 20.3543 16.1738 20.3948C15.2154 20.4384 14.9276 20.4479 12.5004 20.4479C10.073 20.4479 9.78531 20.4384 8.82701 20.3948C7.94067 20.3539 7.45962 20.2058 7.13899 20.0814C6.71476 19.9166 6.41174 19.7197 6.09357 19.4015C5.77539 19.0833 5.57843 18.7811 5.41328 18.3567C5.28886 18.0366 5.14057 17.5555 5.10023 16.6692C5.05667 15.7109 5.04795 15.423 5.04795 12.9955C5.04795 10.5679 5.05667 10.2815 5.10023 9.32322C5.14075 8.43688 5.28886 7.95584 5.41328 7.63539C5.57805 7.21116 5.77539 6.90814 6.09357 6.58997C6.41174 6.2718 6.71476 6.07483 7.13899 5.90969C7.45943 5.78469 7.94067 5.63697 8.82701 5.59625C9.66562 5.55837 9.99061 5.54701 11.6849 5.54511V5.54739ZM17.3529 7.05681C16.7506 7.05681 16.262 7.54486 16.262 8.14731C16.262 8.74956 16.7506 9.23818 17.3529 9.23818C17.9551 9.23818 18.4438 8.74956 18.4438 8.14731C18.4438 7.54505 17.9551 7.05643 17.3529 7.05643V7.05681ZM12.5004 8.33139C9.92224 8.33139 7.83196 10.4217 7.83196 12.9998C7.83196 15.578 9.92224 17.6673 12.5004 17.6673C15.0785 17.6673 17.168 15.578 17.168 12.9998C17.168 10.4217 15.0785 8.33139 12.5004 8.33139ZM12.5004 9.9696C14.1738 9.9696 15.5306 11.3262 15.5306 12.9998C15.5306 14.6732 14.1738 16.03 12.5004 16.03C10.8268 16.03 9.47017 14.6732 9.47017 12.9998C9.47017 11.3262 10.8268 9.9696 12.5004 9.9696Z" fill="white"/>
</g>
<defs>
<radialGradient id="paint0_radial_534_489" cx="0" cy="0" r="1" gradientUnits="userSpaceOnUse" gradientTransform="translate(6.73056 27.204) rotate(-90) scale(24.3986 22.6988)">
<stop stop-color="#FFDD55"/>
<stop offset="0.1" stop-color="#FFDD55"/>
<stop offset="0.5" stop-color="#FF543E"/>
<stop offset="1" stop-color="#C837AB"/>
</radialGradient>
<radialGradient id="paint1_radial_534_489" cx="0" cy="0" r="1" gradientUnits="userSpaceOnUse" gradientTransform="translate(-3.93534 2.46292) rotate(78.6776) scale(10.9064 44.968)">
<stop stop-color="#3771C8"/>
<stop offset="0.128" stop-color="#3771C8"/>
<stop offset="1" stop-color="#6600FF" stop-opacity="0"/>
</radialGradient>
<clipPath id="clip0_534_489">
<rect width="25" height="24.9992" fill="white" transform="translate(0 0.5)"/>
</clipPath>
</defs>
</svg>
