<svg width="25" height="26" viewBox="0 0 25 26" fill="none" xmlns="http://www.w3.org/2000/svg">
<g clip-path="url(#clip0_534_493)">
<path d="M12.5 25.5C19.4036 25.5 25 19.9036 25 13C25 6.09644 19.4036 0.5 12.5 0.5C5.59644 0.5 0 6.09644 0 13C0 19.9036 5.59644 25.5 12.5 25.5Z" fill="url(#paint0_linear_534_493)"/>
<path d="M8.46135 13.9142L9.94437 18.019C9.94437 18.019 10.1298 18.4031 10.3283 18.4031C10.5269 18.4031 13.4799 15.331 13.4799 15.331L16.7638 8.98828L8.51427 12.8546L8.46135 13.9142Z" fill="#C8DAEA"/>
<path d="M10.4277 14.9668L10.143 17.9924C10.143 17.9924 10.0239 18.9195 10.9507 17.9924C11.8776 17.0653 12.7648 16.3504 12.7648 16.3504" fill="#A9C6D8"/>
<path d="M8.48813 14.0603L5.4375 13.0663C5.4375 13.0663 5.07292 12.9184 5.19031 12.583C5.21448 12.5138 5.26323 12.455 5.40906 12.3538C6.085 11.8827 17.9201 7.62884 17.9201 7.62884C17.9201 7.62884 18.2543 7.51624 18.4514 7.59113C18.5001 7.60623 18.544 7.634 18.5785 7.67161C18.613 7.70922 18.6369 7.75532 18.6477 7.8052C18.669 7.89329 18.6779 7.98392 18.6742 8.07447C18.6732 8.1528 18.6638 8.22541 18.6566 8.33926C18.5845 9.50228 16.4274 18.1823 16.4274 18.1823C16.4274 18.1823 16.2983 18.6902 15.8359 18.7076C15.7223 18.7113 15.6091 18.692 15.5031 18.651C15.397 18.61 15.3003 18.548 15.2188 18.4688C14.3114 17.6883 11.1751 15.5806 10.4821 15.1171C10.4665 15.1064 10.4533 15.0925 10.4435 15.0764C10.4337 15.0602 10.4274 15.0421 10.4252 15.0233C10.4155 14.9745 10.4686 14.9139 10.4686 14.9139C10.4686 14.9139 15.9297 10.0598 16.075 9.5502C16.0863 9.51072 16.0438 9.49124 15.9867 9.50853C15.624 9.64197 9.33625 13.6127 8.64229 14.0509C8.59234 14.066 8.53954 14.0692 8.48813 14.0603Z" fill="white"/>
</g>
<defs>
<linearGradient id="paint0_linear_534_493" x1="12.5" y1="25.5" x2="12.5" y2="0.5" gradientUnits="userSpaceOnUse">
<stop stop-color="#1D93D2"/>
<stop offset="1" stop-color="#38B0E3"/>
</linearGradient>
<clipPath id="clip0_534_493">
<rect width="25" height="25" fill="white" transform="translate(0 0.5)"/>
</clipPath>
</defs>
</svg>
