<svg width="25" height="24" viewBox="0 0 25 24" fill="none" xmlns="http://www.w3.org/2000/svg">
<g clip-path="url(#clip0_601_5542)">
<g clip-path="url(#clip1_601_5542)">
<g clip-path="url(#clip2_601_5542)">
<path d="M17.915 17.4714C18.0677 16.1996 18.0219 16.0131 18.9692 16.2191L19.2097 16.2403C19.9381 16.2734 20.8909 16.1231 21.4506 15.863C22.6556 15.3039 23.3702 14.3704 22.182 14.6157C19.4717 15.1748 19.2853 14.2571 19.2853 14.2571C22.1473 10.0107 23.3437 4.62028 22.311 3.30083C19.4944 -0.29818 14.6188 1.40371 14.5373 1.4479L14.5113 1.45269C13.9758 1.34158 13.3764 1.27519 12.7032 1.2643C11.4767 1.24415 10.546 1.58584 9.84005 2.12131C9.84005 2.12131 1.14239 -1.46201 1.54702 6.62771C1.63307 8.34862 4.01377 19.6496 6.85319 16.2362C7.89099 14.988 8.89392 13.9326 8.89392 13.9326C9.39193 14.2635 9.98818 14.4323 10.6135 14.3716L10.6619 14.3304C10.6467 14.4854 10.6534 14.637 10.6812 14.8164C9.94987 15.6337 10.1648 15.7772 8.70235 16.0782C7.2228 16.3832 8.09204 16.9261 8.6594 17.0679C9.34742 17.24 10.9391 17.4837 12.0148 15.9781L11.972 16.1499C12.2589 16.3795 12.2395 17.7999 12.2802 18.8147C12.3209 19.8296 12.3889 20.7767 12.5957 21.335C12.8026 21.8933 13.0467 23.3315 14.9687 22.9196C16.575 22.5754 17.8031 22.08 17.915 17.4714Z" fill="black" stroke="black" stroke-width="2.01509"/>
<path d="M22.1823 14.6157C19.4717 15.1748 19.2854 14.257 19.2854 14.257C22.1473 10.0104 23.3437 4.61988 22.3112 3.30058C19.4946 -0.29821 14.6189 1.40379 14.5375 1.44797L14.5113 1.45266C13.9758 1.34149 13.3765 1.27527 12.7029 1.26427C11.4764 1.24417 10.546 1.58581 9.84007 2.12117C9.84007 2.12117 1.14224 -1.46199 1.54677 6.62768C1.63282 8.34869 4.01346 19.6497 6.853 16.2362C7.89084 14.9881 8.89361 13.9327 8.89361 13.9327C9.39168 14.2636 9.98793 14.4323 10.613 14.3717L10.6616 14.3305C10.6465 14.4855 10.6534 14.6371 10.681 14.8165C9.94951 15.6338 10.1645 15.7773 8.70215 16.0783C7.22249 16.3832 8.09173 16.9261 8.65926 17.068C9.34728 17.2401 10.939 17.4838 12.0145 15.9782L11.9716 16.15C12.2583 16.3796 12.4595 17.6433 12.4258 18.7888C12.3921 19.9343 12.3695 20.7208 12.5954 21.3351C12.8212 21.9494 13.0463 23.3316 14.9686 22.9197C16.5749 22.5755 17.4073 21.6834 17.5231 20.1955C17.6053 19.1376 17.7913 19.294 17.803 18.3482L17.9522 17.9005C18.1242 16.4665 17.9795 16.0039 18.9691 16.2191L19.2096 16.2402C19.938 16.2734 20.8913 16.1231 21.4508 15.863C22.6556 15.3039 23.3701 14.3704 22.1822 14.6157H22.1823Z" fill="#336791"/>
<path d="M12.1308 15.4375C12.0562 18.1057 12.1496 20.7925 12.4107 21.4455C12.6719 22.0985 13.231 23.3686 15.1535 22.9568C16.7596 22.6124 17.344 21.9461 17.5976 20.4753C17.7844 19.3931 18.1444 16.3878 18.1906 15.772" stroke="white" stroke-width="0.671697" stroke-linecap="round" stroke-linejoin="round"/>
<path d="M9.8266 2.06141C9.8266 2.06141 1.12285 -1.49594 1.52748 6.59373C1.61353 8.31474 3.99433 19.6161 6.83381 16.2025C7.87145 14.9542 8.80987 13.9751 8.80987 13.9751" stroke="white" stroke-width="0.671697" stroke-linecap="round" stroke-linejoin="round"/>
<path d="M14.5279 1.41225C14.2267 1.50671 19.3695 -0.467784 22.2922 3.26685C23.3246 4.5862 22.1283 9.97671 19.2664 14.2235" stroke="white" stroke-width="0.671697" stroke-linecap="round" stroke-linejoin="round"/>
<path d="M19.2663 14.2234C19.2663 14.2234 19.4528 15.1414 22.1634 14.5819C23.3511 14.3366 22.6363 15.2702 21.4318 15.8296C20.4433 16.2884 18.227 16.406 18.1908 15.772C18.0976 14.1363 19.3572 14.6332 19.2663 14.2234ZM19.2663 14.2234C19.1841 13.8543 18.6209 13.492 18.2482 12.5886C17.9229 11.8001 13.7867 5.75316 19.3953 6.65123C19.6008 6.60872 17.9325 1.31639 12.6836 1.23033C7.43591 1.14428 7.60807 7.68385 7.60807 7.68385" stroke="white" stroke-width="0.671697" stroke-linecap="round" stroke-linejoin="bevel"/>
<path d="M10.6618 14.7828C9.93021 15.6001 10.1454 15.7436 8.68296 16.0447C7.20329 16.3497 8.07264 16.8925 8.64001 17.0343C9.32803 17.2065 10.9198 17.4502 11.9953 15.9443C12.3228 15.4857 11.9933 14.7541 11.5435 14.5676C11.3261 14.4776 11.0354 14.3647 10.6618 14.7828Z" stroke="white" stroke-width="0.671697" stroke-linecap="round" stroke-linejoin="round"/>
<path d="M10.614 14.7685C10.5403 14.288 10.7719 13.7163 11.0201 13.0473C11.3931 12.0436 12.2537 11.0398 11.5652 7.85596C11.0521 5.48341 7.61019 7.3622 7.60803 7.68391C7.60593 8.0055 7.76371 9.3145 7.55054 10.8388C7.27238 12.8279 8.81622 14.5102 10.594 14.3381" stroke="white" stroke-width="0.671697" stroke-linecap="round" stroke-linejoin="round"/>
<path d="M9.79497 7.63583C9.77945 7.74571 9.99613 8.0389 10.2787 8.07808C10.5607 8.11742 10.8021 7.88829 10.8174 7.77853C10.8327 7.66865 10.6163 7.54762 10.3337 7.50829C10.0515 7.46889 9.80995 7.52623 9.79503 7.63583H9.79497Z" fill="white" stroke="white" stroke-width="0.223897"/>
<path d="M18.3857 7.41169C18.401 7.52157 18.1846 7.81476 17.902 7.85394C17.6198 7.89327 17.3784 7.66415 17.3629 7.55438C17.348 7.44451 17.5644 7.32348 17.8468 7.28414C18.1291 7.24481 18.3704 7.30209 18.3857 7.41175V7.41169Z" fill="white" stroke="white" stroke-width="0.111949"/>
<path d="M19.3952 6.65137C19.4417 7.51322 19.2096 8.10026 19.1803 9.01773C19.137 10.3513 19.8161 11.8777 18.7928 13.4059" stroke="white" stroke-width="0.671697" stroke-linecap="round" stroke-linejoin="round"/>
</g>
</g>
</g>
<defs>
<clipPath id="clip0_601_5542">
<rect width="24" height="24" fill="white" transform="translate(0.140015)"/>
</clipPath>
<clipPath id="clip1_601_5542">
<rect width="24" height="24" fill="white" transform="translate(0.140015)"/>
</clipPath>
<clipPath id="clip2_601_5542">
<rect width="23.2827" height="24" fill="white" transform="translate(0.498657)"/>
</clipPath>
</defs>
</svg>
