<svg width="25" height="24" viewBox="0 0 25 24" fill="none" xmlns="http://www.w3.org/2000/svg">
<g clip-path="url(#clip0_601_5478)">
<g clip-path="url(#clip1_601_5478)">
<g clip-path="url(#clip2_601_5478)">
<path d="M0.830017 0H24.83V24H0.830017V0Z" fill="#F7DF1E"/>
<path d="M7.14056 20.0561L8.97716 18.9449C9.33116 19.5731 9.65456 20.1047 10.4274 20.1047C11.1683 20.1047 11.6351 19.8149 11.6351 18.6869V11.0177H13.8911V18.7181C13.8911 21.0551 12.5213 22.1177 10.5246 22.1177C8.71916 22.1177 7.67216 21.1841 7.14056 20.0561ZM15.1163 19.8137L16.9523 18.7511C17.4365 19.5407 18.0641 20.1209 19.1753 20.1209C20.1101 20.1209 20.7053 19.6529 20.7053 19.0091C20.7053 18.2357 20.0945 17.9621 19.0631 17.5109L18.4991 17.2691C16.8725 16.5761 15.7925 15.7061 15.7925 13.8689C15.7925 12.1787 17.0825 10.8887 19.0955 10.8887C20.5295 10.8887 21.5603 11.3891 22.3013 12.6941L20.5451 13.8221C20.1581 13.1291 19.7393 12.8549 19.0955 12.8549C18.4355 12.8549 18.0155 13.2737 18.0155 13.8221C18.0155 14.4977 18.4355 14.7719 19.4015 15.1919L19.9655 15.4319C21.8825 16.2539 22.9613 17.0921 22.9613 18.9767C22.9613 21.0071 21.3665 22.1177 19.2245 22.1177C17.1293 22.1177 15.7763 21.1199 15.1163 19.8149" fill="black"/>
</g>
</g>
</g>
<defs>
<clipPath id="clip0_601_5478">
<rect width="24" height="24" fill="white" transform="translate(0.830017)"/>
</clipPath>
<clipPath id="clip1_601_5478">
<rect width="24" height="24" fill="white" transform="translate(0.830017)"/>
</clipPath>
<clipPath id="clip2_601_5478">
<rect width="24" height="24" fill="white" transform="translate(0.830017)"/>
</clipPath>
</defs>
</svg>
