<svg width="25" height="24" viewBox="0 0 25 24" fill="none" xmlns="http://www.w3.org/2000/svg">
<g clip-path="url(#clip0_601_5309)">
<g clip-path="url(#clip1_601_5309)">
<g clip-path="url(#clip2_601_5309)">
<path d="M1.02304 1.31501C0.911651 1.31356 0.801293 1.33653 0.699722 1.38228C0.59815 1.42804 0.507827 1.49548 0.435095 1.57986C0.362364 1.66424 0.308988 1.76353 0.278717 1.87074C0.248445 1.97795 0.242011 2.09048 0.259868 2.20045L3.49969 21.8682C3.54004 22.1089 3.66392 22.3276 3.84955 22.4861C4.03519 22.6445 4.27071 22.7324 4.51474 22.7344H20.0574C20.2403 22.7368 20.418 22.6733 20.558 22.5557C20.6981 22.438 20.7912 22.2739 20.8205 22.0933L24.0604 2.20426C24.0782 2.0943 24.0718 1.98178 24.0415 1.87459C24.0112 1.76739 23.9578 1.66813 23.8851 1.58377C23.8123 1.4994 23.722 1.43198 23.6204 1.38625C23.5189 1.34051 23.4085 1.31756 23.2971 1.31901L1.02304 1.31501ZM14.6653 15.5297H9.70447L8.36123 8.51204H15.8674L14.6653 15.5297Z" fill="#2684FF"/>
<path d="M23.0103 8.5022H15.8535L14.6524 15.5143H9.69552L3.84265 22.4615C4.02816 22.6218 4.26467 22.711 4.5099 22.7131H20.044C20.2268 22.7154 20.4043 22.652 20.5443 22.5345C20.6843 22.4169 20.7774 22.253 20.8066 22.0725L23.0103 8.5022Z" fill="url(#paint0_linear_601_5309)"/>
</g>
</g>
</g>
<defs>
<linearGradient id="paint0_linear_601_5309" x1="5374.63" y1="461.78" x2="3172.3" y2="3260.29" gradientUnits="userSpaceOnUse">
<stop offset="0.18" stop-color="#0052CC"/>
<stop offset="1" stop-color="#2684FF"/>
</linearGradient>
<clipPath id="clip0_601_5309">
<rect width="24" height="24" fill="white" transform="translate(0.160095)"/>
</clipPath>
<clipPath id="clip1_601_5309">
<rect width="24" height="24" fill="white" transform="translate(0.160095)"/>
</clipPath>
<clipPath id="clip2_601_5309">
<rect width="24" height="21.6576" fill="white" transform="translate(0.160095 1.17114)"/>
</clipPath>
</defs>
</svg>
