<svg width="25" height="24" viewBox="0 0 25 24" fill="none" xmlns="http://www.w3.org/2000/svg">
<g clip-path="url(#clip0_601_5385)">
<g clip-path="url(#clip1_601_5385)">
<g clip-path="url(#clip2_601_5385)">
<path d="M7.48186 15.114L5.28586 16.062L7.31986 16.938L9.67786 16.062L7.48186 15.114ZM4.18186 16.302L4.10386 20.574L7.31986 22.002V17.562L4.17586 16.302H4.18186ZM10.7819 16.302L7.87786 17.412V21.6L10.7879 20.412V16.302H10.7819ZM14.2679 3L12.0479 3.948L14.0999 4.824L16.4579 3.948L14.2559 3H14.2679ZM11.1899 4.26V8.538L13.9379 9.336L14.0279 5.448L11.1899 4.26ZM17.3339 4.5L14.7359 5.616V9.816L17.3339 8.628V4.5ZM3.85786 9.018L1.66186 9.96L3.69586 10.836L6.05386 9.96L3.85786 9.012V9.018ZM0.557858 10.2L0.479858 14.478L3.69586 15.906V11.466L0.551858 10.206L0.557858 10.2ZM7.16386 10.2L4.25986 11.316V15.504L7.16386 14.316V10.206V10.2ZM10.9439 8.85L8.74186 9.804L10.7819 10.68L13.1399 9.804L10.9439 8.85ZM7.63786 10.044L7.55986 14.316L10.7819 15.744V11.304L7.63786 10.044ZM14.2499 10.044L11.3399 11.16V15.348L14.2499 14.16V10.044ZM21.1739 3L18.9779 3.948L21.0119 4.824L23.3759 3.948L21.1679 3H21.1739ZM17.8739 4.188L17.7959 8.46L21.0119 9.888V5.448L17.8679 4.188H17.8739ZM24.4799 4.188L21.5759 5.304V9.486L24.4799 8.298V4.188Z" fill="#F7A80D"/>
</g>
</g>
</g>
<defs>
<clipPath id="clip0_601_5385">
<rect width="24" height="24" fill="white" transform="translate(0.479858)"/>
</clipPath>
<clipPath id="clip1_601_5385">
<rect width="24" height="24" fill="white" transform="translate(0.479858)"/>
</clipPath>
<clipPath id="clip2_601_5385">
<rect width="24" height="24" fill="white" transform="translate(0.479858)"/>
</clipPath>
</defs>
</svg>
