<svg width="25" height="24" viewBox="0 0 25 24" fill="none" xmlns="http://www.w3.org/2000/svg">
<g clip-path="url(#clip0_601_5573)">
<g clip-path="url(#clip1_601_5573)">
<g clip-path="url(#clip2_601_5573)">
<path d="M0.820007 17.662L2.62001 9.1948H6.78401C8.58401 9.2986 9.48401 10.135 9.48401 11.599C9.48401 14.1076 7.34621 15.571 5.43401 15.466H3.40721L2.95721 17.662H0.820007ZM3.85781 13.8988H5.20781C6.22121 13.7938 7.12121 13.4806 7.23401 11.704C7.23401 11.0758 6.67121 10.7626 5.88401 10.7626H4.42001L3.85781 13.8988ZM9.06581 15.466L10.8658 7H13.0042L12.5542 9.1948H14.5792C16.3792 9.2986 17.0548 10.135 16.8292 11.1808L16.042 15.466H13.792L14.5792 11.599C14.692 11.0758 14.692 10.7626 13.9042 10.7626H12.2158L11.2042 15.466H9.06581ZM15.898 17.662L17.698 9.1948H21.862C23.662 9.2986 24.562 10.135 24.562 11.599C24.562 14.1076 22.4242 15.571 20.512 15.466H18.4858L18.0358 17.662H15.898ZM18.9358 13.8988H20.2858C21.2992 13.7938 22.1992 13.4806 22.312 11.704C22.312 11.0758 21.7492 10.7626 20.962 10.7626H19.4992L18.9358 13.8988Z" fill="#6983B5"/>
</g>
</g>
</g>
<defs>
<clipPath id="clip0_601_5573">
<rect width="24" height="24" fill="white" transform="translate(0.820007)"/>
</clipPath>
<clipPath id="clip1_601_5573">
<rect width="24" height="24" fill="white" transform="translate(0.820007)"/>
</clipPath>
<clipPath id="clip2_601_5573">
<rect width="24" height="24" fill="white" transform="translate(0.820007)"/>
</clipPath>
</defs>
</svg>
