<svg width="25" height="24" viewBox="0 0 25 24" fill="none" xmlns="http://www.w3.org/2000/svg">
<g clip-path="url(#clip0_601_5318)">
<g clip-path="url(#clip1_601_5318)">
<g clip-path="url(#clip2_601_5318)">
<path fill-rule="evenodd" clip-rule="evenodd" d="M12.8198 23.0521L17.2298 9.45605H8.40985L12.8198 23.0521Z" fill="#E24329"/>
<path fill-rule="evenodd" clip-rule="evenodd" d="M12.82 23.0521L8.41602 9.45605H2.23602L12.82 23.0521Z" fill="#FC6D26"/>
<path fill-rule="evenodd" clip-rule="evenodd" d="M2.23598 9.45605L0.897979 13.5841C0.777979 13.9621 0.909979 14.3761 1.22798 14.6041L12.82 23.0581L2.23598 9.45605Z" fill="#FCA326"/>
<path fill-rule="evenodd" clip-rule="evenodd" d="M2.23602 9.45572H8.41602L5.75802 1.25972C5.72748 1.16936 5.66937 1.09084 5.59188 1.03523C5.51438 0.979618 5.4214 0.949707 5.32602 0.949707C5.23063 0.949707 5.13765 0.979618 5.06015 1.03523C4.98266 1.09084 4.92455 1.16936 4.89402 1.25972L2.23602 9.45572Z" fill="#E24329"/>
<path fill-rule="evenodd" clip-rule="evenodd" d="M12.82 23.0521L17.23 9.45605H23.404L12.82 23.0521Z" fill="#FC6D26"/>
<path fill-rule="evenodd" clip-rule="evenodd" d="M23.404 9.45605L24.742 13.5841C24.862 13.9621 24.73 14.3761 24.412 14.6041L12.82 23.0581L23.404 9.46206V9.45605Z" fill="#FCA326"/>
<path fill-rule="evenodd" clip-rule="evenodd" d="M23.4043 9.45572H17.2243L19.8823 1.25972C19.9128 1.16936 19.9709 1.09084 20.0484 1.03523C20.1259 0.979618 20.2189 0.949707 20.3143 0.949707C20.4097 0.949707 20.5027 0.979618 20.5802 1.03523C20.6577 1.09084 20.7158 1.16936 20.7463 1.25972L23.4043 9.45572Z" fill="#E24329"/>
</g>
</g>
</g>
<defs>
<clipPath id="clip0_601_5318">
<rect width="24" height="24" fill="white" transform="translate(0.820007)"/>
</clipPath>
<clipPath id="clip1_601_5318">
<rect width="24" height="24" fill="white" transform="translate(0.820007)"/>
</clipPath>
<clipPath id="clip2_601_5318">
<rect width="24" height="24" fill="white" transform="translate(0.820007)"/>
</clipPath>
</defs>
</svg>
