<svg width="25" height="24" viewBox="0 0 25 24" fill="none" xmlns="http://www.w3.org/2000/svg">
<g clip-path="url(#clip0_601_5745)">
<g clip-path="url(#clip1_601_5745)">
<g clip-path="url(#clip2_601_5745)">
<path d="M17.4236 3.08982C16.9838 3.26408 16.2508 3.75202 15.3816 4.45953L16.1827 5.46678C16.7429 4.93005 17.3189 4.44908 17.8948 4.03782C17.9367 4.00645 17.9629 3.98902 17.9629 3.98902C17.942 4.00645 17.9158 4.02039 17.8948 4.03782C17.7064 4.17374 17.1409 4.61289 16.2874 5.48769C17.1095 5.45981 18.3713 5.34828 19.4028 5.22978C19.7117 4.08661 19.1043 3.56382 19.1043 3.56382C19.1043 3.56382 18.3294 2.73084 17.4236 3.08982Z" fill="url(#paint0_linear_601_5745)"/>
<path d="M14.7255 11.5449C14.621 11.5589 14.5164 11.5693 14.4119 11.5798C14.4642 11.5763 14.5217 11.5693 14.5739 11.5623C14.6262 11.5589 14.6785 11.5519 14.7255 11.5449Z" fill="#1B5BF7"/>
<path opacity="0.35" d="M14.7255 11.5449C14.621 11.5589 14.5164 11.5693 14.4119 11.5798C14.4642 11.5763 14.5217 11.5693 14.5739 11.5623C14.6262 11.5589 14.6785 11.5519 14.7255 11.5449Z" fill="#1B5BF7"/>
<path d="M14.9988 10.6636C14.9936 10.6636 14.9936 10.6636 14.9988 10.6636C15.0145 10.6636 15.0302 10.6601 15.0459 10.6601C15.1138 10.6532 15.1818 10.6462 15.2445 10.6357C15.1661 10.6462 15.0824 10.6532 14.9988 10.6636Z" fill="#1B5BF7"/>
<path opacity="0.35" d="M14.9988 10.6636C14.9936 10.6636 14.9936 10.6636 14.9988 10.6636C15.0145 10.6636 15.0302 10.6601 15.0459 10.6601C15.1138 10.6532 15.1818 10.6462 15.2445 10.6357C15.1661 10.6462 15.0824 10.6532 14.9988 10.6636Z" fill="#1B5BF7"/>
<path d="M13.8142 8.06673C14.0603 7.76351 14.3064 7.46727 14.5524 7.17799C14.809 6.87825 15.0708 6.58898 15.3378 6.30667C15.3535 6.28924 15.3693 6.27182 15.385 6.25788C15.6468 5.98254 15.9086 5.71766 16.1756 5.46323L15.3745 4.45947C15.3169 4.50827 15.2541 4.55706 15.1912 4.60934C14.9608 4.80103 14.72 5.00666 14.4739 5.22623C14.1964 5.47369 13.9137 5.73508 13.6205 6.01042C13.3534 6.26485 13.0812 6.53321 12.8089 6.80855C12.5785 7.04555 12.3481 7.28603 12.1177 7.53349C12.1073 7.54394 12.102 7.55091 12.0916 7.56137L13.1335 8.93108C13.3639 8.6418 13.589 8.35253 13.8142 8.06673Z" fill="url(#paint1_linear_601_5745)"/>
<path d="M9.067 15.7938C8.93086 16.0448 8.78949 16.3027 8.65336 16.5675C8.65336 16.571 8.64812 16.5745 8.64812 16.578C8.62718 16.6163 8.60623 16.6512 8.59053 16.6895C8.49628 16.8673 8.41774 17.0276 8.22925 17.3901C8.53817 17.4842 8.78426 17.7281 9.01464 18.007C8.98846 17.7177 8.81044 17.4458 8.4701 17.2367C9.98328 17.282 11.2923 17.0276 11.9625 16.2887C12.0201 16.2225 12.0777 16.1528 12.13 16.0796C11.8211 16.3375 11.4441 16.449 10.7268 16.4212C11.7792 16.1075 12.308 15.8043 12.774 15.3059C12.884 15.1874 12.9939 15.0584 13.1039 14.9155C12.1824 15.5464 11.1143 15.7241 9.98852 15.5882L9.14553 15.6509C9.11935 15.6997 9.09318 15.745 9.067 15.7938Z" fill="url(#paint2_linear_601_5745)"/>
<path d="M9.45902 14.536C9.64227 14.2223 9.83077 13.9051 10.0193 13.5845C10.2025 13.2778 10.391 12.9711 10.5848 12.6609C10.7785 12.3507 10.9774 12.0405 11.1764 11.7303C11.3806 11.4132 11.59 11.0995 11.8047 10.7858C12.0142 10.4756 12.2341 10.1654 12.4487 9.85874C12.5273 9.74721 12.6058 9.63917 12.6896 9.52764C12.8257 9.33944 12.9671 9.15123 13.1085 8.96303C13.1137 8.95257 13.1242 8.94211 13.1294 8.93166L12.0979 7.56543C12.0822 7.58286 12.0665 7.60377 12.0456 7.62119C11.8047 7.88608 11.5586 8.15444 11.323 8.42978C11.0822 8.7086 10.8465 8.99091 10.6162 9.28019C10.4224 9.52415 10.2339 9.76812 10.0454 10.0156C10.0088 10.0644 9.97214 10.1167 9.93549 10.1654C9.71034 10.4756 9.5009 10.7789 9.31765 11.0681C9.10821 11.3957 8.92495 11.7094 8.76264 12.0057C8.65792 12.2008 8.55844 12.3891 8.46943 12.5703C8.39612 12.7236 8.32806 12.8805 8.25999 13.0338C8.10291 13.3963 7.97201 13.7588 7.86206 14.1212L8.90924 15.4979C9.04538 15.2505 9.19198 15.003 9.33335 14.7486C9.37524 14.6789 9.41713 14.6092 9.45902 14.536Z" fill="url(#paint3_linear_601_5745)"/>
<path d="M7.84616 14.1699C7.71526 14.609 7.62101 15.0482 7.57389 15.4873C7.57389 15.5013 7.56865 15.5187 7.56865 15.5326C7.24402 15.1841 6.36439 14.8425 6.36963 14.846C6.99794 15.4525 7.4744 16.0519 7.54247 16.6409C7.20737 16.6863 6.74661 16.62 6.21778 16.4911C6.77279 16.8292 7.18643 16.9233 7.34874 16.9477C6.84086 16.9686 6.31203 17.2021 5.77797 17.4704C6.55812 17.2578 7.19167 17.1742 7.64195 17.2439C6.92463 18.5927 6.20731 20.0844 5.48999 21.6667C5.7099 21.6249 5.8408 21.5238 5.9141 21.3914C6.03976 21.1056 6.89322 19.2235 8.22314 16.7525C8.25979 16.6828 8.30168 16.6131 8.33833 16.5399C8.3488 16.519 8.35928 16.5015 8.36975 16.4806C8.51112 16.2227 8.65772 15.9578 8.80957 15.686C8.84622 15.6232 8.87763 15.564 8.91428 15.5013V15.4978L7.8671 14.1211C7.85663 14.1385 7.85139 14.1525 7.84616 14.1699Z" fill="url(#paint4_linear_601_5745)"/>
<path d="M13.3026 9.04998C13.2712 9.09181 13.245 9.13014 13.2136 9.17197C13.1246 9.29744 13.0303 9.42291 12.9413 9.55186C12.8418 9.69127 12.7424 9.83417 12.6376 9.98055C12.5853 10.0537 12.5329 10.1269 12.4806 10.2036C12.3235 10.4302 12.1664 10.6637 12.0041 10.9042C11.8051 11.2004 11.6062 11.5071 11.402 11.8277C11.2082 12.131 11.0093 12.4481 10.8103 12.7723C10.6218 13.0824 10.4281 13.3996 10.2343 13.7307C10.0616 14.0235 9.88876 14.3267 9.71074 14.6369C9.70027 14.6508 9.69504 14.6682 9.68456 14.6822C9.51178 14.9889 9.33376 15.3061 9.15574 15.6302C9.1505 15.6372 9.14526 15.6441 9.14526 15.6511L9.98825 15.5884C9.97254 15.5849 9.95683 15.5849 9.93589 15.5814C10.9464 15.4977 12.2868 14.9959 13.1508 14.3755C13.5487 14.0897 13.91 13.7551 14.2451 13.3613C14.4964 13.0685 14.7268 12.7444 14.9519 12.3819C15.1456 12.0682 15.3341 11.7267 15.5122 11.3572C15.2818 11.4374 15.0147 11.4966 14.7215 11.5385C14.6692 11.5454 14.6168 11.5524 14.5645 11.5594C14.5121 11.5664 14.4597 11.5698 14.4021 11.5768C15.3446 11.3363 15.9363 10.8728 16.3656 10.3012C16.1195 10.4127 15.7164 10.5591 15.2347 10.6323C15.1718 10.6428 15.1038 10.6497 15.0357 10.6567C15.02 10.6567 15.0043 10.6602 14.9833 10.6602C15.308 10.5696 15.5855 10.4685 15.8263 10.3465C15.8787 10.3221 15.9258 10.2942 15.9729 10.2663C16.0462 10.2245 16.1143 10.1792 16.1824 10.1339C16.2242 10.1025 16.2661 10.0747 16.308 10.0433C16.4023 9.97009 16.4913 9.88993 16.5698 9.8028C16.596 9.77492 16.6222 9.75052 16.6431 9.72264C16.6745 9.68082 16.7059 9.64248 16.7321 9.60414C16.863 9.42988 16.9677 9.27304 17.0515 9.13363C17.0934 9.06392 17.1301 9.00119 17.1615 8.94194C17.1719 8.91754 17.1876 8.89662 17.1981 8.87222C17.2295 8.806 17.261 8.74676 17.2819 8.69448C17.3133 8.61781 17.3343 8.55507 17.3447 8.50977C17.3133 8.52719 17.2767 8.54462 17.2348 8.55856C16.952 8.67009 16.4651 8.77464 16.0724 8.82343C16.0672 8.82343 16.0619 8.82344 16.0567 8.82693C16.02 8.83041 15.9782 8.8339 15.9363 8.84087C15.9415 8.83738 15.952 8.83738 15.9572 8.8339L13.3078 9.02559C13.3131 9.03953 13.3078 9.0465 13.3026 9.04998Z" fill="url(#paint5_linear_601_5745)"/>
<path d="M16.2869 5.48782C16.0513 5.72831 15.7947 6.00364 15.5172 6.31035C15.5015 6.32778 15.4858 6.34172 15.4753 6.35914C15.2345 6.62751 14.9831 6.92027 14.7161 7.2444C14.4857 7.52323 14.2449 7.81947 13.9936 8.1436C13.7737 8.42243 13.5537 8.71868 13.3181 9.03235L15.9675 8.84066C16.7372 8.60366 17.0828 8.39106 17.4179 8.08087C17.5069 7.99722 17.5959 7.90661 17.6849 7.8125C17.9572 7.5302 18.2242 7.22001 18.4598 6.90982C18.6902 6.61008 18.8944 6.31383 19.0462 6.04895C19.1457 5.87817 19.2242 5.72134 19.2818 5.58193C19.329 5.45994 19.3656 5.34493 19.397 5.2334C18.3708 5.34841 17.1089 5.45994 16.2869 5.48782Z" fill="url(#paint6_linear_601_5745)"/>
<path d="M14.5739 11.5659C14.5217 11.5729 14.4694 11.5764 14.4119 11.5833C14.4642 11.5764 14.5164 11.5694 14.5739 11.5659Z" fill="#1B5BF7"/>
<path opacity="0.35" d="M14.5739 11.5659C14.5217 11.5729 14.4694 11.5764 14.4119 11.5833C14.4642 11.5764 14.5164 11.5694 14.5739 11.5659Z" fill="#1B5BF7"/>
<path d="M14.5739 11.5659C14.5217 11.5729 14.4694 11.5764 14.4119 11.5833C14.4642 11.5764 14.5164 11.5694 14.5739 11.5659Z" fill="url(#paint7_linear_601_5745)"/>
<path d="M14.9929 10.6632C15.0086 10.6632 15.0243 10.6597 15.0452 10.6597C15.0295 10.6597 15.0138 10.6632 14.9929 10.6632Z" fill="#1B5BF7"/>
<path opacity="0.35" d="M14.9929 10.6632C15.0086 10.6632 15.0243 10.6597 15.0452 10.6597C15.0295 10.6597 15.0138 10.6632 14.9929 10.6632Z" fill="#1B5BF7"/>
<path d="M14.9929 10.6632C15.0086 10.6632 15.0243 10.6597 15.0452 10.6597C15.0295 10.6597 15.0138 10.6632 14.9929 10.6632Z" fill="url(#paint8_linear_601_5745)"/>
<path d="M24.49 0H0.48999V24H24.49V0Z" fill="#C4C4C4" fill-opacity="0.01"/>
</g>
</g>
</g>
<defs>
<linearGradient id="paint0_linear_601_5745" x1="16.0651" y1="4.58113" x2="21.4505" y2="2.33171" gradientUnits="userSpaceOnUse">
<stop stop-color="#F69923"/>
<stop offset="0.3123" stop-color="#F79A23"/>
<stop offset="0.8383" stop-color="#E97826"/>
</linearGradient>
<linearGradient id="paint1_linear_601_5745" x1="3.21227" y1="22.121" x2="9.08778" y2="3.19132" gradientUnits="userSpaceOnUse">
<stop offset="0.3233" stop-color="#9E2064"/>
<stop offset="0.6302" stop-color="#C92037"/>
<stop offset="0.7514" stop-color="#CD2335"/>
<stop offset="1" stop-color="#E97826"/>
</linearGradient>
<linearGradient id="paint2_linear_601_5745" x1="7.22416" y1="20.8607" x2="10.7254" y2="9.58048" gradientUnits="userSpaceOnUse">
<stop stop-color="#282662"/>
<stop offset="0.0954839" stop-color="#662E8D"/>
<stop offset="0.7882" stop-color="#9F2064"/>
<stop offset="0.9487" stop-color="#CD2032"/>
</linearGradient>
<linearGradient id="paint3_linear_601_5745" x1="3.64543" y1="21.0901" x2="9.52095" y2="2.16037" gradientUnits="userSpaceOnUse">
<stop offset="0.3233" stop-color="#9E2064"/>
<stop offset="0.6302" stop-color="#C92037"/>
<stop offset="0.7514" stop-color="#CD2335"/>
<stop offset="1" stop-color="#E97826"/>
</linearGradient>
<linearGradient id="paint4_linear_601_5745" x1="4.86264" y1="19.9542" x2="7.95039" y2="10.0061" gradientUnits="userSpaceOnUse">
<stop stop-color="#282662"/>
<stop offset="0.0954839" stop-color="#662E8D"/>
<stop offset="0.7882" stop-color="#9F2064"/>
<stop offset="0.9487" stop-color="#CD2032"/>
</linearGradient>
<linearGradient id="paint5_linear_601_5745" x1="6.29633" y1="21.9126" x2="12.1719" y2="2.98286" gradientUnits="userSpaceOnUse">
<stop offset="0.3233" stop-color="#9E2064"/>
<stop offset="0.6302" stop-color="#C92037"/>
<stop offset="0.7514" stop-color="#CD2335"/>
<stop offset="1" stop-color="#E97826"/>
</linearGradient>
<linearGradient id="paint6_linear_601_5745" x1="5.42381" y1="22.929" x2="11.2993" y2="3.99928" gradientUnits="userSpaceOnUse">
<stop offset="0.3233" stop-color="#9E2064"/>
<stop offset="0.6302" stop-color="#C92037"/>
<stop offset="0.7514" stop-color="#CD2335"/>
<stop offset="1" stop-color="#E97826"/>
</linearGradient>
<linearGradient id="paint7_linear_601_5745" x1="7.09524" y1="22.1568" x2="12.9782" y2="3.23237" gradientUnits="userSpaceOnUse">
<stop offset="0.3233" stop-color="#9E2064"/>
<stop offset="0.6302" stop-color="#C92037"/>
<stop offset="0.7514" stop-color="#CD2335"/>
<stop offset="1" stop-color="#E97826"/>
</linearGradient>
<linearGradient id="paint8_linear_601_5745" x1="7.0061" y1="22.1276" x2="12.8882" y2="3.20461" gradientUnits="userSpaceOnUse">
<stop offset="0.3233" stop-color="#9E2064"/>
<stop offset="0.6302" stop-color="#C92037"/>
<stop offset="0.7514" stop-color="#CD2335"/>
<stop offset="1" stop-color="#E97826"/>
</linearGradient>
<clipPath id="clip0_601_5745">
<rect width="24" height="24" fill="white" transform="translate(0.48999)"/>
</clipPath>
<clipPath id="clip1_601_5745">
<rect width="24" height="24" fill="white" transform="translate(0.48999)"/>
</clipPath>
<clipPath id="clip2_601_5745">
<rect width="24" height="24" fill="white" transform="translate(0.48999)"/>
</clipPath>
</defs>
</svg>
