<svg width="25" height="24" viewBox="0 0 25 24" fill="none" xmlns="http://www.w3.org/2000/svg">
<g clip-path="url(#clip0_601_5702)">
<g clip-path="url(#clip1_601_5702)">
<g clip-path="url(#clip2_601_5702)">
<mask id="mask0_601_5702" style="mask-type:luminance" maskUnits="userSpaceOnUse" x="0" y="0" width="25" height="24">
<path d="M24.83 0H0.829987V24H24.83V0Z" fill="white"/>
</mask>
<g mask="url(#mask0_601_5702)">
<path d="M21.4829 12.7399C20.7298 12.741 19.9869 12.9134 19.3103 13.2439C19.0865 12.8011 18.8633 12.4069 18.8243 12.1177C18.7799 11.7799 18.7271 11.5741 18.7799 11.1709C18.8327 10.7683 19.0691 10.1941 19.0649 10.1509C19.0601 10.1065 19.0121 9.90073 18.5303 9.89653C18.0485 9.89173 17.6321 9.98833 17.5841 10.1155C17.5361 10.2421 17.4437 10.5313 17.3825 10.8295C17.2991 11.2675 16.4183 12.8317 15.9149 13.6507C15.7529 13.3309 15.6125 13.0507 15.5819 12.8275C15.5381 12.4897 15.4853 12.2839 15.5381 11.8807C15.5903 11.4781 15.8267 10.9039 15.8225 10.8601C15.8183 10.8163 15.7703 10.6105 15.2885 10.6057C14.8061 10.6015 14.3897 10.6981 14.3417 10.8253C14.2937 10.9519 14.2409 11.2501 14.1401 11.5393C14.0393 11.8285 12.8699 14.4397 12.5633 15.1141C12.4393 15.3872 12.3093 15.6575 12.1733 15.9247C12.1733 15.9247 12.1685 15.9379 12.1553 15.9595C12.0725 16.1215 12.0245 16.2097 12.0245 16.2097V16.2139C11.9585 16.3321 11.8883 16.4419 11.8535 16.4419C11.8271 16.4419 11.7791 16.1263 11.8619 15.6967C12.0371 14.7901 12.4535 13.3795 12.4493 13.3309C12.4493 13.3045 12.5279 13.0597 12.1775 12.9325C11.8355 12.8053 11.7131 13.0159 11.6825 13.0159C11.6519 13.0159 11.6297 13.0903 11.6297 13.0903C11.6297 13.0903 12.0113 11.5039 10.9025 11.5039C10.2107 11.5039 9.25547 12.2623 8.78207 12.9457C8.48447 13.1077 7.84906 13.4539 7.16987 13.8259C6.91186 13.9705 6.64426 14.1151 6.39406 14.2513C6.37666 14.2333 6.35926 14.2117 6.34187 14.1943C5.00087 12.7615 2.52167 11.7493 2.62666 9.82633C2.66626 9.12493 2.90687 7.28533 7.38887 5.05033C11.0777 3.23233 14.0129 3.73633 14.5217 4.85353C15.2489 6.44833 12.9485 9.40993 9.13726 9.83953C7.68227 10.0015 6.92027 9.44053 6.72707 9.23053C6.52606 9.01153 6.49487 8.99833 6.42106 9.04213C6.29806 9.10813 6.37667 9.30493 6.42106 9.41893C6.53506 9.71653 7.00306 10.2421 7.79626 10.5007C8.49706 10.7287 10.2017 10.8559 12.2651 10.0585C14.5739 9.16453 16.3793 6.68053 15.8489 4.59973C15.3191 2.48773 11.8139 1.79113 8.49706 2.96953C6.52606 3.67093 4.38766 4.77493 2.84987 6.21193C1.02286 7.92013 0.734262 9.40573 0.851862 10.0279C1.27726 12.2359 4.32226 13.6729 5.54026 14.7379C5.47846 14.7727 5.42147 14.8033 5.37346 14.8297C4.76446 15.1315 2.44247 16.3453 1.86407 17.6293C1.20706 19.0837 1.96967 20.1265 2.47306 20.2663C4.03726 20.7001 5.64527 19.9201 6.50807 18.6325C7.37147 17.3443 7.26646 15.6709 6.86806 14.9041C6.86327 14.8951 6.85907 14.8861 6.85006 14.8777C7.00787 14.7859 7.16987 14.6893 7.32767 14.5975C7.63847 14.4133 7.94566 14.2423 8.20846 14.1019C8.05906 14.5099 7.94986 14.9959 7.89706 15.6967C7.83106 16.5205 8.16887 17.5897 8.61107 18.0103C8.80847 18.1939 9.04067 18.1987 9.18947 18.1987C9.70666 18.1987 9.93887 17.7691 10.1975 17.2609C10.5125 16.6387 10.7975 15.9157 10.7975 15.9157C10.7975 15.9157 10.4429 17.8699 11.4065 17.8699C11.7569 17.8699 12.1121 17.4139 12.2693 17.1823V17.1865C12.2693 17.1865 12.2783 17.1733 12.2957 17.1427L12.3527 17.0509V17.0419C12.4931 16.7965 12.8087 16.2403 13.2767 15.3157C13.8821 14.1241 14.4647 12.6343 14.4647 12.6343C14.4647 12.6343 14.5169 12.9979 14.6969 13.6027C14.8019 13.9579 15.0209 14.3473 15.1961 14.7247C15.0557 14.9215 14.9681 15.0307 14.9681 15.0307L14.9729 15.0355C14.8589 15.1843 14.7359 15.3463 14.6003 15.5041C14.1227 16.0741 13.5533 16.7263 13.4741 16.9147C13.3823 17.1385 13.4045 17.3005 13.5797 17.4319C13.7063 17.5279 13.9343 17.5411 14.1665 17.5279C14.5961 17.4979 14.8985 17.3923 15.0473 17.3269C15.2795 17.2429 15.5513 17.1169 15.8051 16.9279C16.2737 16.5817 16.5587 16.0867 16.5323 15.4339C16.5191 15.0745 16.4009 14.7157 16.2563 14.3779C16.3001 14.3167 16.3397 14.2555 16.3835 14.1943C17.1239 13.1119 17.6975 11.9245 17.6975 11.9245C17.6975 11.9245 17.7503 12.2881 17.9303 12.8929C18.0179 13.1995 18.1973 13.5325 18.3551 13.8571C17.6585 14.4223 17.2289 15.0793 17.0759 15.5083C16.7999 16.3063 17.0141 16.6651 17.4221 16.7485C17.6057 16.7881 17.8685 16.7005 18.0617 16.6165C18.3065 16.5385 18.5957 16.4023 18.8717 16.2007C19.3409 15.8545 19.7921 15.3727 19.7657 14.7199C19.7525 14.4223 19.6739 14.1283 19.5641 13.8439C20.1557 13.5979 20.9177 13.4623 21.8903 13.5763C23.9759 13.8223 24.3881 15.1231 24.3089 15.6703C24.2303 16.2181 23.7923 16.5163 23.6477 16.6081C23.5031 16.7005 23.4545 16.7311 23.4677 16.7965C23.4857 16.8925 23.5553 16.8889 23.6777 16.8709C23.8487 16.8409 24.7733 16.4287 24.8129 15.4207C24.8789 14.1331 23.6519 12.7267 21.4829 12.7399ZM5.39627 18.1639C4.70386 18.9169 3.74026 19.2019 3.32387 18.9607C2.87687 18.7027 3.05206 17.5897 3.90226 16.7923C4.41886 16.3063 5.08486 15.8545 5.52766 15.5785C5.62846 15.5173 5.77727 15.4297 5.95667 15.3205C5.98726 15.3025 6.00466 15.2941 6.00466 15.2941L6.11027 15.2281C6.42107 16.3675 6.12346 17.3707 5.39627 18.1639ZM10.4345 14.7379C10.1933 15.3247 9.68986 16.8271 9.38266 16.7443C9.11987 16.6741 8.95786 15.5347 9.33046 14.4091C9.51887 13.8439 9.91726 13.1689 10.1495 12.9061C10.5263 12.4855 10.9427 12.3451 11.0435 12.5161C11.1707 12.7399 10.5833 14.3701 10.4345 14.7379ZM14.5925 16.7263C14.4917 16.7791 14.3945 16.8139 14.3513 16.7881C14.3207 16.7701 14.3951 16.7005 14.3951 16.7005C14.3951 16.7005 14.9165 16.1395 15.1223 15.8851C15.2405 15.7363 15.3803 15.5611 15.5297 15.3637V15.4207C15.5297 16.0909 14.8823 16.5427 14.5925 16.7263ZM17.7989 15.9943C17.7245 15.9421 17.7377 15.7669 17.9873 15.2191C18.0839 15.0049 18.3113 14.6455 18.7013 14.2993C18.7457 14.4397 18.7763 14.5753 18.7715 14.7025C18.7673 15.5485 18.1625 15.8629 17.7989 15.9943Z" fill="#C16D97"/>
</g>
</g>
</g>
</g>
<defs>
<clipPath id="clip0_601_5702">
<rect width="24" height="24" fill="white" transform="translate(0.829987)"/>
</clipPath>
<clipPath id="clip1_601_5702">
<rect width="24" height="24" fill="white" transform="translate(0.829987)"/>
</clipPath>
<clipPath id="clip2_601_5702">
<rect width="24" height="24" fill="white" transform="translate(0.829987)"/>
</clipPath>
</defs>
</svg>
