<svg width="25" height="24" viewBox="0 0 25 24" fill="none" xmlns="http://www.w3.org/2000/svg">
<g clip-path="url(#clip0_601_5438)">
<g clip-path="url(#clip1_601_5438)">
<g clip-path="url(#clip2_601_5438)">
<mask id="mask0_601_5438" style="mask-type:luminance" maskUnits="userSpaceOnUse" x="0" y="0" width="25" height="24">
<path d="M24.15 0H0.150024V24H24.15V0Z" fill="white"/>
</mask>
<g mask="url(#mask0_601_5438)">
<path d="M5.46375 0H18.7057C19.3495 0 19.9753 0.1032 20.5825 0.3192C21.4696 0.643573 22.2532 1.20015 22.8517 1.9308C23.4603 2.66722 23.8571 3.55533 23.9995 4.5C24.0553 4.8468 24.0643 5.1942 24.0643 5.5398V18.5058C24.0643 18.9192 24.0457 19.341 23.9617 19.7442C23.7731 20.6761 23.338 21.5403 22.7017 22.2468C22.0722 22.9497 21.2658 23.4712 20.3665 23.757C19.8247 23.9222 19.2608 24.0041 18.6943 24C18.4423 24 5.42475 24 5.22855 23.9898C4.26796 23.942 3.33832 23.6345 2.53875 23.1C1.75994 22.5702 1.13288 21.8464 0.719555 21C0.366501 20.2727 0.184265 19.4744 0.186756 18.666V5.334C0.166813 4.54013 0.336508 3.75295 0.681755 3.0378C1.08542 2.1874 1.70761 1.4594 2.48475 0.9282C3.27703 0.383709 4.20435 0.0687191 5.16435 0.018C5.25735 0 5.35935 0 5.46375 0Z" fill="url(#paint0_linear_601_5438)"/>
<path d="M20.3208 19.6308C20.236 19.4969 20.1426 19.3686 20.0412 19.2468C19.8081 18.9676 19.5378 18.7217 19.2378 18.516C18.8657 18.2585 18.4296 18.109 17.9778 18.084C17.6591 18.0679 17.3406 18.119 17.043 18.234C16.743 18.345 16.4532 18.48 16.1748 18.6372C15.849 18.8112 15.5154 18.9714 15.1752 19.116C14.7648 19.284 14.3352 19.416 13.896 19.509C13.3476 19.6086 12.7908 19.653 12.234 19.641C11.235 19.6223 10.2429 19.471 9.28382 19.191C8.44571 18.9395 7.64016 18.59 6.88382 18.15C6.22444 17.7676 5.6018 17.3251 5.02382 16.8282C4.55238 16.4183 4.10974 15.9765 3.69902 15.5058C3.41606 15.1744 3.14818 14.8305 2.89622 14.475C2.79415 14.3341 2.70059 14.1872 2.61602 14.0352L0.150024 11.3622V5.316C0.150024 2.3802 2.51282 0 5.43602 0H10.152L13.644 3.5628C21.5262 8.943 18.9762 14.8782 18.9762 14.8782C18.9762 14.8782 21.2178 17.409 20.3208 19.6308Z" fill="url(#paint1_linear_601_5438)"/>
<path d="M13.663 3.56299C21.5446 8.94319 18.9946 14.8784 18.9946 14.8784C18.9946 14.8784 21.2356 17.4182 20.3308 19.6412C20.3308 19.6412 19.4056 18.0842 17.8558 18.0842C16.3618 18.0842 15.484 19.6412 12.4756 19.6412C5.78084 19.6412 2.61584 14.0252 2.61584 14.0252C8.64764 18.0092 12.766 15.1874 12.766 15.1874C10.0498 13.604 4.26764 6.02839 4.26764 6.02839C9.30164 10.331 11.4778 11.4662 11.4778 11.4662C10.18 10.3874 6.53804 5.11939 6.53804 5.11939C9.44984 8.08039 15.2398 12.2162 15.2398 12.2162C16.8838 7.64119 13.6618 3.56299 13.6618 3.56299H13.663Z" fill="white"/>
</g>
</g>
</g>
</g>
<defs>
<linearGradient id="paint0_linear_601_5438" x1="14.3701" y1="-0.8562" x2="9.80956" y2="24.8514" gradientUnits="userSpaceOnUse">
<stop stop-color="#FAAE42"/>
<stop offset="1" stop-color="#EF3E31"/>
</linearGradient>
<linearGradient id="paint1_linear_601_5438" x1="12.3474" y1="0.3876" x2="9.27122" y2="19.2468" gradientUnits="userSpaceOnUse">
<stop stop-color="#E39F3A"/>
<stop offset="1" stop-color="#D33929"/>
</linearGradient>
<clipPath id="clip0_601_5438">
<rect width="24" height="24" fill="white" transform="translate(0.150024)"/>
</clipPath>
<clipPath id="clip1_601_5438">
<rect width="24" height="24" fill="white" transform="translate(0.150024)"/>
</clipPath>
<clipPath id="clip2_601_5438">
<rect width="24" height="24" fill="white" transform="translate(0.150024)"/>
</clipPath>
</defs>
</svg>
