<svg width="25" height="24" viewBox="0 0 25 24" fill="none" xmlns="http://www.w3.org/2000/svg">
<g clip-path="url(#clip0_601_5663)">
<g clip-path="url(#clip1_601_5663)">
<g clip-path="url(#clip2_601_5663)">
<path d="M17.0835 3.08982C16.6437 3.26408 15.9107 3.75202 15.0415 4.45953L15.8426 5.46678C16.4028 4.93005 16.9788 4.44908 17.5547 4.03782C17.5966 4.00645 17.6228 3.98902 17.6228 3.98902C17.6019 4.00645 17.5757 4.02039 17.5547 4.03782C17.3663 4.17374 16.8008 4.61289 15.9473 5.48769C16.7694 5.45981 18.0312 5.34828 19.0627 5.22978C19.3716 4.08661 18.7642 3.56382 18.7642 3.56382C18.7642 3.56382 17.9893 2.73084 17.0835 3.08982Z" fill="url(#paint0_linear_601_5663)"/>
<path d="M14.3854 11.5449C14.2809 11.5589 14.1763 11.5693 14.0718 11.5798C14.1241 11.5763 14.1816 11.5693 14.2338 11.5623C14.2861 11.5589 14.3384 11.5519 14.3854 11.5449Z" fill="#1B5BF7"/>
<path opacity="0.35" d="M14.3854 11.5449C14.2809 11.5589 14.1763 11.5693 14.0718 11.5798C14.1241 11.5763 14.1816 11.5693 14.2338 11.5623C14.2861 11.5589 14.3384 11.5519 14.3854 11.5449Z" fill="#1B5BF7"/>
<path d="M14.6587 10.6636C14.6535 10.6636 14.6535 10.6636 14.6587 10.6636C14.6744 10.6636 14.6901 10.6601 14.7058 10.6601C14.7737 10.6532 14.8417 10.6462 14.9044 10.6357C14.826 10.6462 14.7423 10.6532 14.6587 10.6636Z" fill="#1B5BF7"/>
<path opacity="0.35" d="M14.6587 10.6636C14.6535 10.6636 14.6535 10.6636 14.6587 10.6636C14.6744 10.6636 14.6901 10.6601 14.7058 10.6601C14.7737 10.6532 14.8417 10.6462 14.9044 10.6357C14.826 10.6462 14.7423 10.6532 14.6587 10.6636Z" fill="#1B5BF7"/>
<path d="M13.4741 8.06673C13.7202 7.76351 13.9663 7.46727 14.2123 7.17799C14.4689 6.87825 14.7307 6.58898 14.9977 6.30667C15.0134 6.28924 15.0292 6.27182 15.0449 6.25788C15.3067 5.98254 15.5685 5.71766 15.8355 5.46323L15.0344 4.45947C14.9768 4.50827 14.914 4.55706 14.8511 4.60934C14.6207 4.80103 14.3799 5.00666 14.1338 5.22623C13.8563 5.47369 13.5736 5.73508 13.2804 6.01042C13.0133 6.26485 12.7411 6.53321 12.4688 6.80855C12.2384 7.04555 12.008 7.28603 11.7776 7.53349C11.7672 7.54394 11.7619 7.55091 11.7515 7.56137L12.7934 8.93108C13.0238 8.6418 13.2489 8.35253 13.4741 8.06673Z" fill="url(#paint1_linear_601_5663)"/>
<path d="M8.72691 15.7938C8.59077 16.0448 8.4494 16.3027 8.31327 16.5675C8.31327 16.571 8.30803 16.5745 8.30803 16.578C8.28709 16.6163 8.26614 16.6512 8.25044 16.6895C8.15619 16.8673 8.07765 17.0276 7.88916 17.3901C8.19808 17.4842 8.44417 17.7281 8.67455 18.007C8.64837 17.7177 8.47035 17.4458 8.13001 17.2367C9.64319 17.282 10.9522 17.0276 11.6224 16.2887C11.68 16.2225 11.7376 16.1528 11.7899 16.0796C11.481 16.3375 11.104 16.449 10.3867 16.4212C11.4391 16.1075 11.9679 15.8043 12.4339 15.3059C12.5439 15.1874 12.6538 15.0584 12.7638 14.9155C11.8423 15.5464 10.7742 15.7241 9.64843 15.5882L8.80544 15.6509C8.77926 15.6997 8.75309 15.745 8.72691 15.7938Z" fill="url(#paint2_linear_601_5663)"/>
<path d="M9.11893 14.536C9.30218 14.2223 9.49068 13.9051 9.67917 13.5845C9.86243 13.2778 10.0509 12.9711 10.2447 12.6609C10.4384 12.3507 10.6373 12.0405 10.8363 11.7303C11.0405 11.4132 11.2499 11.0995 11.4646 10.7858C11.6741 10.4756 11.894 10.1654 12.1086 9.85874C12.1872 9.74721 12.2657 9.63917 12.3495 9.52764C12.4856 9.33944 12.627 9.15123 12.7684 8.96303C12.7736 8.95257 12.7841 8.94211 12.7893 8.93166L11.7578 7.56543C11.7421 7.58286 11.7264 7.60377 11.7055 7.62119C11.4646 7.88608 11.2185 8.15444 10.9829 8.42978C10.7421 8.7086 10.5064 8.99091 10.2761 9.28019C10.0823 9.52415 9.89384 9.76812 9.70535 10.0156C9.6687 10.0644 9.63205 10.1167 9.5954 10.1654C9.37025 10.4756 9.16081 10.7789 8.97756 11.0681C8.76812 11.3957 8.58486 11.7094 8.42255 12.0057C8.31783 12.2008 8.21835 12.3891 8.12934 12.5703C8.05603 12.7236 7.98797 12.8805 7.9199 13.0338C7.76282 13.3963 7.63192 13.7588 7.52197 14.1212L8.56915 15.4979C8.70529 15.2505 8.85189 15.003 8.99326 14.7486C9.03515 14.6789 9.07704 14.6092 9.11893 14.536Z" fill="url(#paint3_linear_601_5663)"/>
<path d="M7.50607 14.1699C7.37517 14.609 7.28092 15.0482 7.2338 15.4873C7.2338 15.5013 7.22856 15.5187 7.22856 15.5326C6.90393 15.1841 6.0243 14.8425 6.02954 14.846C6.65785 15.4525 7.13431 16.0519 7.20238 16.6409C6.86728 16.6863 6.40652 16.62 5.87769 16.4911C6.4327 16.8292 6.84634 16.9233 7.00865 16.9477C6.50077 16.9686 5.97194 17.2021 5.43788 17.4704C6.21803 17.2578 6.85158 17.1742 7.30186 17.2439C6.58454 18.5927 5.86722 20.0844 5.1499 21.6667C5.36981 21.6249 5.50071 21.5238 5.57401 21.3914C5.69967 21.1056 6.55313 19.2235 7.88305 16.7525C7.9197 16.6828 7.96159 16.6131 7.99824 16.5399C8.00871 16.519 8.01919 16.5015 8.02966 16.4806C8.17103 16.2227 8.31763 15.9578 8.46948 15.686C8.50613 15.6232 8.53754 15.564 8.57419 15.5013V15.4978L7.52701 14.1211C7.51654 14.1385 7.5113 14.1525 7.50607 14.1699Z" fill="url(#paint4_linear_601_5663)"/>
<path d="M12.9625 9.04998C12.9311 9.09181 12.9049 9.13014 12.8735 9.17197C12.7845 9.29744 12.6902 9.42291 12.6012 9.55186C12.5017 9.69127 12.4023 9.83417 12.2975 9.98055C12.2452 10.0537 12.1928 10.1269 12.1405 10.2036C11.9834 10.4302 11.8263 10.6637 11.664 10.9042C11.465 11.2004 11.2661 11.5071 11.0619 11.8277C10.8681 12.131 10.6692 12.4481 10.4702 12.7723C10.2817 13.0824 10.088 13.3996 9.89426 13.7307C9.72147 14.0235 9.54868 14.3267 9.37066 14.6369C9.36019 14.6508 9.35496 14.6682 9.34448 14.6822C9.1717 14.9889 8.99368 15.3061 8.81566 15.6302C8.81042 15.6372 8.80518 15.6441 8.80518 15.6511L9.64817 15.5884C9.63246 15.5849 9.61675 15.5849 9.59581 15.5814C10.6063 15.4977 11.9467 14.9959 12.8107 14.3755C13.2086 14.0897 13.5699 13.7551 13.905 13.3613C14.1563 13.0685 14.3867 12.7444 14.6118 12.3819C14.8055 12.0682 14.994 11.7267 15.1721 11.3572C14.9417 11.4374 14.6746 11.4966 14.3814 11.5385C14.3291 11.5454 14.2767 11.5524 14.2244 11.5594C14.172 11.5664 14.1196 11.5698 14.062 11.5768C15.0045 11.3363 15.5962 10.8728 16.0255 10.3012C15.7794 10.4127 15.3763 10.5591 14.8946 10.6323C14.8317 10.6428 14.7637 10.6497 14.6956 10.6567C14.6799 10.6567 14.6642 10.6602 14.6432 10.6602C14.9679 10.5696 15.2454 10.4685 15.4862 10.3465C15.5386 10.3221 15.5857 10.2942 15.6328 10.2663C15.7061 10.2245 15.7742 10.1792 15.8423 10.1339C15.8841 10.1025 15.926 10.0747 15.9679 10.0433C16.0622 9.97009 16.1512 9.88993 16.2297 9.8028C16.2559 9.77492 16.2821 9.75052 16.303 9.72264C16.3344 9.68082 16.3658 9.64248 16.392 9.60414C16.5229 9.42988 16.6276 9.27304 16.7114 9.13363C16.7533 9.06392 16.79 9.00119 16.8214 8.94194C16.8318 8.91754 16.8475 8.89662 16.858 8.87222C16.8894 8.806 16.9209 8.74676 16.9418 8.69448C16.9732 8.61781 16.9942 8.55507 17.0046 8.50977C16.9732 8.52719 16.9366 8.54462 16.8947 8.55856C16.6119 8.67009 16.125 8.77464 15.7323 8.82343C15.7271 8.82343 15.7218 8.82344 15.7166 8.82693C15.6799 8.83041 15.6381 8.8339 15.5962 8.84087C15.6014 8.83738 15.6119 8.83738 15.6171 8.8339L12.9677 9.02559C12.973 9.03953 12.9677 9.0465 12.9625 9.04998Z" fill="url(#paint5_linear_601_5663)"/>
<path d="M15.9468 5.48782C15.7112 5.72831 15.4546 6.00364 15.1771 6.31035C15.1614 6.32778 15.1457 6.34172 15.1352 6.35914C14.8944 6.62751 14.643 6.92027 14.376 7.2444C14.1456 7.52323 13.9048 7.81947 13.6535 8.1436C13.4336 8.42243 13.2136 8.71868 12.978 9.03235L15.6274 8.84066C16.3971 8.60366 16.7427 8.39106 17.0778 8.08087C17.1668 7.99722 17.2558 7.90661 17.3448 7.8125C17.6171 7.5302 17.8841 7.22001 18.1197 6.90982C18.3501 6.61008 18.5543 6.31383 18.7061 6.04895C18.8056 5.87817 18.8841 5.72134 18.9417 5.58193C18.9889 5.45994 19.0255 5.34493 19.0569 5.2334C18.0307 5.34841 16.7688 5.45994 15.9468 5.48782Z" fill="url(#paint6_linear_601_5663)"/>
<path d="M14.2338 11.5659C14.1816 11.5729 14.1293 11.5764 14.0718 11.5833C14.1241 11.5764 14.1763 11.5694 14.2338 11.5659Z" fill="#1B5BF7"/>
<path opacity="0.35" d="M14.2338 11.5659C14.1816 11.5729 14.1293 11.5764 14.0718 11.5833C14.1241 11.5764 14.1763 11.5694 14.2338 11.5659Z" fill="#1B5BF7"/>
<path d="M14.2338 11.5659C14.1816 11.5729 14.1293 11.5764 14.0718 11.5833C14.1241 11.5764 14.1763 11.5694 14.2338 11.5659Z" fill="url(#paint7_linear_601_5663)"/>
<path d="M14.6528 10.6632C14.6685 10.6632 14.6842 10.6597 14.7051 10.6597C14.6894 10.6597 14.6737 10.6632 14.6528 10.6632Z" fill="#1B5BF7"/>
<path opacity="0.35" d="M14.6528 10.6632C14.6685 10.6632 14.6842 10.6597 14.7051 10.6597C14.6894 10.6597 14.6737 10.6632 14.6528 10.6632Z" fill="#1B5BF7"/>
<path d="M14.6528 10.6632C14.6685 10.6632 14.6842 10.6597 14.7051 10.6597C14.6894 10.6597 14.6737 10.6632 14.6528 10.6632Z" fill="url(#paint8_linear_601_5663)"/>
<path d="M24.1499 0H0.149902V24H24.1499V0Z" fill="#C4C4C4" fill-opacity="0.01"/>
</g>
</g>
</g>
<defs>
<linearGradient id="paint0_linear_601_5663" x1="15.725" y1="4.58113" x2="21.1104" y2="2.33171" gradientUnits="userSpaceOnUse">
<stop stop-color="#F69923"/>
<stop offset="0.3123" stop-color="#F79A23"/>
<stop offset="0.8383" stop-color="#E97826"/>
</linearGradient>
<linearGradient id="paint1_linear_601_5663" x1="2.87212" y1="22.121" x2="8.74763" y2="3.19132" gradientUnits="userSpaceOnUse">
<stop offset="0.3233" stop-color="#9E2064"/>
<stop offset="0.6302" stop-color="#C92037"/>
<stop offset="0.7514" stop-color="#CD2335"/>
<stop offset="1" stop-color="#E97826"/>
</linearGradient>
<linearGradient id="paint2_linear_601_5663" x1="6.88407" y1="20.8607" x2="10.3853" y2="9.58048" gradientUnits="userSpaceOnUse">
<stop stop-color="#282662"/>
<stop offset="0.0954839" stop-color="#662E8D"/>
<stop offset="0.7882" stop-color="#9F2064"/>
<stop offset="0.9487" stop-color="#CD2032"/>
</linearGradient>
<linearGradient id="paint3_linear_601_5663" x1="3.30534" y1="21.0901" x2="9.18086" y2="2.16037" gradientUnits="userSpaceOnUse">
<stop offset="0.3233" stop-color="#9E2064"/>
<stop offset="0.6302" stop-color="#C92037"/>
<stop offset="0.7514" stop-color="#CD2335"/>
<stop offset="1" stop-color="#E97826"/>
</linearGradient>
<linearGradient id="paint4_linear_601_5663" x1="4.52255" y1="19.9542" x2="7.6103" y2="10.0061" gradientUnits="userSpaceOnUse">
<stop stop-color="#282662"/>
<stop offset="0.0954839" stop-color="#662E8D"/>
<stop offset="0.7882" stop-color="#9F2064"/>
<stop offset="0.9487" stop-color="#CD2032"/>
</linearGradient>
<linearGradient id="paint5_linear_601_5663" x1="5.95625" y1="21.9126" x2="11.8318" y2="2.98286" gradientUnits="userSpaceOnUse">
<stop offset="0.3233" stop-color="#9E2064"/>
<stop offset="0.6302" stop-color="#C92037"/>
<stop offset="0.7514" stop-color="#CD2335"/>
<stop offset="1" stop-color="#E97826"/>
</linearGradient>
<linearGradient id="paint6_linear_601_5663" x1="5.08372" y1="22.929" x2="10.9592" y2="3.99928" gradientUnits="userSpaceOnUse">
<stop offset="0.3233" stop-color="#9E2064"/>
<stop offset="0.6302" stop-color="#C92037"/>
<stop offset="0.7514" stop-color="#CD2335"/>
<stop offset="1" stop-color="#E97826"/>
</linearGradient>
<linearGradient id="paint7_linear_601_5663" x1="6.75515" y1="22.1568" x2="12.6381" y2="3.23237" gradientUnits="userSpaceOnUse">
<stop offset="0.3233" stop-color="#9E2064"/>
<stop offset="0.6302" stop-color="#C92037"/>
<stop offset="0.7514" stop-color="#CD2335"/>
<stop offset="1" stop-color="#E97826"/>
</linearGradient>
<linearGradient id="paint8_linear_601_5663" x1="6.66601" y1="22.1276" x2="12.5481" y2="3.20461" gradientUnits="userSpaceOnUse">
<stop offset="0.3233" stop-color="#9E2064"/>
<stop offset="0.6302" stop-color="#C92037"/>
<stop offset="0.7514" stop-color="#CD2335"/>
<stop offset="1" stop-color="#E97826"/>
</linearGradient>
<clipPath id="clip0_601_5663">
<rect width="24" height="24" fill="white" transform="translate(0.149902)"/>
</clipPath>
<clipPath id="clip1_601_5663">
<rect width="24" height="24" fill="white" transform="translate(0.149902)"/>
</clipPath>
<clipPath id="clip2_601_5663">
<rect width="24" height="24" fill="white" transform="translate(0.149902)"/>
</clipPath>
</defs>
</svg>
