<svg width="25" height="24" viewBox="0 0 25 24" fill="none" xmlns="http://www.w3.org/2000/svg">
<g clip-path="url(#clip0_601_5586)">
<g clip-path="url(#clip1_601_5586)">
<g clip-path="url(#clip2_601_5586)">
<path d="M11.1506 0.501135L0.661637 10.9815C0.0977323 11.5449 0.0977323 12.455 0.661637 13.0184L11.1506 23.4988C11.7145 24.0622 12.6253 24.0622 13.1892 23.4988L17.5871 19.1045C18.0921 18.5999 18.0921 17.7818 17.5871 17.2772C17.0821 16.7726 16.2633 16.7726 15.7583 17.2772L12.4243 20.6084C12.2839 20.7487 12.0709 20.7487 11.9305 20.6084L3.55435 12.2391C3.414 12.0989 3.414 11.886 3.55435 11.7458L11.9305 3.3765C12.0709 3.23626 12.2839 3.23626 12.4243 3.3765L15.7583 6.70775C16.2633 7.21235 17.0821 7.21235 17.5871 6.70775C18.0921 6.20315 18.0921 5.38503 17.5871 4.88042L13.1897 0.486641C12.6235 -0.0646068 11.7124 -0.0601441 11.1506 0.501135Z" fill="url(#paint0_linear_601_5586)"/>
<path d="M11.1506 0.501135L0.661637 10.9815C0.0977323 11.5449 0.0977323 12.455 0.661637 13.0184L11.1506 23.4988C11.7145 24.0622 12.6253 24.0622 13.1892 23.4988L17.5871 19.1045C18.0921 18.5999 18.0921 17.7818 17.5871 17.2772C17.0821 16.7726 16.2633 16.7726 15.7583 17.2772L12.4243 20.6084C12.2839 20.7487 12.0709 20.7487 11.9305 20.6084L3.55435 12.2391C3.414 12.0989 3.414 11.886 3.55435 11.7458L11.9305 3.3765C12.28 3.07521 12.8502 2.46497 13.6876 2.32225C14.3099 2.21617 14.9903 2.44963 15.7287 3.02262C15.235 2.52936 14.3887 1.68404 13.1897 0.486641C12.6235 -0.0646068 11.7124 -0.0601441 11.1506 0.501135Z" fill="url(#paint1_linear_601_5586)"/>
<path d="M18.6023 16.3026C19.1074 16.8072 19.9261 16.8072 20.4312 16.3026L23.6753 13.0612C24.2392 12.4977 24.2392 11.5877 23.6753 11.0243L20.403 7.7662C19.8967 7.2622 19.0777 7.26292 18.5724 7.76782C18.0673 8.27243 18.0673 9.09055 18.5724 9.59515L20.7825 11.8035C20.9229 11.9438 20.9229 12.1566 20.7825 12.2968L18.6023 14.4752C18.0973 14.9798 18.0973 15.798 18.6023 16.3026Z" fill="url(#paint2_linear_601_5586)"/>
<path d="M12.2223 14.882C13.7864 14.882 15.0544 13.6151 15.0544 12.0524C15.0544 10.4896 13.7864 9.22266 12.2223 9.22266C10.6583 9.22266 9.39032 10.4896 9.39032 12.0524C9.39032 13.6151 10.6583 14.882 12.2223 14.882Z" fill="url(#paint3_linear_601_5586)"/>
</g>
</g>
</g>
<defs>
<linearGradient id="paint0_linear_601_5586" x1="1101.14" y1="0.0767191" x2="2097.89" y2="608.781" gradientUnits="userSpaceOnUse">
<stop stop-color="#4285EB"/>
<stop offset="1" stop-color="#2EC7FF"/>
</linearGradient>
<linearGradient id="paint1_linear_601_5586" x1="1234.83" y1="0.0766466" x2="742.524" y2="2544.45" gradientUnits="userSpaceOnUse">
<stop stop-color="#29CDFF"/>
<stop offset="0.378601" stop-color="#148EFF"/>
<stop offset="1" stop-color="#0A60FF"/>
</linearGradient>
<linearGradient id="paint2_linear_601_5586" x1="429.689" y1="-113.174" x2="-210.877" y2="888.62" gradientUnits="userSpaceOnUse">
<stop stop-color="#FA816E"/>
<stop offset="0.414726" stop-color="#F74A5C"/>
<stop offset="1" stop-color="#F51D2C"/>
</linearGradient>
<linearGradient id="paint3_linear_601_5586" x1="395.27" y1="-192.764" x2="182.135" y2="659.81" gradientUnits="userSpaceOnUse">
<stop stop-color="#FA8E7D"/>
<stop offset="0.512635" stop-color="#F74A5C"/>
<stop offset="1" stop-color="#F51D2C"/>
</linearGradient>
<clipPath id="clip0_601_5586">
<rect width="24" height="24" fill="white" transform="translate(0.160034)"/>
</clipPath>
<clipPath id="clip1_601_5586">
<rect width="24" height="24" fill="white" transform="translate(0.160034)"/>
</clipPath>
<clipPath id="clip2_601_5586">
<rect width="24" height="24" fill="white" transform="translate(0.160034)"/>
</clipPath>
</defs>
</svg>
