<svg width="25" height="24" viewBox="0 0 25 24" fill="none" xmlns="http://www.w3.org/2000/svg">
<g clip-path="url(#clip0_601_5345)">
<g clip-path="url(#clip1_601_5345)">
<path d="M9.02513 18.5368C9.02513 18.5368 8.09693 19.069 9.68513 19.249C11.6093 19.465 12.5933 19.4338 14.7143 19.039C14.7143 19.039 15.2711 19.3828 16.0499 19.6816C11.2961 21.6898 5.29013 19.5646 9.02513 18.5368ZM8.44433 15.9166C8.44433 15.9166 7.40333 16.6756 8.99213 16.837C11.0483 17.047 12.6719 17.0638 15.4811 16.531C15.4811 16.531 15.8693 16.9186 16.4813 17.131C10.7321 18.7876 4.33133 17.2624 8.44433 15.9166Z" fill="#5382A1"/>
<path d="M13.3401 11.47C14.5119 12.7996 13.0329 13.996 13.0329 13.996C13.0329 13.996 16.0071 12.4828 14.6409 10.588C13.3659 8.81984 12.3867 7.94204 17.6841 4.91504C17.6841 4.91504 9.36924 6.96044 13.3401 11.47Z" fill="#E76F00"/>
<path d="M19.6284 20.4751C19.6284 20.4751 20.3154 21.0331 18.8724 21.4651C16.128 22.2841 7.45141 22.5313 5.04121 21.4969C4.17421 21.1261 5.79901 20.6101 6.31141 20.5021C6.84301 20.3881 7.14841 20.4091 7.14841 20.4091C6.18421 19.7401 0.919209 21.7231 4.47421 22.2913C14.166 23.8411 22.143 21.5929 19.6284 20.4751ZM9.47101 13.2013C9.47101 13.2013 5.05741 14.2339 7.90801 14.6101C9.11101 14.7679 11.511 14.7331 13.746 14.5483C15.5724 14.3959 17.406 14.0731 17.406 14.0731C17.406 14.0731 16.7634 14.3449 16.296 14.6593C11.8152 15.8209 3.15601 15.2803 5.64901 14.0923C7.75741 13.0873 9.47101 13.2013 9.47101 13.2013ZM17.388 17.5633C21.945 15.2299 19.8384 12.9871 18.3684 13.2889C18.0084 13.3633 17.847 13.4269 17.847 13.4269C17.847 13.4269 17.9802 13.2211 18.2364 13.1311C21.1452 12.1231 23.382 16.1041 17.2962 17.6809C17.2962 17.6809 17.367 17.6191 17.388 17.5633Z" fill="#5382A1"/>
<path d="M14.6408 0.0258789C14.6408 0.0258789 17.165 2.51408 12.248 6.33908C8.306 9.40928 11.3486 11.1595 12.2468 13.1575C9.9446 11.1115 8.2568 9.30908 9.3896 7.63208C11.0516 5.17088 15.6596 3.97808 14.6408 0.0258789Z" fill="#E76F00"/>
<path d="M9.91885 23.8873C14.2916 24.1633 21.008 23.7343 21.167 21.6943C21.167 21.6943 20.861 22.4671 17.552 23.0809C13.82 23.7739 9.21565 23.6929 6.48505 23.2489C6.48505 23.2489 7.04485 23.7049 9.91885 23.8873Z" fill="#5382A1"/>
</g>
</g>
<defs>
<clipPath id="clip0_601_5345">
<rect width="24" height="24" fill="white" transform="translate(0.820007)"/>
</clipPath>
<clipPath id="clip1_601_5345">
<rect width="24" height="24" fill="white" transform="translate(0.820007)"/>
</clipPath>
</defs>
</svg>
