<svg width="25" height="24" viewBox="0 0 25 24" fill="none" xmlns="http://www.w3.org/2000/svg">
<g clip-path="url(#clip0_601_5374)">
<g clip-path="url(#clip1_601_5374)">
<g clip-path="url(#clip2_601_5374)">
<mask id="mask0_601_5374" style="mask-type:luminance" maskUnits="userSpaceOnUse" x="0" y="0" width="25" height="24">
<path d="M24.8199 0H0.819946V24H24.8199V0Z" fill="white"/>
</mask>
<g mask="url(#mask0_601_5374)">
<path d="M12.8199 24.0002V19.3923C14.2696 19.398 15.6884 18.9739 16.8971 18.1735C18.1058 17.3732 19.0501 16.2324 19.6107 14.8955C20.1713 13.5586 20.323 12.0855 20.0466 10.6624C19.7702 9.23936 19.0781 7.93014 18.0579 6.90025C17.3408 6.188 16.4766 5.64122 15.5259 5.29825C10.3419 3.43825 5.46395 7.21825 5.46395 12.1023H0.819946C0.819946 4.32025 8.40995 -1.75175 16.6359 0.798253C20.2359 1.90825 23.0919 4.74625 24.2139 8.31025C24.8061 10.1089 24.9625 12.0225 24.6702 13.8935C24.3779 15.7644 23.6452 17.5391 22.5325 19.0713C21.4198 20.6036 19.9589 21.8495 18.2703 22.7064C16.5816 23.5634 14.7135 24.0068 12.8199 24.0002Z" fill="#0069FF"/>
<path d="M12.8257 19.4045H8.19379V14.8145H12.8257V19.4045ZM8.19379 22.9325H4.63579V19.4045H8.19379V22.9325ZM4.63579 19.4045H1.65979V16.4465H4.64179V19.4045H4.63579Z" fill="#0069FF"/>
</g>
</g>
</g>
</g>
<defs>
<clipPath id="clip0_601_5374">
<rect width="24" height="24" fill="white" transform="translate(0.819946)"/>
</clipPath>
<clipPath id="clip1_601_5374">
<rect width="24" height="24" fill="white" transform="translate(0.819946)"/>
</clipPath>
<clipPath id="clip2_601_5374">
<rect width="24" height="24" fill="white" transform="translate(0.819946)"/>
</clipPath>
</defs>
</svg>
