<svg width="25" height="24" viewBox="0 0 25 24" fill="none" xmlns="http://www.w3.org/2000/svg">
<g clip-path="url(#clip0_601_5734)">
<g clip-path="url(#clip1_601_5734)">
<g clip-path="url(#clip2_601_5734)">
<mask id="mask0_601_5734" style="mask-type:luminance" maskUnits="userSpaceOnUse" x="0" y="0" width="25" height="24">
<path d="M24.83 0H0.830017V24H24.83V0Z" fill="white"/>
</mask>
<g mask="url(#mask0_601_5734)">
<path d="M1.83002 1.02979H23.8301V22.4298H1.83002V1.02979Z" fill="#210B00"/>
<path d="M1.83001 1.03026H23.8301V22.4303H1.83001V1.03026ZM0.830017 23.4303H24.83V0.0302734H0.830017V23.4303ZM16.55 8.37029C16.55 8.29031 16.58 8.25027 16.67 8.25027H18.24C18.32 8.25027 18.36 8.28027 18.36 8.37029V16.2603C18.36 16.3403 18.34 16.3803 18.24 16.3803H16.69C16.59 16.3803 16.56 16.3303 16.56 16.2503V8.37029H16.55ZM16.44 6.10027C16.44 5.46028 16.89 5.08029 17.4601 5.08029C18.0701 5.08029 18.48 5.49027 18.48 6.10027C18.48 6.76027 18.0501 7.12026 17.4401 7.12026C16.86 7.1203 16.44 6.76027 16.44 6.10027ZM11.94 11.6603C11.6601 10.5503 11.0001 8.13029 10.75 6.96028H10.73C10.52 8.13029 9.99005 10.1103 9.57007 11.6603H11.94ZM9.16004 13.2803L8.37003 16.2803C8.35003 16.3603 8.32003 16.3803 8.22005 16.3803H6.75004C6.65005 16.3803 6.63002 16.3503 6.65005 16.2303L9.49004 6.29025C9.54003 6.11027 9.57003 5.95025 9.59003 5.46028C9.59003 5.39029 9.62002 5.36029 9.67002 5.36029H11.77C11.84 5.36029 11.87 5.38029 11.89 5.46028L15.07 16.2503C15.09 16.3302 15.07 16.3803 14.99 16.3803H13.33C13.25 16.3803 13.2 16.3603 13.18 16.2903L12.36 13.2803H9.16004Z" fill="#FF7F18"/>
</g>
</g>
</g>
</g>
<defs>
<clipPath id="clip0_601_5734">
<rect width="24" height="24" fill="white" transform="translate(0.830017)"/>
</clipPath>
<clipPath id="clip1_601_5734">
<rect width="24" height="24" fill="white" transform="translate(0.830017)"/>
</clipPath>
<clipPath id="clip2_601_5734">
<rect width="24" height="24" fill="white" transform="translate(0.830017)"/>
</clipPath>
</defs>
</svg>
