<svg width="25" height="24" viewBox="0 0 25 24" fill="none" xmlns="http://www.w3.org/2000/svg">
<g clip-path="url(#clip0_601_5338)">
<g clip-path="url(#clip1_601_5338)">
<g clip-path="url(#clip2_601_5338)">
<path d="M1.83364 19.1241C1.0084 19.1241 0.160095 19.786 0.160095 20.9426C0.160095 22.0014 0.905941 22.7491 1.83364 22.7491C2.59979 22.7491 2.94133 22.2349 2.94133 22.2349V22.4592C2.94133 22.5644 3.04102 22.6826 3.16472 22.6826H3.71856V19.2026H2.94133V19.6457C2.94133 19.6457 2.59702 19.1241 1.83364 19.1241ZM1.9721 19.8358C2.65148 19.8358 3.00779 20.4331 3.00779 20.9435C3.00779 21.5103 2.58502 22.0494 1.97395 22.0494C1.46256 22.0494 0.951172 21.6358 0.951172 20.9352C0.951172 20.3029 1.39148 19.8358 1.9721 19.8358ZM4.79948 22.6826C4.76979 22.6835 4.74021 22.6783 4.71259 22.6673C4.68498 22.6564 4.65988 22.6399 4.63888 22.6189C4.61787 22.5979 4.60138 22.5728 4.59043 22.5452C4.57946 22.5176 4.57428 22.488 4.57518 22.4583V19.2035H5.35241V19.6337C5.52872 19.3688 5.87301 19.1232 6.40195 19.1232C7.26502 19.1232 7.72472 19.8118 7.72472 20.4552V22.6826H7.18472C7.12187 22.6824 7.06167 22.6573 7.01724 22.6128C6.9728 22.5684 6.94773 22.5082 6.94748 22.4454V20.6269C6.94748 20.2697 6.72871 19.8368 6.22287 19.8368C5.67825 19.8368 5.35241 20.3518 5.35241 20.8374V22.6835H4.79856L4.79948 22.6826ZM9.99179 19.1241C9.16656 19.1241 8.31824 19.786 8.31824 20.9426C8.31824 22.0014 9.06409 22.7491 9.99179 22.7491C10.7579 22.7491 11.0995 22.2349 11.0995 22.2349V22.4583C11.0995 22.5644 11.1992 22.6826 11.3229 22.6826H11.8767V17.4644H11.0995V19.6457C11.0995 19.6457 10.7552 19.1241 9.99179 19.1241ZM10.1302 19.8358C10.8096 19.8358 11.1659 20.4331 11.1659 20.9435C11.1659 21.5103 10.7432 22.0494 10.1321 22.0494C9.62164 22.0494 9.10933 21.6358 9.10933 20.9352C9.10933 20.3029 9.54963 19.8358 10.1302 19.8358ZM12.9576 22.6826C12.9279 22.6835 12.8984 22.6783 12.8708 22.6673C12.8431 22.6564 12.818 22.6399 12.797 22.6189C12.776 22.5979 12.7595 22.5728 12.7486 22.5452C12.7376 22.5176 12.7324 22.488 12.7333 22.4583V19.2035H13.5106V19.7832C13.5816 19.5947 13.7103 19.4333 13.8784 19.3221C14.0464 19.2109 14.2452 19.1555 14.4466 19.1638C14.5896 19.1638 14.7235 19.1906 14.7235 19.1906V19.9937C14.7235 19.9937 14.5573 19.9291 14.3543 19.9291C13.8096 19.9291 13.5106 20.4441 13.5106 20.9297V22.6835H12.9567L12.9576 22.6826ZM19.4413 22.6826C19.4118 22.6834 19.3824 22.6781 19.355 22.6671C19.3275 22.6562 19.3026 22.6398 19.2817 22.6189C19.2608 22.598 19.2444 22.573 19.2334 22.5456C19.2224 22.5181 19.2172 22.4888 19.2179 22.4592V19.2035H19.9952V22.6835L19.4413 22.6826ZM22.2752 19.1241C21.4499 19.1241 20.6016 19.786 20.6016 20.9426C20.6016 22.0014 21.3475 22.7491 22.2752 22.7491C23.0413 22.7491 23.3829 22.2349 23.3829 22.2349V22.4583C23.3829 22.5644 23.4826 22.6826 23.6063 22.6826H24.1601V17.4644H23.3829V19.6457C23.3829 19.6457 23.0386 19.1241 22.2752 19.1241ZM22.4136 19.8358C23.093 19.8358 23.4493 20.4331 23.4493 20.9435C23.4493 21.5103 23.0266 22.0494 22.4155 22.0494C21.905 22.0494 21.3927 21.6358 21.3927 20.9352C21.3927 20.3029 21.833 19.8358 22.4136 19.8358ZM19.6001 18.4531C19.7366 18.4531 19.8675 18.3988 19.964 18.3023C20.0605 18.2058 20.1147 18.0749 20.1147 17.9384C20.1147 17.802 20.0605 17.6711 19.964 17.5746C19.8675 17.478 19.7366 17.4238 19.6001 17.4238C19.4636 17.4238 19.3327 17.478 19.2362 17.5746C19.1397 17.6711 19.0855 17.802 19.0855 17.9384C19.0855 18.0749 19.1397 18.2058 19.2362 18.3023C19.3327 18.3988 19.4636 18.4531 19.6001 18.4531ZM16.7755 19.1232C15.9106 19.1232 14.9616 19.7684 14.9616 20.9371C14.9616 22.0014 15.7703 22.7491 16.7736 22.7491C18.0096 22.7491 18.6133 21.7549 18.6133 20.9435C18.6152 20.7025 18.5688 20.4635 18.4769 20.2406C18.385 20.0178 18.2494 19.8156 18.0781 19.6459C17.9069 19.4763 17.7034 19.3427 17.4797 19.2529C17.2559 19.1631 17.0165 19.119 16.7755 19.1232ZM16.7783 19.8497C17.3755 19.8497 17.8213 20.3306 17.8213 20.9389C17.8213 21.5574 17.3478 22.0346 16.7801 22.0346C16.2521 22.0346 15.7389 21.6054 15.7389 20.9491C15.7389 20.2826 16.2272 19.8497 16.7783 19.8497Z" fill="#D7DDE1"/>
<path d="M18.0178 5.85244L20.0061 2.40567C20.0595 2.31317 20.0741 2.2033 20.0468 2.10005C20.0195 1.9968 19.9524 1.90855 19.8602 1.85459C19.8147 1.82788 19.7643 1.81048 19.712 1.8034C19.6596 1.79633 19.6064 1.79971 19.5554 1.81337C19.5044 1.82702 19.4566 1.85067 19.4148 1.88294C19.373 1.91521 19.338 1.95546 19.3119 2.00136L17.2968 5.49243C15.6854 4.7626 13.9354 4.38918 12.1664 4.39767C10.3045 4.39767 8.57377 4.78997 7.03593 5.49243L5.01993 2.00136C4.99354 1.95549 4.95834 1.91529 4.91638 1.88307C4.87441 1.85085 4.82649 1.82724 4.77536 1.8136C4.72424 1.79996 4.67092 1.79656 4.61848 1.80359C4.56603 1.81063 4.5155 1.82796 4.46977 1.85459C4.42378 1.88097 4.38347 1.9162 4.35117 1.95824C4.31887 2.00029 4.29521 2.04831 4.28156 2.09955C4.26792 2.15078 4.26454 2.20421 4.27167 2.25675C4.27878 2.30929 4.29623 2.3599 4.323 2.40567L6.31223 5.85244C2.883 7.71151 0.557767 11.1841 0.173767 15.2494H24.1581C23.7741 11.1841 21.4507 7.71151 18.0178 5.85244ZM6.66023 11.8801C6.5246 11.8859 6.38918 11.8642 6.26217 11.8163C6.13514 11.7685 6.01912 11.6953 5.92109 11.6014C5.82306 11.5075 5.74505 11.3947 5.69176 11.2699C5.63846 11.145 5.61099 11.0107 5.61099 10.8749C5.61099 10.7391 5.63846 10.6048 5.69176 10.4799C5.74505 10.3551 5.82306 10.2423 5.92109 10.1484C6.01912 10.0544 6.13514 9.98134 6.26217 9.93344C6.38918 9.88555 6.5246 9.86385 6.66023 9.86967C6.92169 9.87759 7.16978 9.98702 7.35191 10.1748C7.53405 10.3625 7.63591 10.6138 7.63591 10.8754C7.63591 11.1369 7.53405 11.3882 7.35191 11.576C7.16978 11.7637 6.92169 11.8721 6.66023 11.8801ZM17.6698 11.8801C17.5341 11.8859 17.3987 11.8641 17.2717 11.8162C17.1447 11.7682 17.0287 11.6951 16.9308 11.6011C16.8328 11.5071 16.7548 11.3943 16.7016 11.2694C16.6483 11.1445 16.6209 11.0102 16.621 10.8744C16.6211 10.7387 16.6486 10.6043 16.7019 10.4795C16.7553 10.3546 16.8334 10.2419 16.9314 10.148C17.0295 10.0542 17.1455 9.9811 17.2726 9.93326C17.3996 9.88542 17.5351 9.86379 17.6707 9.86967C17.9321 9.87759 18.1802 9.98702 18.3624 10.1748C18.5445 10.3625 18.6464 10.6138 18.6464 10.8754C18.6464 11.1369 18.5445 11.3882 18.3624 11.576C18.1802 11.7637 17.9321 11.8731 17.6707 11.8811L17.6698 11.8801Z" fill="#32DE84"/>
</g>
</g>
</g>
<defs>
<clipPath id="clip0_601_5338">
<rect width="24" height="24" fill="white" transform="translate(0.160095)"/>
</clipPath>
<clipPath id="clip1_601_5338">
<rect width="24" height="24" fill="white" transform="translate(0.160095)"/>
</clipPath>
<clipPath id="clip2_601_5338">
<rect width="24" height="24" fill="white" transform="translate(0.160095)"/>
</clipPath>
</defs>
</svg>
