<svg width="25" height="24" viewBox="0 0 25 24" fill="none" xmlns="http://www.w3.org/2000/svg">
<g clip-path="url(#clip0_601_5278)">
<g clip-path="url(#clip1_601_5278)">
<g clip-path="url(#clip2_601_5278)">
<mask id="mask0_601_5278" style="mask-type:luminance" maskUnits="userSpaceOnUse" x="0" y="0" width="25" height="24">
<path d="M24.83 0H0.829987V24H24.83V0Z" fill="white"/>
</mask>
<g mask="url(#mask0_601_5278)">
<path d="M12.83 0C9.64739 0 6.59515 1.26428 4.34471 3.51472C2.09427 5.76516 0.829987 8.8174 0.829987 12C0.829987 15.1826 2.09427 18.2348 4.34471 20.4853C6.59515 22.7357 9.64739 24 12.83 24C16.0126 24 19.0648 22.7357 21.3153 20.4853C23.5657 18.2348 24.83 15.1826 24.83 12C24.83 8.8174 23.5657 5.76516 21.3153 3.51472C19.0648 1.26428 16.0126 0 12.83 0ZM12.83 22.458C10.946 22.458 9.41599 21.198 9.41599 19.644H16.244C16.244 21.204 14.714 22.464 12.83 22.464V22.458ZM18.47 18.714H7.18999V16.674H18.47V18.714ZM18.428 15.618H7.21999L7.11199 15.486C5.95399 14.088 5.68399 13.356 5.41999 12.606C5.41999 12.582 6.81799 12.894 7.81999 13.116C7.81999 13.116 8.32999 13.236 9.07999 13.374C8.35346 12.5373 7.94737 11.47 7.93399 10.362C7.93399 7.962 9.77599 5.856 9.10999 4.158C9.75799 4.206 10.448 5.526 10.496 7.578C11.186 6.624 11.474 4.89 11.474 3.822C11.474 2.724 12.2 1.44 12.932 1.398C12.278 2.466 13.094 3.378 13.82 5.652C14.096 6.504 14.06 7.938 14.27 8.85C14.342 6.96 14.666 4.2 15.866 3.246C15.338 4.446 15.944 5.946 16.358 6.666C17.03 7.836 17.438 8.718 17.438 10.386C17.438 11.484 17.042 12.546 16.328 13.386C16.7763 13.3009 17.2224 13.2048 17.666 13.098L20.24 12.6C20.24 12.6 19.868 14.136 18.428 15.618Z" fill="#E3703B"/>
</g>
</g>
</g>
</g>
<defs>
<clipPath id="clip0_601_5278">
<rect width="24" height="24" fill="white" transform="translate(0.829987)"/>
</clipPath>
<clipPath id="clip1_601_5278">
<rect width="24" height="24" fill="white" transform="translate(0.829987)"/>
</clipPath>
<clipPath id="clip2_601_5278">
<rect width="24" height="24" fill="white" transform="translate(0.829987)"/>
</clipPath>
</defs>
</svg>
