<svg width="25" height="24" viewBox="0 0 25 24" fill="none" xmlns="http://www.w3.org/2000/svg">
<g clip-path="url(#clip0_601_5566)">
<g clip-path="url(#clip1_601_5566)">
<path d="M11.4915 0.304799C11.7938 0.137545 12.1337 0.0498047 12.4791 0.0498047C12.8246 0.0498047 13.1645 0.137545 13.4667 0.304799C16.4745 1.9878 19.4829 3.6678 22.4895 5.352C23.0559 5.667 23.4339 6.291 23.4279 6.936V17.0598C23.4315 17.7318 23.0169 18.3702 22.4199 18.678C19.4217 20.352 16.4265 22.0278 13.4295 23.7012C12.8187 24.0468 12.0237 24.021 11.4315 23.646C10.5339 23.13 9.63275 22.617 8.73455 22.1022C8.55095 21.993 8.34455 21.9072 8.21495 21.7308C8.32895 21.5778 8.53355 21.5592 8.70095 21.4908C9.07595 21.3738 9.42095 21.1842 9.76475 21C9.85175 20.9412 9.95795 20.964 10.042 21.0162C10.8099 21.453 11.5719 21.9018 12.3429 22.3338C12.5079 22.428 12.6735 22.3038 12.8145 22.2258C15.7557 20.5788 18.7005 18.939 21.6417 17.292C21.6941 17.2663 21.7375 17.2253 21.7661 17.1744C21.7947 17.1235 21.8072 17.0651 21.8019 17.007C21.8049 13.6668 21.8025 10.3272 21.8037 6.987C21.809 6.92157 21.7936 6.85614 21.7597 6.79994C21.7258 6.74374 21.6751 6.69961 21.6147 6.6738C18.6279 5.0088 15.6417 3.3402 12.6549 1.674C12.6032 1.63915 12.5422 1.62054 12.4797 1.62054C12.4173 1.62054 12.3563 1.63915 12.3045 1.674C9.31655 3.3402 6.33095 5.01 3.34355 6.6762C3.28349 6.70137 3.23289 6.74484 3.19896 6.80042C3.16503 6.856 3.14949 6.92087 3.15455 6.9858V17.01C3.14984 17.0679 3.16295 17.1258 3.19212 17.176C3.2213 17.2262 3.26514 17.2662 3.31775 17.2908C4.11455 17.739 4.91255 18.183 5.70995 18.6288C6.15995 18.8688 6.71075 19.011 7.20575 18.8268C7.42163 18.7472 7.60788 18.6032 7.73932 18.4144C7.87077 18.2255 7.94108 18.0009 7.94075 17.7708C7.94495 14.451 7.93895 11.13 7.94375 7.8102C7.93355 7.6632 8.07395 7.5402 8.21855 7.5552C8.60194 7.55118 8.98536 7.55118 9.36875 7.5552C9.52895 7.5522 9.63875 7.7112 9.61895 7.8588C9.61655 11.2008 9.62255 14.5422 9.61595 17.8842C9.61595 18.774 9.24695 19.7442 8.41595 20.1792C7.39055 20.7048 6.12395 20.5938 5.11175 20.0892C4.23575 19.656 3.39875 19.1448 2.53895 18.681C1.93955 18.3738 1.52675 17.7342 1.53095 17.061V6.9372C1.52495 6.2778 1.91795 5.6442 2.50055 5.3328L11.4909 0.305999L11.4915 0.304799Z" fill="#8CC84B"/>
<path d="M14.1076 7.31832C15.4144 7.23492 16.8136 7.26792 17.9896 7.90692C18.9004 8.39532 19.4056 9.42132 19.4212 10.4233C19.3954 10.5583 19.2532 10.6333 19.1236 10.6231C18.7432 10.6231 18.3646 10.6279 17.9854 10.6213C17.8246 10.6273 17.7304 10.4803 17.7106 10.3393C17.6014 9.85932 17.3374 9.38532 16.8826 9.15432C16.1824 8.80692 15.3724 8.82432 14.6086 8.83212C14.0524 8.86092 13.4536 8.90892 12.9814 9.23232C12.6196 9.47832 12.5092 9.97392 12.6382 10.3741C12.7606 10.6603 13.0942 10.7533 13.3684 10.8379C14.9434 11.2459 16.6126 11.2063 18.1582 11.7421C18.7984 11.9623 19.4236 12.3871 19.6426 13.0501C19.9282 13.9399 19.8022 15.0019 19.1644 15.7159C18.6466 16.3033 17.8924 16.6231 17.1394 16.7959C16.1392 17.0173 15.0994 17.0233 14.0836 16.9249C13.1284 16.8169 12.1336 16.5679 11.3956 15.9229C10.7656 15.3811 10.4554 14.5351 10.4872 13.7191C10.4944 13.5823 10.6324 13.4851 10.7662 13.4971C11.1484 13.4941 11.5294 13.4929 11.9116 13.4971C12.0646 13.4869 12.1774 13.6171 12.1852 13.7593C12.2554 14.2159 12.4294 14.6959 12.8314 14.9659C13.6072 15.4621 14.5816 15.4279 15.4702 15.4423C16.2064 15.4099 17.0332 15.4003 17.6332 14.9179C17.9506 14.6431 18.0442 14.1829 17.9596 13.7881C17.8666 13.4539 17.5132 13.2979 17.2102 13.1959C15.6556 12.7093 13.9672 12.8863 12.4276 12.3349C11.8024 12.1159 11.1976 11.7019 10.9576 11.0659C10.6222 10.1659 10.7764 9.05292 11.4814 8.36292C12.1696 7.67712 13.1626 7.41312 14.1076 7.31832Z" fill="#8CC84B"/>
</g>
</g>
<defs>
<clipPath id="clip0_601_5566">
<rect width="24" height="24" fill="white" transform="translate(0.480103)"/>
</clipPath>
<clipPath id="clip1_601_5566">
<rect width="24" height="24" fill="white" transform="translate(0.480103)"/>
</clipPath>
</defs>
</svg>
