<svg width="25" height="24" viewBox="0 0 25 24" fill="none" xmlns="http://www.w3.org/2000/svg">
<g clip-path="url(#clip0_601_5559)">
<g clip-path="url(#clip1_601_5559)">
<g clip-path="url(#clip2_601_5559)">
<path d="M12.7001 0C6.64007 0 7.00007 2.64 7.00007 2.64V5.4H12.8201V6.24H4.72007C4.72007 6.24 0.820068 5.82 0.820068 11.94C0.820068 18.12 4.24007 17.88 4.24007 17.88H6.28007V15C6.28007 15 6.16007 11.58 9.64007 11.58H15.4001C15.4001 11.58 18.6401 11.64 18.6401 8.46V3.18C18.5801 3.18 19.0601 0 12.7001 0ZM9.52007 1.86C9.64007 1.86 9.82007 1.86 9.94007 1.92C10.0601 1.98 10.1801 2.04 10.3001 2.16C10.4201 2.28 10.4801 2.4 10.5401 2.52C10.6001 2.64 10.6001 2.76 10.6001 2.94C10.6001 3.24 10.4801 3.48 10.3001 3.66C10.1201 3.84 9.82007 3.96 9.58007 3.96C9.46007 3.96 9.28007 3.96 9.16007 3.9C9.04007 3.84 8.92007 3.78 8.80007 3.66C8.68007 3.54 8.62007 3.42 8.56007 3.3C8.50007 3.18 8.50007 3.06 8.50007 2.88C8.50007 2.58 8.62007 2.34 8.80007 2.16C8.98007 1.98 9.22007 1.86 9.52007 1.86Z" fill="#387EB8"/>
<path d="M12.8802 23.9398C18.9402 23.9398 18.5802 21.2998 18.5802 21.2998V18.5398H12.7602V17.6998H20.8602C20.8602 17.6998 24.7602 18.1198 24.7602 11.9998C24.7602 5.81984 21.3402 6.05984 21.3402 6.05984H19.3002V8.93984C19.3002 8.93984 19.4202 12.3598 15.9402 12.3598H10.1802C10.1802 12.3598 6.94019 12.2998 6.94019 15.4798V20.7598C7.06019 20.6998 6.52018 23.9398 12.8802 23.9398ZM16.0602 22.0798C15.9402 22.0798 15.7602 22.0798 15.6402 22.0198C15.5202 21.9598 15.4002 21.8998 15.2802 21.7798C15.1602 21.6598 15.1002 21.5398 15.0402 21.4198C14.9802 21.2998 14.9802 21.1798 14.9802 20.9998C14.9802 20.6998 15.1002 20.4598 15.2802 20.2798C15.4602 20.0998 15.7602 19.9798 16.0002 19.9798C16.1202 19.9798 16.3002 19.9798 16.4202 20.0398C16.5402 20.0998 16.6602 20.1598 16.7802 20.2798C16.9002 20.3998 16.9602 20.5198 17.0202 20.6398C17.0802 20.7598 17.0802 20.8798 17.0802 21.0598C17.0802 21.3598 16.9602 21.5998 16.7802 21.7798C16.6002 21.9598 16.3602 22.0798 16.0602 22.0798Z" fill="#FFC331"/>
</g>
</g>
</g>
<defs>
<clipPath id="clip0_601_5559">
<rect width="24" height="24" fill="white" transform="translate(0.820068)"/>
</clipPath>
<clipPath id="clip1_601_5559">
<rect width="24" height="24" fill="white" transform="translate(0.820068)"/>
</clipPath>
<clipPath id="clip2_601_5559">
<rect width="24" height="24" fill="white" transform="translate(0.820068)"/>
</clipPath>
</defs>
</svg>
