<svg width="25" height="24" viewBox="0 0 25 24" fill="none" xmlns="http://www.w3.org/2000/svg">
<g clip-path="url(#clip0_601_5361)">
<g clip-path="url(#clip1_601_5361)">
<g clip-path="url(#clip2_601_5361)">
<mask id="mask0_601_5361" style="mask-type:luminance" maskUnits="userSpaceOnUse" x="0" y="0" width="25" height="24">
<path d="M24.16 0H0.160034V24H24.16V0Z" fill="white"/>
</mask>
<g mask="url(#mask0_601_5361)">
<path d="M15.3816 7.12201H16.1136L18.2016 5.03401L18.3036 4.15201C17.1086 3.09812 15.6647 2.3661 14.1083 2.02501C12.5519 1.68393 10.9342 1.74502 9.408 2.20254C7.88175 2.66006 6.49723 3.4989 5.38509 4.63993C4.27295 5.78095 3.46988 7.18652 3.05164 8.72401C3.27964 8.62801 3.53764 8.61601 3.78364 8.68201L7.95364 7.99201C7.95364 7.99201 8.16364 7.64401 8.27764 7.66201C9.17075 6.67867 10.4065 6.07473 11.7311 5.9743C13.0557 5.87387 14.3684 6.28457 15.3996 7.12201H15.3816Z" fill="#EA4335"/>
<path d="M21.1717 8.72371C20.6926 6.95836 19.7083 5.37138 18.3397 4.15771L15.4117 7.08571C16.0223 7.5841 16.5118 8.21459 16.8434 8.92964C17.1749 9.64468 17.3398 10.4257 17.3257 11.2137V11.7357C18.0163 11.7357 18.6786 12.0101 19.167 12.4984C19.6553 12.9868 19.9297 13.6491 19.9297 14.3397C19.9297 15.0303 19.6553 15.6927 19.167 16.181C18.6786 16.6694 18.0163 16.9437 17.3257 16.9437H12.1117L11.5897 17.4717V20.5977L12.1117 21.1197H17.3257C18.781 21.13 20.201 20.6716 21.3758 19.8125C22.5505 18.9533 23.4176 17.739 23.8489 16.349C24.2801 14.959 24.2527 13.4671 23.7706 12.0939C23.2884 10.7207 22.3772 9.53905 21.1717 8.72371Z" fill="#4285F4"/>
<path d="M6.89154 21.084H12.1055V16.92H6.89154C6.51954 16.92 6.15354 16.842 5.81154 16.686L5.08554 16.914L2.98554 19.002L2.80554 19.734C3.98219 20.6215 5.41776 21.0979 6.89154 21.09V21.084Z" fill="#34A853"/>
<path d="M6.89126 7.55425C5.47989 7.56399 4.10673 8.01396 2.96331 8.8414C1.81988 9.66884 0.963189 10.8325 0.512703 12.1701C0.0622163 13.5077 0.0403973 14.9525 0.450289 16.3031C0.860181 17.6537 1.68134 18.8427 2.79927 19.7043L5.82326 16.6802C5.44004 16.5061 5.10476 16.2416 4.84615 15.9094C4.58754 15.5773 4.4133 15.1874 4.33838 14.7732C4.26345 14.3589 4.29006 13.9327 4.41593 13.531C4.5418 13.1293 4.76317 12.7641 5.06109 12.4667C5.359 12.1693 5.72458 11.9486 6.12649 11.8234C6.5284 11.6983 6.95466 11.6724 7.36876 11.748C7.78286 11.8237 8.17244 11.9986 8.50414 12.2578C8.83583 12.517 9.09974 12.8527 9.27326 13.2362L12.2912 10.2122C11.6575 9.38234 10.8401 8.71048 9.9033 8.24933C8.96642 7.78818 7.93548 7.55027 6.89126 7.55425Z" fill="#FBBC05"/>
</g>
</g>
</g>
</g>
<defs>
<clipPath id="clip0_601_5361">
<rect width="24" height="24" fill="white" transform="translate(0.160034)"/>
</clipPath>
<clipPath id="clip1_601_5361">
<rect width="24" height="24" fill="white" transform="translate(0.160034)"/>
</clipPath>
<clipPath id="clip2_601_5361">
<rect width="24" height="24" fill="white" transform="translate(0.160034)"/>
</clipPath>
</defs>
</svg>
