<svg width="25" height="24" viewBox="0 0 25 24" fill="none" xmlns="http://www.w3.org/2000/svg">
<g clip-path="url(#clip0_601_5768)">
<g clip-path="url(#clip1_601_5768)">
<g clip-path="url(#clip2_601_5768)">
<path d="M24.17 24H0.169983V0H24.17V24Z" fill="#00C3FF"/>
<path d="M24.17 24H12.17V0H24.17V24Z" fill="#00AAF0"/>
<path d="M22.7637 22.5938H1.57623V1.40625H22.7637V22.5938Z" fill="#063E8B"/>
<path d="M22.7637 22.5938H12.17V1.40625H22.7637V22.5938Z" fill="#032E68"/>
<path d="M12.17 21.1114C11.6065 21.1114 11.0768 20.892 10.6784 20.4936L3.67645 13.4916C3.27802 13.0932 3.05859 12.5635 3.05859 12C3.05859 11.4366 3.27802 10.9069 3.67645 10.5085L10.6784 3.50653C11.0768 3.10809 11.6065 2.88867 12.17 2.88867C12.7334 2.88867 13.2631 3.10809 13.6615 3.50653L20.6635 10.5085C21.0619 10.9069 21.2813 11.4366 21.2813 12C21.2813 12.5635 21.0619 13.0932 20.6635 13.4916L13.6615 20.4936C13.2631 20.892 12.7334 21.1114 12.17 21.1114ZM12.17 4.29492C11.9821 4.29492 11.8056 4.36809 11.6728 4.50089L4.67081 11.5028C4.53802 11.6356 4.46484 11.8122 4.46484 12C4.46484 12.1879 4.53802 12.3644 4.67081 12.4973L11.6728 19.4992C11.8056 19.632 11.9821 19.7052 12.17 19.7052C12.3578 19.7052 12.5343 19.632 12.6672 19.4992L19.6691 12.4973C19.8019 12.3645 19.8751 12.1879 19.8751 12C19.8751 11.8122 19.8019 11.6357 19.6691 11.5028L12.6672 4.50089C12.5343 4.36809 12.3578 4.29492 12.17 4.29492Z" fill="#CCEFFF"/>
<path d="M20.6635 10.5085L13.6615 3.50653C13.2632 3.10809 12.7334 2.88867 12.17 2.88867V4.29492C12.3578 4.29492 12.5343 4.36809 12.6672 4.50089L19.6691 11.5028C19.8019 11.6356 19.8751 11.8122 19.8751 12C19.8751 12.1879 19.8019 12.3644 19.6691 12.4973L12.6672 19.4992C12.5344 19.632 12.3578 19.7052 12.17 19.7052V21.1114C12.7334 21.1114 13.2632 20.892 13.6615 20.4936L20.6635 13.4916C21.0619 13.0932 21.2814 12.5635 21.2814 12C21.2814 11.4366 21.0619 10.9069 20.6635 10.5085Z" fill="#ACE3FC"/>
<path d="M14.6552 14.6064C13.7481 14.6064 13.1027 14.1939 12.8777 13.9989L13.2527 13.3689C13.4927 13.5389 14.045 13.8864 14.6327 13.8864C15.0137 13.8864 15.2777 13.7267 15.2777 13.4514C15.2777 13.1134 14.7202 13.0039 14.4152 12.9189C14.1602 12.8489 13.0127 12.6876 13.0127 11.8239C13.0127 10.9923 13.7364 10.5264 14.5577 10.5264C15.42 10.5264 15.8802 10.8764 16.0952 11.0664L15.6902 11.6739C15.4902 11.5239 15.045 11.2389 14.5502 11.2389C14.1856 11.2389 13.9502 11.3946 13.9502 11.6814C13.9502 12.0392 14.5777 12.1414 14.7227 12.1764C14.9927 12.2464 16.2452 12.4376 16.2452 13.3614C16.2452 14.4532 15.1452 14.6064 14.6552 14.6064Z" fill="#00AAF0"/>
<path d="M8.59534 14.5311V9.20605H10.8528C11.8861 9.20605 12.5478 10.1561 12.5478 10.9761C12.5478 11.9425 11.8132 12.7461 10.8903 12.7461H9.63034V14.5311H8.59534ZM9.63034 11.8386H10.8303C11.1934 11.8386 11.4978 11.4998 11.4978 10.9761C11.4978 10.5261 11.2246 10.1136 10.7853 10.1136H9.63034V11.8386Z" fill="#00C3FF"/>
<path d="M12.17 9.88623V12.0996C12.4065 11.7924 12.5479 11.4 12.5479 10.9761C12.5479 10.6061 12.4127 10.2099 12.17 9.88623Z" fill="#00AAF0"/>
</g>
</g>
</g>
<defs>
<clipPath id="clip0_601_5768">
<rect width="24" height="24" fill="white" transform="translate(0.169983)"/>
</clipPath>
<clipPath id="clip1_601_5768">
<rect width="24" height="24" fill="white" transform="translate(0.169983)"/>
</clipPath>
<clipPath id="clip2_601_5768">
<rect width="24" height="24" fill="white" transform="translate(0.169983)"/>
</clipPath>
</defs>
</svg>
