<svg width="25" height="24" viewBox="0 0 25 24" fill="none" xmlns="http://www.w3.org/2000/svg">
<g clip-path="url(#clip0_601_5507)">
<g clip-path="url(#clip1_601_5507)">
<g clip-path="url(#clip2_601_5507)">
<mask id="mask0_601_5507" style="mask-type:luminance" maskUnits="userSpaceOnUse" x="0" y="0" width="25" height="24">
<path d="M24.83 0H0.829956V24H24.83V0Z" fill="white"/>
</mask>
<g mask="url(#mask0_601_5507)">
<path d="M13.6278 12C13.6278 10.9387 14.0494 9.92073 14.7999 9.17021C15.5504 8.41969 16.5684 7.99805 17.6298 7.99805C18.6911 7.99805 19.7091 8.41969 20.4596 9.17021C21.2101 9.92073 21.6318 10.9387 21.6318 12C21.6318 13.0614 21.2101 14.0794 20.4596 14.8299C19.7091 15.5804 18.6911 16.002 17.6298 16.002C16.5684 16.002 15.5504 15.5804 14.7999 14.8299C14.0494 14.0794 13.6278 13.0614 13.6278 12Z" fill="#1ABCFE"/>
<path d="M5.62983 19.998C5.63141 18.9376 6.05375 17.9212 6.8041 17.172C7.55445 16.4228 8.57147 16.002 9.63182 16.002H13.6279V19.998C13.6487 20.5361 13.5607 21.073 13.3692 21.5764C13.1776 22.0797 12.8864 22.5393 12.513 22.9274C12.1396 23.3156 11.6917 23.6243 11.1961 23.8352C10.7005 24.0462 10.1674 24.1549 9.62882 24.1549C9.09023 24.1549 8.55718 24.0462 8.06161 23.8352C7.56603 23.6243 7.11813 23.3156 6.74473 22.9274C6.37133 22.5393 6.08012 22.0797 5.88855 21.5764C5.69697 21.073 5.60897 20.5361 5.62983 19.998Z" fill="#0ACF83"/>
<path d="M13.6278 0V7.998H17.6298C18.6635 7.95795 19.6417 7.5191 20.3589 6.77352C21.0762 6.02795 21.4768 5.03357 21.4768 3.999C21.4768 2.96443 21.0762 1.97005 20.3589 1.22448C19.6417 0.478896 18.6635 0.0400513 17.6298 0H13.6278Z" fill="#FF7262"/>
<path d="M5.62976 4.002C5.63135 5.06236 6.05369 6.07874 6.80404 6.82796C7.55439 7.57719 8.57141 7.998 9.63177 7.998H13.6278V0H9.63177C8.57037 0 7.55244 0.421638 6.80192 1.17216C6.0514 1.92268 5.62976 2.9406 5.62976 4.002Z" fill="#F24E1E"/>
<path d="M5.62976 12C5.62976 13.0614 6.0514 14.0794 6.80192 14.8299C7.55244 15.5804 8.57037 16.002 9.63177 16.002H13.6278V7.99805H9.63177C8.57037 7.99805 7.55244 8.41969 6.80192 9.17021C6.0514 9.92073 5.62976 10.9387 5.62976 12Z" fill="#A259FF"/>
</g>
</g>
</g>
</g>
<defs>
<clipPath id="clip0_601_5507">
<rect width="24" height="24" fill="white" transform="translate(0.829956)"/>
</clipPath>
<clipPath id="clip1_601_5507">
<rect width="24" height="24" fill="white" transform="translate(0.829956)"/>
</clipPath>
<clipPath id="clip2_601_5507">
<rect width="24" height="24" fill="white" transform="translate(0.829956)"/>
</clipPath>
</defs>
</svg>
