<svg width="25" height="24" viewBox="0 0 25 24" fill="none" xmlns="http://www.w3.org/2000/svg">
<g clip-path="url(#clip0_601_5496)">
<g clip-path="url(#clip1_601_5496)">
<g clip-path="url(#clip2_601_5496)">
<mask id="mask0_601_5496" style="mask-type:luminance" maskUnits="userSpaceOnUse" x="0" y="0" width="25" height="24">
<path d="M24.15 0H0.150024V24H24.15V0Z" fill="white"/>
</mask>
<g mask="url(#mask0_601_5496)">
<path d="M24.1501 7.96808V21.9241C24.1501 22.4736 23.9322 23.0008 23.5442 23.3899C23.1562 23.7791 22.6297 23.9985 22.0801 24.0001H2.22016C1.68196 24.0019 1.16434 23.7934 0.777657 23.419C0.390972 23.0447 0.165808 22.5341 0.150166 21.9961V2.07608C0.146962 1.80307 0.198272 1.53217 0.301089 1.27925C0.403906 1.02632 0.556164 0.796456 0.748943 0.603118C0.941721 0.409781 1.17114 0.256858 1.42377 0.153309C1.67639 0.04976 1.94715 -0.00233356 2.22016 8.02e-05H21.9721C22.5378 0.00881441 23.0787 0.233767 23.4837 0.628756C23.8888 1.02374 24.1272 1.5588 24.1501 2.12408V7.96808Z" fill="#ED4969"/>
<path d="M16.8898 8.44786C18.2218 8.44786 19.2718 9.35986 19.2718 11.2259C19.2718 11.6819 19.1998 12.2099 19.0618 12.7739L18.3958 15.1679C18.3238 15.4499 18.2578 15.6239 18.2578 15.8339C18.2578 16.2239 18.4678 16.5059 18.7138 16.5059C19.0258 16.5059 19.4458 16.2239 19.9018 14.9579L20.8138 15.2699C20.2918 17.2079 19.2718 18.0179 18.0418 18.0179C16.5718 18.0179 15.9058 17.1359 15.9058 15.9419C15.9058 15.6239 15.9718 15.2699 16.0438 14.8859L16.7098 12.4259C16.7818 12.1379 16.8538 11.8919 16.8538 11.6819C16.8538 10.8719 16.3978 10.4219 15.5938 10.4219C14.6038 10.4219 13.9378 11.1539 13.5898 12.4919L12.2578 17.8739H9.97782L10.3618 16.1519C9.69582 17.2799 8.71182 18.0119 7.51782 18.0119C6.11382 18.0119 5.44782 17.2079 5.44782 15.9419C5.44782 15.6239 5.51982 15.2039 5.58582 14.8859L6.64182 10.4879H4.99182L5.44782 8.62186H9.44982L7.87182 14.8799C7.72782 15.2639 7.72782 15.6179 7.72782 15.8639C7.72782 16.2539 7.93782 16.3919 8.25582 16.4639H8.39382C8.78382 16.4639 10.0438 16.2539 10.7818 14.6639L11.8318 10.4819H10.1158L10.6438 8.61586H14.2198L13.7638 10.7639C14.3638 9.56386 15.6238 8.44186 16.8838 8.44186L16.8898 8.44786ZM8.49582 7.31986C7.68582 7.31986 7.09182 6.71986 7.09182 5.90986C7.0934 5.53798 7.24182 5.18179 7.50478 4.91883C7.76774 4.65587 8.12394 4.50744 8.49582 4.50586C9.29982 4.50586 9.89982 5.10586 9.89982 5.90986C9.96582 6.71986 9.29982 7.31986 8.49582 7.31986Z" fill="white"/>
</g>
</g>
</g>
</g>
<defs>
<clipPath id="clip0_601_5496">
<rect width="24" height="24" fill="white" transform="translate(0.150024)"/>
</clipPath>
<clipPath id="clip1_601_5496">
<rect width="24" height="24" fill="white" transform="translate(0.150024)"/>
</clipPath>
<clipPath id="clip2_601_5496">
<rect width="24" height="24" fill="white" transform="translate(0.150024)"/>
</clipPath>
</defs>
</svg>
