<svg width="25" height="24" viewBox="0 0 25 24" fill="none" xmlns="http://www.w3.org/2000/svg">
<g clip-path="url(#clip0_601_5579)">
<g clip-path="url(#clip1_601_5579)">
<g clip-path="url(#clip2_601_5579)">
<path fill-rule="evenodd" clip-rule="evenodd" d="M12.2532 9.54764C11.2512 9.80204 10.5672 9.99344 9.58081 10.2484C9.34201 10.312 9.32581 10.3282 9.11881 10.0888C8.88061 9.81825 8.70541 9.64304 8.37181 9.48344C7.36981 8.98964 6.39901 9.13304 5.49181 9.72284C4.41061 10.4236 3.85381 11.4592 3.87001 12.7492C3.88561 14.0236 4.76041 15.0754 6.01741 15.2506C7.09921 15.394 8.00581 15.0118 8.72161 14.1988C8.86501 14.0236 8.99161 13.8328 9.15121 13.6096H6.08101C5.74681 13.6096 5.66701 13.4026 5.77861 13.132C5.98561 12.6382 6.36721 11.8096 6.58981 11.3956C6.63781 11.2996 6.74881 11.1406 6.98761 11.1406H12.7776C12.7464 11.5708 12.7464 12.0004 12.6822 12.4306C12.5076 13.5778 12.078 14.629 11.3784 15.553C10.2324 17.0668 8.73781 18.007 6.84481 18.2614C5.28541 18.4684 3.83821 18.1654 2.56561 17.2102C1.38781 16.318 0.720008 15.139 0.545408 13.6732C0.338408 11.9368 0.847208 10.3756 1.89721 9.00585C3.02701 7.52385 4.52221 6.58424 6.35161 6.25004C7.84681 5.97884 9.27841 6.15405 10.5666 7.03004C11.4102 7.58805 12.0144 8.35245 12.4122 9.27645C12.5076 9.42045 12.444 9.49964 12.2532 9.54764Z" fill="#327C99"/>
<path d="M17.5181 18.3574C16.0709 18.3256 14.7503 17.911 13.6367 16.9552C12.6983 16.1428 12.1097 15.1072 11.9189 13.8808C11.6327 12.0808 12.1259 10.4878 13.2071 9.07002C14.3687 7.54002 15.7685 6.74382 17.6615 6.40962C19.2839 6.12282 20.8115 6.28182 22.1951 7.22202C23.4515 8.08182 24.2315 9.24522 24.4379 10.774C24.7079 12.925 24.0881 14.677 22.6085 16.1746C21.5585 17.2426 20.2703 17.911 18.7907 18.214C18.3617 18.2938 17.9315 18.3094 17.5181 18.3574ZM21.3041 11.9212C21.2885 11.7142 21.2885 11.5552 21.2561 11.3956C20.9705 9.81822 19.5221 8.92662 18.0113 9.27702C16.5323 9.61122 15.5777 10.5514 15.2273 12.049C14.9411 13.291 15.5453 14.5498 16.6913 15.0598C17.5661 15.442 18.4409 15.394 19.2839 14.9638C20.5409 14.311 21.2249 13.291 21.3041 11.9212Z" fill="#327C99"/>
</g>
</g>
</g>
<defs>
<clipPath id="clip0_601_5579">
<rect width="24" height="24" fill="white" transform="translate(0.499969)"/>
</clipPath>
<clipPath id="clip1_601_5579">
<rect width="24" height="24" fill="white" transform="translate(0.499969)"/>
</clipPath>
<clipPath id="clip2_601_5579">
<rect width="24" height="24" fill="white" transform="translate(0.499969)"/>
</clipPath>
</defs>
</svg>
