<svg width="25" height="24" viewBox="0 0 25 24" fill="none" xmlns="http://www.w3.org/2000/svg">
<g clip-path="url(#clip0_601_5401)">
<g clip-path="url(#clip1_601_5401)">
<g clip-path="url(#clip2_601_5401)">
<mask id="mask0_601_5401" style="mask-type:luminance" maskUnits="userSpaceOnUse" x="0" y="0" width="25" height="24">
<path d="M24.8199 0H0.819946V24H24.8199V0Z" fill="white"/>
</mask>
<g mask="url(#mask0_601_5401)">
<path d="M24.7779 12.5879C24.7779 10.5779 23.5359 8.80793 21.6579 8.12393C21.8507 7.14176 21.824 6.12913 21.5798 5.15849C21.3355 4.18785 20.8798 3.28318 20.2451 2.50922C19.6105 1.73525 18.8126 1.11112 17.9086 0.681478C17.0046 0.251833 16.0168 0.0272939 15.0159 0.0239258C12.8319 0.0299258 10.804 1.07993 9.52598 2.84393C8.906 2.36619 8.14722 2.10353 7.36457 2.09571C6.58192 2.0879 5.81804 2.33537 5.18865 2.80063C4.55926 3.26589 4.09865 3.9236 3.87658 4.67412C3.65451 5.42465 3.68309 6.2271 3.95798 6.95993C3.0378 7.29589 2.24318 7.90669 1.68185 8.70951C1.12052 9.51232 0.819634 10.4683 0.819977 11.4479C0.816454 12.426 1.11557 13.3812 1.6763 14.1825C2.23703 14.9839 3.03193 15.5921 3.95198 15.9239C3.76769 16.9026 3.80027 17.9097 4.04742 18.8744C4.29457 19.839 4.75027 20.7378 5.38243 21.5072C6.01458 22.2767 6.80779 22.8981 7.70616 23.3278C8.60453 23.7574 9.5862 23.9848 10.582 23.9939C11.6537 23.9948 12.7102 23.7393 13.6632 23.2487C14.6161 22.7582 15.4379 22.0468 16.0599 21.1739C16.684 21.6709 17.4582 21.9416 18.2559 21.9419C18.8387 21.9426 19.4129 21.8018 19.9293 21.5316C20.4456 21.2614 20.8886 20.8699 21.2203 20.3907C21.5519 19.9115 21.7623 19.359 21.8333 18.7805C21.9043 18.2021 21.8338 17.6151 21.6279 17.0699C22.5475 16.7352 23.3424 16.1267 23.9056 15.3264C24.4687 14.5261 24.7732 13.5725 24.7779 12.5939V12.5879Z" fill="white"/>
<path d="M10.2395 10.3499L15.4836 12.7499L20.7636 8.09389C20.9375 7.2335 20.9184 6.34524 20.7077 5.49312C20.4969 4.641 20.0997 3.84625 19.5448 3.16616C18.9898 2.48606 18.2908 1.93757 17.4983 1.5602C16.7057 1.18284 15.8394 0.986002 14.9616 0.983887C14.0016 0.984513 13.0563 1.21993 12.2082 1.66963C11.36 2.11932 10.6347 2.76964 10.0955 3.56389L9.2135 8.15389L10.2335 10.3499H10.2395Z" fill="#FED10A"/>
<path d="M4.81021 15.924C4.63315 16.7878 4.65041 17.6801 4.86073 18.5363C5.07105 19.3926 5.46916 20.1914 6.02625 20.8748C6.58333 21.5582 7.28543 22.1092 8.0817 22.4878C8.87798 22.8665 9.74849 23.0633 10.6302 23.064C11.5978 23.0635 12.5506 22.8258 13.4051 22.3719C14.2597 21.9179 14.99 21.2615 15.5322 20.46L16.4022 15.9L15.2382 13.656L9.97621 11.25L4.81021 15.93V15.924Z" fill="#24BBB1"/>
<path d="M4.77995 6.81593L8.37995 7.66793L9.15994 3.56993C8.67025 3.20347 8.07547 3.00464 7.46384 3.00294C6.85221 3.00124 6.25633 3.19677 5.76461 3.5605C5.2729 3.92424 4.91154 4.43681 4.73416 5.02216C4.55679 5.6075 4.57284 6.23443 4.77995 6.80993V6.81593Z" fill="#EF5098"/>
<path d="M4.46782 7.68018C3.691 7.94164 3.01355 8.436 2.52758 9.09603C2.04161 9.75607 1.77069 10.5498 1.75168 11.3692C1.73267 12.1886 1.96649 12.994 2.42132 13.6759C2.87616 14.3577 3.52996 14.883 4.29382 15.1802L9.33382 10.5962L8.41582 8.61618L4.46782 7.68018Z" fill="#17A8E0"/>
<path d="M16.444 20.46C16.942 20.838 17.536 21.048 18.154 21.048C18.6126 21.0477 19.0643 20.9364 19.4706 20.7238C19.8769 20.5112 20.2258 20.2034 20.4874 19.8268C20.7491 19.4502 20.9158 19.016 20.9734 18.561C21.031 18.1061 20.9777 17.6439 20.818 17.214L17.236 16.374L16.444 20.46Z" fill="#93C83E"/>
<path d="M17.1764 15.4261L21.1244 16.3501C21.9065 16.0942 22.59 15.602 23.0806 14.9414C23.5713 14.2808 23.8451 13.4843 23.8641 12.6616C23.8832 11.839 23.6467 11.0306 23.1872 10.348C22.7277 9.66535 22.0678 9.14202 21.2984 8.8501L16.1324 13.4041L17.1764 15.4261Z" fill="#0779A1"/>
</g>
</g>
</g>
</g>
<defs>
<clipPath id="clip0_601_5401">
<rect width="24" height="24" fill="white" transform="translate(0.819946)"/>
</clipPath>
<clipPath id="clip1_601_5401">
<rect width="24" height="24" fill="white" transform="translate(0.819946)"/>
</clipPath>
<clipPath id="clip2_601_5401">
<rect width="24" height="24" fill="white" transform="translate(0.819946)"/>
</clipPath>
</defs>
</svg>
