<svg width="25" height="24" viewBox="0 0 25 24" fill="none" xmlns="http://www.w3.org/2000/svg">
<g clip-path="url(#clip0_601_5521)">
<g clip-path="url(#clip1_601_5521)">
<g clip-path="url(#clip2_601_5521)">
<path fill-rule="evenodd" clip-rule="evenodd" d="M14.3273 9.5249H16.446V11.6812H17.5148C18.0023 11.6812 18.5085 11.5874 18.9773 11.4374C19.2023 11.3624 19.4648 11.2499 19.6898 11.1187C19.3898 10.7249 19.2398 10.2374 19.2023 9.7499C19.146 9.09365 19.2773 8.23115 19.7273 7.7249L19.9523 7.4624L20.2148 7.66865C20.8898 8.2124 21.4335 8.94365 21.546 9.80615C22.3523 9.5624 23.2898 9.61865 24.0023 10.0312L24.2835 10.1999L24.1335 10.4999C23.5335 11.6624 22.2773 12.0374 21.0585 11.9624C19.221 16.5187 15.246 18.6749 10.4085 18.6749C7.91478 18.6749 5.62728 17.7374 4.31478 15.5249L4.29603 15.4874L4.10853 15.0937C3.65853 14.1187 3.52728 13.0499 3.62103 11.9812L3.65853 11.6624H5.45853V9.5249H7.57728V7.4249H11.796V5.30615H14.3273V9.5249Z" fill="#3A4D54"/>
<path d="M21.1896 10.331C21.3396 9.22471 20.5146 8.36221 19.9896 7.94971C19.4084 8.62471 19.3146 10.4247 20.2334 11.1747C19.7084 11.6247 18.6396 12.056 17.5146 12.056H3.97712C3.86462 13.2185 4.07087 14.2872 4.53962 15.206L4.68962 15.4872C4.78337 15.656 4.89587 15.806 5.00837 15.9747C5.57087 16.0122 6.07712 16.031 6.54587 16.0122C7.46462 15.9935 8.21462 15.881 8.79587 15.6935C8.88962 15.656 8.96462 15.7122 9.00212 15.7872C9.03962 15.881 8.98337 15.956 8.90837 15.9935C8.83337 16.0122 8.75837 16.0497 8.66462 16.0685C8.21462 16.1997 7.72712 16.2747 7.10837 16.3122H6.99587C6.75212 16.331 6.48962 16.331 6.20837 16.331C5.90837 16.331 5.62712 16.331 5.28962 16.3122C6.41462 17.5872 8.17712 18.3372 10.3896 18.3372C15.0771 18.3372 19.0521 16.256 20.7959 11.606C22.0521 11.7372 23.2521 11.4185 23.7959 10.3497C22.9521 9.84346 21.8271 10.0122 21.1896 10.331Z" fill="#00AADA"/>
<path d="M21.1898 10.331C21.3398 9.22471 20.5148 8.36221 19.9898 7.94971C19.4086 8.62471 19.3148 10.4247 20.2336 11.1747C19.7086 11.6247 18.6398 12.056 17.5148 12.056H4.76482C4.70857 13.8372 5.36482 15.1872 6.54607 15.9935C7.46482 15.9747 8.21482 15.8622 8.79607 15.6747C8.88982 15.6372 8.96482 15.6935 9.00232 15.7685C9.03982 15.8622 8.98357 15.9372 8.90857 15.9747C8.83357 15.9935 8.75857 16.031 8.66482 16.0497C8.21482 16.181 7.68982 16.2747 7.07107 16.3122L7.05232 16.2935C8.64607 17.1185 10.9523 17.0997 13.6148 16.0872C16.5773 14.9435 19.3523 12.7685 21.2836 10.2935C21.2461 10.3122 21.2086 10.3122 21.1898 10.331Z" fill="#28B8EB"/>
<path d="M3.99585 13.4624C4.07085 14.0812 4.25835 14.6624 4.5396 15.2062L4.6896 15.4874C4.78335 15.6562 4.89585 15.8062 5.00835 15.9749C5.57085 16.0124 6.0771 16.0312 6.54585 16.0124C7.4646 15.9937 8.2146 15.8812 8.79585 15.6937C8.8896 15.6562 8.9646 15.7124 9.0021 15.7874C9.0396 15.8812 8.98335 15.9562 8.90835 15.9937C8.83335 16.0124 8.75835 16.0499 8.6646 16.0687C8.2146 16.1999 7.6896 16.2937 7.07085 16.3312H6.99585C6.7521 16.3499 6.4896 16.3499 6.2271 16.3499C5.9271 16.3499 5.6271 16.3499 5.30835 16.3312C6.43335 17.6062 8.2146 18.3562 10.4271 18.3562C14.4396 18.3562 17.9271 16.8374 19.9521 13.4812H3.99585V13.4624Z" fill="#028BB8"/>
<path d="M4.89624 13.4624C5.13999 14.5499 5.70249 15.4124 6.54624 15.9937C7.46499 15.9749 8.21499 15.8624 8.79624 15.6749C8.88999 15.6374 8.96499 15.6937 9.00249 15.7687C9.03999 15.8624 8.98374 15.9374 8.90874 15.9749C8.83374 15.9937 8.75874 16.0312 8.66499 16.0499C8.21499 16.1812 7.68999 16.2749 7.05249 16.3124C8.64624 17.1374 10.9525 17.1187 13.5963 16.1062C15.19 15.4874 16.7462 14.5687 18.1337 13.4624H4.89624Z" fill="#019BC6"/>
<path fill-rule="evenodd" clip-rule="evenodd" d="M5.81519 9.88125H7.65269V11.7188H5.81519V9.88125ZM5.96519 10.0312H6.11519V11.55H5.96519V10.0312ZM6.22769 10.0312H6.37769V11.55H6.22769V10.0312ZM6.50894 10.0312H6.65894V11.55H6.50894V10.0312ZM6.79019 10.0312H6.94019V11.55H6.79019V10.0312ZM7.07144 10.0312H7.22144V11.55H7.07144V10.0312ZM7.35269 10.0312H7.50269V11.55H7.35269V10.0312ZM7.91519 7.78125H9.75269V9.61875H7.91519V7.78125ZM8.08394 7.93125H8.23394V9.45H8.08394V7.93125ZM8.34644 7.93125H8.49644V9.45H8.34644V7.93125ZM8.62769 7.93125H8.77769V9.45H8.62769V7.93125ZM8.90894 7.93125H9.05894V9.45H8.90894V7.93125ZM9.17144 7.93125H9.32144V9.45H9.17144V7.93125ZM9.45269 7.93125H9.60269V9.45H9.45269V7.93125Z" fill="#00ACD3"/>
<path fill-rule="evenodd" clip-rule="evenodd" d="M7.91479 9.88135H9.75231V11.7188H7.91479V9.88135ZM8.08356 10.0313H8.23355V11.5501H8.08356V10.0313ZM8.34606 10.0313H8.49605V11.5501H8.34606V10.0313ZM8.62731 10.0313H8.7773V11.5501H8.62731V10.0313ZM8.90856 10.0313H9.05855V11.5501H8.90856V10.0313ZM9.17105 10.0313H9.32106V11.5501H9.17105V10.0313ZM9.4523 10.0313H9.60231V11.5501H9.4523V10.0313Z" fill="#23C2EE"/>
<path fill-rule="evenodd" clip-rule="evenodd" d="M10.0339 9.88135H11.8714V11.7188H10.0339V9.88135ZM10.1839 10.0313H10.3339V11.5501H10.1839V10.0313ZM10.4652 10.0313H10.6152V11.5501H10.4652V10.0313ZM10.7464 10.0313H10.8964V11.5501H10.7464V10.0313ZM11.0089 10.0313H11.1589V11.5501H11.0089V10.0313ZM11.2902 10.0313H11.4402V11.5501H11.2902V10.0313ZM11.5714 10.0313H11.7214V11.5501H11.5714V10.0313Z" fill="#00ACD3"/>
<path fill-rule="evenodd" clip-rule="evenodd" d="M10.0339 7.78125H11.8714V9.61875H10.0339V7.78125ZM10.1839 7.93125H10.3339V9.45H10.1839V7.93125ZM10.4652 7.93125H10.6152V9.45H10.4652V7.93125ZM10.7464 7.93125H10.8964V9.45H10.7464V7.93125ZM11.0089 7.93125H11.1589V9.45H11.0089V7.93125ZM11.2902 7.93125H11.4402V9.45H11.2902V7.93125ZM11.5714 7.93125H11.7214V9.45H11.5714V7.93125ZM12.1527 9.88125H13.9902V11.7188H12.1527V9.88125ZM12.3027 10.0312H12.4527V11.55H12.3027V10.0312ZM12.5839 10.0312H12.7339V11.55H12.5839V10.0312ZM12.8464 10.0312H12.9964V11.55H12.8464V10.0312ZM13.1277 10.0312H13.2777V11.55H13.1277V10.0312ZM13.4089 10.0312H13.5589V11.55H13.4089V10.0312ZM13.6902 10.0312H13.8402V11.55H13.6902V10.0312Z" fill="#23C2EE"/>
<path fill-rule="evenodd" clip-rule="evenodd" d="M12.1521 7.78125H13.9896V9.61875H12.1521V7.78125ZM12.3021 7.93125H12.4521V9.45H12.3021V7.93125ZM12.5834 7.93125H12.7334V9.45H12.5834V7.93125ZM12.8459 7.93125H12.9959V9.45H12.8459V7.93125ZM13.1271 7.93125H13.2771V9.45H13.1271V7.93125ZM13.4084 7.93125H13.5584V9.45H13.4084V7.93125ZM13.6896 7.93125H13.8396V9.45H13.6896V7.93125Z" fill="#00ACD3"/>
<path fill-rule="evenodd" clip-rule="evenodd" d="M12.1521 5.6626H13.9896V7.5001H12.1521V5.6626ZM12.3021 5.8126H12.4521V7.33135H12.3021V5.8126ZM12.5834 5.8126H12.7334V7.33135H12.5834V5.8126ZM12.8459 5.8126H12.9959V7.33135H12.8459V5.8126ZM13.1271 5.8126H13.2771V7.33135H13.1271V5.8126ZM13.4084 5.8126H13.5584V7.33135H13.4084V5.8126ZM13.6896 5.8126H13.8396V7.33135H13.6896V5.8126Z" fill="#23C2EE"/>
<path fill-rule="evenodd" clip-rule="evenodd" d="M14.2712 9.88135H16.1088V11.7188H14.2712V9.88135ZM14.4213 10.0313H14.5712V11.5501H14.4213V10.0313ZM14.6837 10.0313H14.8338V11.5501H14.6837V10.0313ZM14.965 10.0313H15.115V11.5501H14.965V10.0313ZM15.2462 10.0313H15.3962V11.5501H15.2462V10.0313ZM15.5275 10.0313H15.6775V11.5501H15.5275V10.0313ZM15.8087 10.0313H15.9588V11.5501H15.8087V10.0313Z" fill="#00ACD3"/>
<path fill-rule="evenodd" clip-rule="evenodd" d="M9.6398 14.6812C9.92105 14.6812 10.1461 14.9062 10.1461 15.1874C10.1461 15.4687 9.92105 15.6937 9.6398 15.6937C9.35855 15.6937 9.13354 15.4687 9.13354 15.1874C9.13354 14.9062 9.35855 14.6812 9.6398 14.6812Z" fill="#D4EEF1"/>
<path fill-rule="evenodd" clip-rule="evenodd" d="M9.6398 14.8311C9.67729 14.8311 9.73355 14.8311 9.77105 14.8498C9.73355 14.8686 9.69604 14.9248 9.69604 14.9811C9.69604 15.0561 9.77105 15.1311 9.84605 15.1311C9.90229 15.1311 9.95854 15.0936 9.97729 15.0561C9.99604 15.0936 9.99604 15.1498 9.99604 15.1873C9.99604 15.3936 9.8273 15.5436 9.6398 15.5436C9.43354 15.5436 9.28355 15.3748 9.28355 15.1873C9.28355 14.9998 9.43354 14.8311 9.6398 14.8311ZM0.696045 13.6498H24.2086C23.7023 13.5186 22.5961 13.3498 22.7648 12.6748C21.8273 13.7436 19.5961 13.4248 19.0148 12.8998C18.3773 13.8186 14.7023 13.4623 14.4586 12.7498C13.6711 13.6873 11.2148 13.6873 10.4273 12.7498C10.1648 13.4623 6.48979 13.8186 5.87104 12.8998C5.30854 13.4248 3.05854 13.7436 2.12104 12.6748C2.32729 13.3311 1.20229 13.5186 0.696045 13.6498Z" fill="#3A4D54"/>
<path d="M10.9902 18.3373C9.73393 17.7373 9.05893 16.9311 8.66518 16.0498C8.19643 16.1811 7.63393 16.2748 6.99644 16.3123C6.75269 16.3311 6.49019 16.3311 6.22769 16.3311C5.90894 16.3311 5.59019 16.3311 5.25269 16.3123C6.37769 17.4373 7.80269 18.3186 10.4089 18.3373H10.9902Z" fill="#BFDBE0"/>
<path d="M9.13335 16.8561C8.9646 16.6123 8.79585 16.3311 8.6646 16.0498C8.19585 16.1811 7.63335 16.2748 6.99585 16.3123C7.4271 16.5373 8.0646 16.7623 9.13335 16.8561Z" fill="#D4EEF1"/>
</g>
</g>
</g>
<defs>
<clipPath id="clip0_601_5521">
<rect width="24" height="24" fill="white" transform="translate(0.48999)"/>
</clipPath>
<clipPath id="clip1_601_5521">
<rect width="24" height="24" fill="white" transform="translate(0.48999)"/>
</clipPath>
<clipPath id="clip2_601_5521">
<rect width="24" height="24" fill="white" transform="translate(0.48999)"/>
</clipPath>
</defs>
</svg>
