<svg width="25" height="24" viewBox="0 0 25 24" fill="none" xmlns="http://www.w3.org/2000/svg">
<g clip-path="url(#clip0_601_5653)">
<g clip-path="url(#clip1_601_5653)">
<g clip-path="url(#clip2_601_5653)">
<mask id="mask0_601_5653" style="mask-type:luminance" maskUnits="userSpaceOnUse" x="0" y="0" width="25" height="24">
<path d="M24.4899 0H0.489868V24H24.4899V0Z" fill="white"/>
</mask>
<g mask="url(#mask0_601_5653)">
<path d="M12.4879 0C5.85587 0 0.489871 5.367 0.489871 12C0.488819 13.5762 0.79849 15.1371 1.40117 16.5934C2.00386 18.0498 2.88773 19.3731 4.00225 20.4876C5.11676 21.6021 6.44005 22.486 7.89643 23.0887C9.35281 23.6914 10.9137 24.0011 12.4899 24C19.1229 24 24.4899 18.633 24.4899 12C24.4889 5.367 19.0779 0 12.4879 0ZM6.85987 14.575C7.25187 15.098 7.77587 15.317 8.51687 15.317C8.86687 15.317 9.21587 15.273 9.52087 15.142C9.82687 15.012 10.1759 14.836 10.6109 14.575L11.8339 16.32C10.8309 17.15 9.69587 17.542 8.38687 17.542C7.33887 17.542 6.46687 17.324 5.68187 16.888C4.9198 16.4384 4.31124 15.7692 3.93587 14.968C3.54387 14.138 3.32487 13.178 3.32487 12.043C3.32487 10.953 3.54387 9.949 3.93487 9.12C4.3082 8.29412 4.91607 7.59619 5.68287 7.113C6.42387 6.633 7.33987 6.415 8.34387 6.415C9.04287 6.415 9.69687 6.502 10.2209 6.72C10.8088 6.94756 11.3543 7.27205 11.8349 7.68L10.6129 9.338C10.3026 9.10895 9.96587 8.91824 9.60987 8.77C9.30487 8.64 8.91187 8.596 8.56187 8.596C7.07887 8.596 6.33687 9.73 6.33687 12.042C6.29387 13.222 6.51187 14.05 6.86087 14.574L6.85987 14.575ZM18.8599 17.28C18.4239 18.633 17.7689 19.637 16.8519 20.378C15.9359 21.121 14.7139 21.513 13.1869 21.644L12.8819 19.594C13.8849 19.462 14.6269 19.244 15.1069 18.894C15.2809 18.764 15.6309 18.371 15.6309 18.371L12.0089 6.764H15.0189L17.1139 15.447L19.3399 6.764H22.2629L18.8599 17.28Z" fill="#1B5BF7"/>
</g>
</g>
</g>
</g>
<defs>
<clipPath id="clip0_601_5653">
<rect width="24" height="24" fill="white" transform="translate(0.489868)"/>
</clipPath>
<clipPath id="clip1_601_5653">
<rect width="24" height="24" fill="white" transform="translate(0.489868)"/>
</clipPath>
<clipPath id="clip2_601_5653">
<rect width="24" height="24" fill="white" transform="translate(0.489868)"/>
</clipPath>
</defs>
</svg>
