<svg width="25" height="24" viewBox="0 0 25 24" fill="none" xmlns="http://www.w3.org/2000/svg">
<g clip-path="url(#clip0_601_5485)">
<g clip-path="url(#clip1_601_5485)">
<g clip-path="url(#clip2_601_5485)">
<mask id="mask0_601_5485" style="mask-type:luminance" maskUnits="userSpaceOnUse" x="0" y="0" width="25" height="24">
<path d="M24.4901 0H0.490051V24H24.4901V0Z" fill="white"/>
</mask>
<g mask="url(#mask0_601_5485)">
<path d="M11.4226 23.9946C10.0922 24.0342 8.76629 23.8241 7.51335 23.3753C4.07858 22.1679 2.37365 19.5814 1.88258 16.1088C1.36289 12.4266 1.89273 8.87741 3.45181 5.49526C3.83581 4.66357 4.35919 3.9168 4.93888 3.20141C6.12042 1.74295 7.77273 1.38756 9.49888 1.1928C10.29 1.10326 11.0848 1.04972 11.8759 0.969411C12.4242 0.914026 13.0038 1.10141 13.3805 0.378642C13.5715 0.0140261 14.2297 -0.125358 14.6755 0.129411C16.2337 1.01095 17.9385 1.60356 19.3813 2.72603C23.2508 5.7371 24.7204 9.66479 23.9164 14.4353C23.141 19.0433 20.1835 21.7663 15.9337 23.2645C14.4825 23.7786 12.9724 24.0306 11.4226 23.9946ZM3.17027 13.1106C3.18596 14.1408 3.24412 15.1709 3.44442 16.1873C3.83581 18.1866 4.65735 20.0134 6.49796 20.9845C8.67827 22.1346 11.0848 22.5417 13.5733 22.3165C15.5394 22.1393 17.309 21.4986 18.7694 20.1509C20.9634 18.1239 22.1311 15.5706 22.4616 12.6269C22.8954 8.77033 21.2496 5.51741 17.9911 3.74049C17.7411 3.6048 17.477 3.31403 17.1881 3.46541C16.3822 3.8891 15.7823 3.41556 15.1297 3.09249C14.6312 2.84418 14.1346 2.55895 13.602 2.41587C11.5251 1.85187 9.59765 2.48972 7.6795 3.21341C6.18688 3.77649 5.17704 4.91926 4.56873 6.25587C3.58403 8.40366 3.1062 10.7488 3.17027 13.1106Z" fill="#8D8D8D"/>
<path d="M12.8898 17.9762C10.6319 17.9079 8.6353 17.2332 7.12884 15.4498C6.63592 14.8682 6.41992 14.1713 6.35715 13.4218C6.33869 13.2215 6.24453 12.9446 6.51038 12.9021C6.65715 12.879 6.83899 13.0747 6.93038 13.2898C7.26269 14.0818 7.71776 14.7122 8.52453 15.1802C9.95623 16.0119 11.4387 16.4402 13.0827 16.4116C14.9012 16.3793 16.4252 15.7046 17.6768 14.3975C17.8772 14.1889 18.0609 13.8639 18.3932 14.0892C18.7236 14.3126 18.4716 14.6209 18.3728 14.871C17.8005 16.323 16.6744 17.1621 15.227 17.6006C14.4701 17.8313 13.7002 18.0279 12.8898 17.9762ZM17.2541 9.98609C17.1341 10.4938 17.0233 11.0716 16.3181 11.0587C15.5861 11.0467 15.4467 10.4892 15.4292 9.89563C15.4079 9.22363 15.8399 8.91163 16.4178 8.92917C16.9993 8.94763 17.3252 9.32886 17.2541 9.98609ZM9.86392 9.9464C9.67838 10.2649 9.80115 10.9036 9.08207 10.8944C8.38699 10.8852 8.00669 10.5344 7.98176 9.82917C7.96053 9.22917 8.18484 8.70763 8.8393 8.79348C9.35161 8.86086 9.83161 9.20794 9.86392 9.9464Z" fill="#8D8D8D"/>
</g>
</g>
</g>
</g>
<defs>
<clipPath id="clip0_601_5485">
<rect width="24" height="24" fill="white" transform="translate(0.490051)"/>
</clipPath>
<clipPath id="clip1_601_5485">
<rect width="24" height="24" fill="white" transform="translate(0.490051)"/>
</clipPath>
<clipPath id="clip2_601_5485">
<rect width="24" height="24" fill="white" transform="translate(0.490051)"/>
</clipPath>
</defs>
</svg>
