<svg width="25" height="24" viewBox="0 0 25 24" fill="none" xmlns="http://www.w3.org/2000/svg">
<g clip-path="url(#clip0_601_5467)">
<g clip-path="url(#clip1_601_5467)">
<g clip-path="url(#clip2_601_5467)">
<mask id="mask0_601_5467" style="mask-type:luminance" maskUnits="userSpaceOnUse" x="0" y="0" width="25" height="24">
<path d="M24.15 0H0.150024V24H24.15V0Z" fill="white"/>
</mask>
<g mask="url(#mask0_601_5467)">
<path fill-rule="evenodd" clip-rule="evenodd" d="M19.1126 7.88221C19.3718 7.95901 19.6292 8.04301 19.8842 8.13301C22.4762 9.05281 24.152 10.4934 24.152 11.982C24.152 13.536 22.3622 15.054 19.61 15.9936C19.4648 16.044 19.316 16.0914 19.1636 16.1376C19.2176 16.3566 19.2656 16.5774 19.3088 16.7994C19.8512 19.6266 19.4336 21.951 18.146 22.719C16.8998 23.4618 14.885 22.7322 12.845 20.9232C12.623 20.7252 12.407 20.5224 12.1958 20.3124C12.029 20.4804 11.8616 20.6388 11.6954 20.7888C9.58937 22.6854 7.42697 23.4732 6.13817 22.7064C4.89077 21.9654 4.49897 19.8018 5.00057 17.0784C5.05457 16.7814 5.11817 16.4868 5.19017 16.1934C4.9718 16.1303 4.75531 16.0609 4.54097 15.9852C1.89377 15.0522 0.151978 13.5156 0.151978 11.9832C0.151978 10.4988 1.77497 9.06721 4.31597 8.15521C4.59977 8.05321 4.89617 7.95721 5.20337 7.86661C5.1378 7.59512 5.07898 7.32203 5.02697 7.04761C4.50017 4.27561 4.86917 2.05921 6.12137 1.31221C7.42577 0.534015 9.59837 1.37041 11.765 3.35341C11.9 3.47701 12.0326 3.60361 12.1628 3.73201C12.3572 3.53881 12.557 3.35041 12.761 3.16741C14.8286 1.31101 16.877 0.536415 18.128 1.27981C19.4336 2.05621 19.817 4.41361 19.2314 7.33921C19.1954 7.52101 19.1552 7.70221 19.1126 7.88221ZM18.9176 15.1212C19.0556 15.0792 19.1894 15.0354 19.3214 14.991C21.701 14.181 23.1668 12.9384 23.1668 11.9832C23.1668 11.0856 21.8102 9.92041 19.5848 9.13321C19.355 9.05041 19.1168 8.97241 18.8702 8.89921C18.548 9.95305 18.1572 10.9847 17.7002 11.9874C18.1754 13.0038 18.5817 14.0507 18.9176 15.1212ZM18.4496 20.2692C18.6086 19.3854 18.5744 18.2544 18.3332 17.004H18.3344C18.2954 16.8037 18.252 16.6042 18.2042 16.4058C17.1326 16.6548 16.0442 16.8276 14.948 16.923C14.3357 17.8445 13.6624 18.7238 12.9326 19.5552C13.1348 19.755 13.3364 19.9452 13.5374 20.1222C15.2834 21.669 16.9046 22.2558 17.6624 21.804C18.0182 21.5922 18.3062 21.063 18.4496 20.2692ZM6.66377 21.7932C7.01897 22.0038 7.60937 21.9972 8.34857 21.7272H8.34977C9.17297 21.4272 10.1078 20.8326 11.0414 19.9938C11.1974 19.8534 11.3492 19.7088 11.4992 19.56C10.7548 18.7312 10.0654 17.8548 9.43517 16.9362C8.26997 16.8384 7.17917 16.6782 6.19517 16.4538C6.12917 16.7262 6.07157 16.9998 6.01937 17.2758C5.58977 19.605 5.90477 21.3432 6.66377 21.7932ZM2.07677 13.4538C2.74097 14.0382 3.70877 14.5734 4.88057 14.985V14.9862C5.07737 15.0546 5.27537 15.1182 5.47457 15.1764C5.80127 14.0959 6.1975 13.0377 6.66077 12.0084C6.20346 10.994 5.81244 9.95103 5.49017 8.88601C5.21142 8.96644 4.93528 9.05569 4.66217 9.15361C2.48537 9.93361 1.17977 11.0832 1.17977 11.9832C1.17977 12.4068 1.48097 12.9282 2.07677 13.4538ZM6.64517 2.22721C5.89097 2.67721 5.59037 4.46941 6.04157 6.84541C6.09077 7.10041 6.14597 7.35421 6.20717 7.60741C7.26424 7.36545 8.33619 7.19387 9.41597 7.09381C10.0408 6.18079 10.7251 5.3099 11.4644 4.48681C11.3455 4.37076 11.2251 4.25635 11.1032 4.14361C9.22818 2.43241 7.45037 1.74841 6.64517 2.22721ZM15.683 8.24161C15.935 8.64841 16.1792 9.06121 16.4144 9.47881C16.6526 9.90181 16.8836 10.3314 17.105 10.7652C17.4098 10.0332 17.6678 9.31921 17.8748 8.63581C17.1513 8.46756 16.4197 8.33599 15.683 8.24161ZM13.5998 6.99841C13.1578 6.38934 12.6856 5.8028 12.185 5.24101C11.681 5.80293 11.2046 6.38902 10.7576 6.99721C11.7044 6.95177 12.6529 6.95217 13.5998 6.99841ZM7.24937 10.7652C7.68281 9.90217 8.1553 9.0593 8.66537 8.23921C7.93309 8.33179 7.20581 8.46034 6.48617 8.62441C6.70637 9.34981 6.96137 10.0644 7.24937 10.7652ZM6.47117 15.4332C7.20298 15.5947 7.94281 15.7175 8.68757 15.801V15.7998C8.16949 14.9727 7.69037 14.1217 7.25177 13.2498C6.9568 13.9648 6.6959 14.6931 6.47117 15.4332ZM10.7672 17.0178C11.2201 17.6339 11.7026 18.2276 12.2132 18.7968V18.798C12.714 18.2271 13.1852 17.6309 13.625 17.0118C12.6728 17.0529 11.7194 17.0549 10.7672 17.0178ZM17.9228 15.3876C17.6909 14.6489 17.4213 13.9226 17.1152 13.2114C16.674 14.0884 16.195 14.9458 15.6794 15.7812C16.4336 15.6901 17.1825 15.5587 17.9228 15.3876ZM14.375 15.909C14.7793 15.2834 15.1637 14.6451 15.5276 13.995H15.5288C15.896 13.3394 16.2406 12.6714 16.562 11.9922C15.9141 10.6506 15.1808 9.35188 14.3666 8.10421C12.9078 7.99082 11.4424 7.99082 9.98357 8.10421C9.15767 9.3488 8.4264 10.6537 7.79597 12.0078C8.43113 13.3639 9.16657 14.6707 9.99617 15.9174C10.6976 15.9642 11.4242 15.9882 12.1742 15.9882C12.9248 15.9882 13.6616 15.9612 14.375 15.909ZM18.26 7.12501C18.7652 4.59841 18.452 2.67301 17.6468 2.19481C16.8908 1.74781 15.2324 2.37361 13.4576 3.96361C13.268 4.13161 13.0838 4.30681 12.9038 4.48501C13.6389 5.30824 14.318 6.17979 14.9366 7.09381C16.0706 7.20421 17.1542 7.38001 18.1514 7.61761C18.1904 7.45381 18.227 7.28881 18.26 7.12501Z" fill="#53C1DE"/>
<path d="M12.1734 9.77404C13.3596 9.77404 14.3196 10.7616 14.3196 11.982C14.3196 13.2024 13.3584 14.1906 12.1734 14.1906C10.9878 14.1906 10.026 13.2024 10.026 11.9826C10.026 10.7628 10.9872 9.77404 12.1734 9.77404Z" fill="#53C1DE"/>
</g>
</g>
</g>
</g>
<defs>
<clipPath id="clip0_601_5467">
<rect width="24" height="24" fill="white" transform="translate(0.150024)"/>
</clipPath>
<clipPath id="clip1_601_5467">
<rect width="24" height="24" fill="white" transform="translate(0.150024)"/>
</clipPath>
<clipPath id="clip2_601_5467">
<rect width="24" height="24" fill="white" transform="translate(0.150024)"/>
</clipPath>
</defs>
</svg>
