<svg width="25" height="24" viewBox="0 0 25 24" fill="none" xmlns="http://www.w3.org/2000/svg">
<g clip-path="url(#clip0_601_5721)">
<g clip-path="url(#clip1_601_5721)">
<g clip-path="url(#clip2_601_5721)">
<path fill-rule="evenodd" clip-rule="evenodd" d="M4.60872 15.6367L3.39983 16.0955L3.33405 19.8312L7.51983 18.2435C6.08427 17.7423 5.03539 16.8616 4.60872 15.6367Z" fill="#FDBD39"/>
<path fill-rule="evenodd" clip-rule="evenodd" d="M5.24062 11.686L1.04596 13.2793L3.39885 16.0965L4.60773 15.6377C4.18196 14.4174 4.44507 13.0374 5.24062 11.687V11.686Z" fill="#F69833"/>
<path fill-rule="evenodd" clip-rule="evenodd" d="M12.2997 6.29723C6.95744 8.32339 3.51389 12.5049 4.60811 15.6369L23.9521 8.29847C22.8588 5.16647 17.641 4.27108 12.2997 6.29723Z" fill="#FECF33"/>
<path fill-rule="evenodd" clip-rule="evenodd" d="M16.2609 17.638C21.6031 15.6119 25.052 11.4488 23.9525 8.29834L4.60846 15.6368C5.70801 18.7873 10.9196 19.6651 16.2609 17.638Z" fill="#EE6723"/>
<path fill-rule="evenodd" clip-rule="evenodd" d="M23.9525 8.29834L4.60846 15.6368C4.98712 16.7214 6.43068 17.2559 8.45823 17.2559C10.4343 17.2559 12.9631 16.7482 15.6005 15.7485C20.9427 13.7214 24.7009 10.4408 23.9525 8.29834Z" fill="#F69833"/>
<path fill-rule="evenodd" clip-rule="evenodd" d="M20.1026 6.6792C18.1266 6.6792 15.5969 7.18689 12.9604 8.18658C7.61818 10.2137 3.85996 13.4943 4.60751 15.6367L23.9524 8.29828C23.5738 7.21366 22.1293 6.6792 20.1026 6.6792Z" fill="#FDBD39"/>
<path fill-rule="evenodd" clip-rule="evenodd" d="M19.0338 20.0289C18.465 20.0289 17.625 19.4944 16.5378 18.4412C15.2516 17.196 13.7787 15.372 12.3903 13.3043C11.0018 11.2366 9.86049 9.17074 9.17693 7.48521C8.43293 5.64828 8.32627 4.51936 8.86138 4.12797C8.98505 4.04027 9.13211 3.99507 9.28182 3.99874C9.71738 3.99874 10.5654 4.33567 12.1343 5.93905L12.1681 5.97413L12.1636 6.02397L12.1343 6.37013L12.1165 6.59628L11.9627 6.43567C10.273 4.66705 9.52893 4.4769 9.28716 4.4769C9.23003 4.47352 9.17328 4.48833 9.12449 4.51936C8.89338 4.6892 8.87738 5.51905 9.59916 7.29874C10.2703 8.95474 11.3947 10.9901 12.7663 13.0311C14.137 15.0711 15.5867 16.8683 16.8498 18.0923C18.2116 19.4114 18.8258 19.5535 19.0258 19.5535C19.0848 19.5563 19.1431 19.5402 19.193 19.5074C19.4383 19.3292 19.4383 18.4403 18.633 16.524L18.5974 16.4354L18.6774 16.3892C18.7583 16.3431 18.8374 16.2987 18.9103 16.2554L19.0072 16.1981L19.0516 16.3043C19.6223 17.6621 20.1556 19.3883 19.4561 19.8987C19.3318 19.9865 19.1841 20.0326 19.0338 20.0289Z" fill="#EE6723"/>
<path fill-rule="evenodd" clip-rule="evenodd" d="M16.3899 17.5809L16.3819 17.6852C16.2468 19.4206 15.8912 21.5068 14.9641 21.5917C14.9452 21.5935 14.9262 21.5944 14.9072 21.5945C14.277 21.5945 13.6805 20.6575 13.1356 18.8086C12.6201 17.0603 12.2201 14.7129 12.0085 12.1985C11.7979 9.68493 11.8005 7.2997 12.0174 5.484C12.2539 3.50585 12.7036 2.472 13.3543 2.41293C13.3741 2.41106 13.394 2.41013 13.4139 2.41016C13.8708 2.41016 14.5588 2.94739 15.2636 5.44985L14.8032 5.54216C14.5685 4.70585 14.3116 4.02554 14.0565 3.55754C13.8219 3.12554 13.5925 2.88831 13.4121 2.88831H13.3943C13.1125 2.91416 12.701 3.62493 12.4725 5.54308C12.2592 7.32646 12.2565 9.67477 12.4654 12.1569C12.6734 14.6391 13.0672 16.9514 13.5739 18.6683C13.8005 19.4372 14.0494 20.0714 14.2939 20.5015C14.5188 20.8985 14.7365 21.1163 14.9072 21.1163C14.9131 21.1165 14.9191 21.1165 14.925 21.1163C15.1943 21.0914 15.7028 20.352 15.917 17.7498L16.3899 17.5809Z" fill="#EE6723"/>
</g>
</g>
</g>
<defs>
<clipPath id="clip0_601_5721">
<rect width="24" height="24" fill="white" transform="translate(0.169983)"/>
</clipPath>
<clipPath id="clip1_601_5721">
<rect width="24" height="24" fill="white" transform="translate(0.169983)"/>
</clipPath>
<clipPath id="clip2_601_5721">
<rect width="24" height="24" fill="white" transform="translate(0.169983)"/>
</clipPath>
</defs>
</svg>
