<svg width="25" height="24" viewBox="0 0 25 24" fill="none" xmlns="http://www.w3.org/2000/svg">
<g clip-path="url(#clip0_601_5612)">
<g clip-path="url(#clip1_601_5612)">
<path fill-rule="evenodd" clip-rule="evenodd" d="M3.53204 20.3402V8.97016C3.53241 7.26907 4.03492 5.60595 4.97657 4.18927C5.91823 2.77259 7.25713 1.6654 8.82542 1.0065C10.3937 0.347602 12.1216 0.166313 13.7925 0.48536C15.4634 0.804406 17.003 1.60959 18.2182 2.79998C19.4334 3.99036 20.2701 5.51298 20.6235 7.17694C20.977 8.84091 20.8313 10.5722 20.2049 12.1537C19.5785 13.7353 18.4991 15.0967 17.1022 16.0674C15.7052 17.038 14.0528 17.5747 12.3521 17.6102C12.0314 17.6129 11.7133 17.5525 11.416 17.4323C11.1186 17.3121 10.8479 17.1346 10.6192 16.9098C10.1572 16.4557 9.89461 15.8368 9.88904 15.1892C9.88347 14.5415 10.1354 13.9182 10.5895 13.4563C11.0435 12.9944 11.6624 12.7317 12.3101 12.7262C13.0461 12.6979 13.7577 12.4539 14.3561 12.0244C14.9545 11.5949 15.4135 10.9989 15.6758 10.3105C15.9381 9.62222 15.9923 8.87195 15.8315 8.1531C15.6707 7.43424 15.3021 6.77853 14.7715 6.26755C14.241 5.75657 13.5719 5.41288 12.8475 5.27925C12.1231 5.14561 11.3754 5.22793 10.6974 5.51596C10.0194 5.80399 9.4411 6.28501 9.03441 6.89918C8.62771 7.51335 8.41058 8.23354 8.41004 8.97016V21.5582C8.40927 22.0043 8.28631 22.4416 8.05451 22.8228C7.82272 23.2039 7.49094 23.5143 7.0952 23.7202C6.69946 23.9261 6.25488 24.0197 5.80971 23.9908C5.36455 23.9619 4.93581 23.8115 4.57004 23.5562C4.79198 23.4972 4.99959 23.3936 5.18022 23.2518C5.36084 23.1099 5.51071 22.9328 5.62068 22.7312C5.73065 22.5296 5.79844 22.3077 5.81989 22.0791C5.84135 21.8504 5.81604 21.6198 5.7455 21.4013C5.67496 21.1827 5.56067 20.9808 5.40959 20.8078C5.25851 20.6349 5.0738 20.4945 4.86671 20.3952C4.65963 20.2959 4.4345 20.2399 4.20504 20.2304C3.97558 20.2209 3.7466 20.2583 3.53204 20.3402ZM12.3521 16.8602C12.5824 16.8735 12.8129 16.8396 13.0296 16.7605C13.2463 16.6814 13.4446 16.5589 13.6122 16.4004C13.7798 16.2419 13.9133 16.0509 14.0043 15.8389C14.0954 15.627 14.1421 15.3987 14.1417 15.168C14.1413 14.9373 14.0938 14.7091 14.0019 14.4975C13.9101 14.2859 13.776 14.0953 13.6078 13.9374C13.4397 13.7795 13.241 13.6577 13.024 13.5794C12.807 13.5011 12.5763 13.468 12.3461 13.4822C11.9155 13.5078 11.511 13.697 11.2153 14.0109C10.9195 14.3248 10.7548 14.7398 10.7548 15.1712C10.7548 15.6025 10.9195 16.0175 11.2153 16.3314C11.511 16.6454 11.9155 16.8345 12.3461 16.8602H12.3521Z" fill="url(#paint0_linear_601_5612)"/>
</g>
</g>
<defs>
<linearGradient id="paint0_linear_601_5612" x1="12.1601" y1="0.33016" x2="12.1601" y2="15.1502" gradientUnits="userSpaceOnUse">
<stop stop-color="#D378E5"/>
<stop offset="1" stop-color="#7526C2"/>
</linearGradient>
<clipPath id="clip0_601_5612">
<rect width="24" height="24" fill="white" transform="translate(0.159973)"/>
</clipPath>
<clipPath id="clip1_601_5612">
<rect width="24" height="24" fill="white" transform="translate(0.159973)"/>
</clipPath>
</defs>
</svg>
