<svg width="25" height="24" viewBox="0 0 25 24" fill="none" xmlns="http://www.w3.org/2000/svg">
<g clip-path="url(#clip0_601_5618)">
<g clip-path="url(#clip1_601_5618)">
<g clip-path="url(#clip2_601_5618)">
<path d="M6.04601 2.5138L12.796 1.7998L19.546 2.5138L24.772 9.5398L12.796 23.4778L0.820007 9.5398L6.04601 2.5198V2.5138Z" fill="#FDB300"/>
<path d="M5.67401 9.54004L12.796 23.478L0.820007 9.54004H5.67401ZM19.918 9.54004L12.796 23.478L24.772 9.54004H19.918Z" fill="#EA6C00"/>
<path d="M5.6745 9.54004H19.9185L12.7965 23.478L5.6745 9.54004Z" fill="#FDAD00"/>
<path d="M12.7965 1.7998L6.0465 2.5138L5.6745 9.5398L12.7965 1.7998ZM12.7965 1.7998L19.5405 2.5138L19.9125 9.5398L12.7965 1.7998Z" fill="#FDD231"/>
<path d="M24.772 9.54002L19.54 2.52002L19.912 9.54602H24.766L24.772 9.54002ZM0.820007 9.54002L6.04601 2.52002L5.67401 9.54002H0.820007Z" fill="#FDAD00"/>
<path d="M12.7965 1.7998L5.6745 9.5398H19.9185L12.7965 1.7998Z" fill="#FEEEB7"/>
</g>
</g>
</g>
<defs>
<clipPath id="clip0_601_5618">
<rect width="24" height="24" fill="white" transform="translate(0.820007)"/>
</clipPath>
<clipPath id="clip1_601_5618">
<rect width="24" height="24" fill="white" transform="translate(0.820007)"/>
</clipPath>
<clipPath id="clip2_601_5618">
<rect width="24" height="24" fill="white" transform="translate(0.820007)"/>
</clipPath>
</defs>
</svg>
