<svg width="25" height="24" viewBox="0 0 25 24" fill="none" xmlns="http://www.w3.org/2000/svg">
<g clip-path="url(#clip0_601_5461)">
<g clip-path="url(#clip1_601_5461)">
<g clip-path="url(#clip2_601_5461)">
<path d="M6.86297 7.83306H11.9566V8.23552H7.33005V11.2678H11.6806V11.6712H7.33005V15.0007H12.0101V15.4032H6.86297V7.83306ZM12.4135 7.83306H12.9544L15.3526 11.1626L17.8043 7.83306L21.1384 3.60352L15.6609 11.5115L18.4836 15.4032H17.9206L15.3526 11.8623L12.7735 15.4032H12.2224L15.0655 11.5115L12.4135 7.83306ZM18.6849 8.23552V7.83306H24.4901V8.23552H21.8159V15.4032H21.3489V8.23552H18.6849ZM0.490051 7.83213H1.07344L9.12267 19.8192L5.7959 15.4032L0.977436 8.40536L0.957128 15.4032H0.490051V7.83213Z" fill="#5E5F60"/>
</g>
</g>
</g>
<defs>
<clipPath id="clip0_601_5461">
<rect width="24" height="24" fill="white" transform="translate(0.490051)"/>
</clipPath>
<clipPath id="clip1_601_5461">
<rect width="24" height="24" fill="white" transform="translate(0.490051)"/>
</clipPath>
<clipPath id="clip2_601_5461">
<rect width="24" height="24" fill="white" transform="translate(0.490051)"/>
</clipPath>
</defs>
</svg>
