<svg width="25" height="24" viewBox="0 0 25 24" fill="none" xmlns="http://www.w3.org/2000/svg">
<g clip-path="url(#clip0_601_5417)">
<g clip-path="url(#clip1_601_5417)">
<g clip-path="url(#clip2_601_5417)">
<path d="M24.47 0H0.469971V24H24.47V0Z" fill="#C4C4C4" fill-opacity="0.01"/>
<path d="M23.2924 10.5396C23.2532 10.1382 23.1877 9.67771 23.0569 9.16454C22.926 8.65796 22.7297 8.09875 22.4418 7.51979C22.1539 6.94084 21.7809 6.34215 21.2967 5.75662C21.1069 5.52636 20.8975 5.30267 20.675 5.08557C21.0088 3.75003 20.2693 2.59213 20.2693 2.59213C18.9934 2.51318 18.182 2.99344 17.881 3.21055C17.8286 3.19081 17.7828 3.1645 17.7305 3.14476C17.5146 3.05923 17.2921 2.97371 17.0565 2.90134C16.8275 2.82897 16.5919 2.76318 16.3498 2.70397C16.1077 2.64476 15.8656 2.5987 15.617 2.55923C15.5711 2.55265 15.5319 2.54607 15.4861 2.53949C14.9299 0.750006 13.3333 0 13.3333 0C11.5469 1.13817 11.2132 2.73028 11.2132 2.73028C11.2132 2.73028 11.2067 2.76318 11.1936 2.82239C11.0954 2.84871 10.9973 2.8816 10.8991 2.90792C10.7617 2.94739 10.6243 3.00002 10.4934 3.05265C10.356 3.10529 10.2251 3.15792 10.0877 3.21713C9.81942 3.33555 9.55114 3.46713 9.2894 3.61187C9.0342 3.75661 8.78555 3.9145 8.54345 4.07898C8.51073 4.06582 8.47801 4.05266 8.47801 4.05266C6.00459 3.10529 3.81253 4.24345 3.81253 4.24345C3.60968 6.88821 4.80059 8.5527 5.03615 8.85533C4.97726 9.01981 4.92491 9.18428 4.87257 9.34876C4.68935 9.94745 4.55194 10.5593 4.46687 11.1975C4.45379 11.2896 4.4407 11.3817 4.43416 11.4738C2.14395 12.6119 1.46997 14.9343 1.46997 14.9343C3.37412 17.1383 5.59889 17.2764 5.59889 17.2764L5.60543 17.2699C5.8868 17.7765 6.21398 18.2567 6.58041 18.7107C6.73745 18.9015 6.89449 19.0791 7.06462 19.2567C6.37102 21.2567 7.16278 22.9146 7.16278 22.9146C9.28286 22.9936 10.6766 21.9804 10.9711 21.7502C11.1805 21.8225 11.3964 21.8883 11.6124 21.941C12.2667 22.112 12.9341 22.2107 13.6016 22.237C13.7652 22.2436 13.9353 22.2502 14.0989 22.2436H14.1774H14.2297H14.3344L14.4391 22.237V22.2436C15.4403 23.6778 17.1939 23.8818 17.1939 23.8818C18.4437 22.5594 18.5157 21.2436 18.5157 20.9607C18.5157 20.9607 18.5157 20.9541 18.5157 20.941C18.5157 20.9146 18.5157 20.9015 18.5157 20.9015C18.5157 20.8817 18.5157 20.862 18.5157 20.8423C18.7774 20.6581 19.0261 20.4607 19.2617 20.2436C19.759 19.7896 20.1974 19.2699 20.5638 18.7107C20.5965 18.658 20.6292 18.6054 20.662 18.5528C22.0753 18.6317 23.0765 17.6712 23.0765 17.6712C22.8409 16.1909 22.0034 15.4672 21.8267 15.3291C21.8267 15.3291 21.8201 15.3225 21.8071 15.3159C21.794 15.3093 21.794 15.3027 21.794 15.3027C21.7874 15.2962 21.7743 15.2896 21.7613 15.283C21.7678 15.1909 21.7743 15.1054 21.7809 15.0133C21.794 14.8554 21.794 14.6909 21.794 14.533V14.4146V14.3554V14.3225C21.794 14.283 21.794 14.2962 21.794 14.283L21.7874 14.1843L21.7809 14.0527C21.7809 14.0067 21.7743 13.9672 21.7678 13.9277C21.7613 13.8883 21.7613 13.8422 21.7547 13.8027L21.7416 13.6777L21.722 13.5527C21.6958 13.3883 21.6696 13.2304 21.6304 13.0659C21.4799 12.4277 21.2312 11.8225 20.9106 11.2764C20.5834 10.7303 20.1777 10.2501 19.7132 9.84218C19.2551 9.43428 18.7382 9.10533 18.2016 8.86191C17.6585 8.61849 17.0958 8.46059 16.533 8.38822C16.2517 8.34875 15.9703 8.33559 15.6889 8.34217H15.5842H15.5581C15.5515 8.34217 15.5188 8.34217 15.5253 8.34217H15.4795L15.3748 8.34875C15.3356 8.34875 15.2963 8.35533 15.2636 8.35533C15.1196 8.36849 14.9757 8.38822 14.8383 8.41454C14.2755 8.5198 13.7455 8.72375 13.2809 9.00665C12.8164 9.28955 12.4107 9.63823 12.0835 10.033C11.7563 10.4277 11.5011 10.8685 11.3244 11.3225C11.1478 11.7764 11.0496 12.2501 11.0234 12.704C11.0169 12.8159 11.0169 12.9343 11.0169 13.0462C11.0169 13.0725 11.0169 13.1054 11.0169 13.1317L11.0234 13.2238C11.03 13.2764 11.03 13.3356 11.0365 13.3883C11.0562 13.6185 11.102 13.8422 11.1609 14.0527C11.2852 14.4804 11.4815 14.8685 11.7236 15.1975C11.9657 15.5264 12.2602 15.7962 12.5677 16.0133C12.8752 16.2238 13.209 16.3751 13.5361 16.4738C13.8633 16.5725 14.1905 16.612 14.498 16.612C14.5373 16.612 14.5765 16.612 14.6093 16.612C14.6289 16.612 14.6485 16.612 14.6681 16.612C14.6878 16.612 14.7074 16.612 14.727 16.6054C14.7598 16.6054 14.7925 16.5988 14.8252 16.5988C14.8317 16.5988 14.8448 16.5988 14.8514 16.5922L14.8841 16.5857C14.9037 16.5857 14.9233 16.5791 14.943 16.5791C14.9822 16.5725 15.015 16.5659 15.0542 16.5593C15.0935 16.5528 15.1262 16.5462 15.1589 16.533C15.2309 16.5199 15.2963 16.4935 15.3618 16.4738C15.4926 16.4278 15.6235 16.3751 15.7347 16.3159C15.8525 16.2567 15.9572 16.1843 16.0619 16.1185C16.0881 16.0988 16.1208 16.0791 16.147 16.0528C16.2517 15.9672 16.2713 15.8093 16.1862 15.7041C16.1143 15.612 15.9834 15.5856 15.8787 15.6449C15.8525 15.658 15.8263 15.6712 15.8002 15.6843C15.7086 15.7304 15.617 15.7699 15.5188 15.8028C15.4206 15.8356 15.316 15.862 15.2113 15.8817C15.1589 15.8883 15.1066 15.8949 15.0477 15.9014C15.0215 15.9014 14.9953 15.908 14.9626 15.908C14.9364 15.908 14.9037 15.908 14.8841 15.908C14.8579 15.908 14.8317 15.908 14.8056 15.908C14.7728 15.908 14.7401 15.908 14.7074 15.9014C14.7074 15.9014 14.6878 15.9014 14.7009 15.9014H14.6878H14.6681C14.6551 15.9014 14.6354 15.9014 14.6223 15.8949C14.5896 15.8883 14.5635 15.8883 14.5307 15.8817C14.2886 15.8488 14.0465 15.7764 13.8175 15.6712C13.5819 15.5659 13.3595 15.4212 13.1566 15.237C12.9538 15.0527 12.7771 14.8356 12.6397 14.5856C12.5023 14.3356 12.4041 14.0593 12.3583 13.7698C12.3387 13.6251 12.3256 13.4738 12.3321 13.3291C12.3321 13.2896 12.3387 13.2501 12.3387 13.2106C12.3387 13.2238 12.3387 13.204 12.3387 13.204V13.1909V13.158C12.3387 13.1383 12.3452 13.1185 12.3452 13.0988C12.3518 13.0198 12.3649 12.9409 12.3779 12.8619C12.4892 12.2304 12.8033 11.6119 13.2875 11.1448C13.4118 11.0264 13.5427 10.9211 13.6801 10.8225C13.8175 10.7238 13.968 10.6382 14.125 10.5659C14.2821 10.4935 14.4391 10.4343 14.6093 10.3882C14.7728 10.3422 14.943 10.3159 15.1196 10.2961C15.2047 10.2896 15.2898 10.283 15.3814 10.283C15.4076 10.283 15.4206 10.283 15.4403 10.283H15.5123H15.5581C15.5777 10.283 15.5581 10.283 15.5646 10.283H15.5842L15.6562 10.2896C15.846 10.3027 16.0292 10.329 16.2124 10.3751C16.5788 10.454 16.9387 10.5922 17.2724 10.7764C17.9399 11.1514 18.5092 11.7304 18.856 12.4277C19.0326 12.7764 19.157 13.1514 19.2159 13.5396C19.2289 13.6383 19.242 13.7369 19.2486 13.8356L19.2551 13.908L19.2617 13.9804C19.2617 14.0067 19.2617 14.033 19.2617 14.0527C19.2617 14.0791 19.2617 14.1054 19.2617 14.1251V14.1909V14.2633C19.2617 14.3093 19.2551 14.3883 19.2551 14.4343C19.2486 14.5396 19.2355 14.6514 19.2224 14.7567C19.2093 14.862 19.1897 14.9672 19.17 15.0725C19.1504 15.1777 19.1242 15.283 19.0981 15.3817C19.0457 15.5856 18.9803 15.7896 18.9018 15.9935C18.7447 16.3883 18.5353 16.7699 18.2867 17.1186C17.7828 17.8159 17.0958 18.3817 16.3106 18.7436C15.9179 18.9212 15.5057 19.0528 15.0804 19.1186C14.871 19.158 14.6551 19.1778 14.4391 19.1844H14.3999H14.3672H14.2952H14.1905H14.1381C14.1643 19.1844 14.1316 19.1844 14.1316 19.1844H14.112C13.9942 19.1844 13.8829 19.1778 13.7652 19.1646C13.3071 19.1317 12.8556 19.0462 12.4107 18.9212C11.9722 18.7962 11.5469 18.6186 11.1412 18.408C10.3364 17.9738 9.61003 17.3817 9.04729 16.6646C8.76592 16.3093 8.51727 15.9212 8.31442 15.5199C8.11158 15.1185 7.94799 14.6909 7.83021 14.2633C7.71243 13.8291 7.64045 13.3883 7.60773 12.9409L7.60119 12.8554V12.8356V12.8159V12.7764V12.704V12.6843V12.658V12.6054V12.5001V12.4804C7.60119 12.4804 7.60119 12.4869 7.60119 12.4738V12.4343C7.60119 12.3817 7.60119 12.3225 7.60119 12.2698C7.60773 12.0527 7.62736 11.8225 7.65354 11.5988C7.67971 11.3751 7.71897 11.1448 7.76477 10.9211C7.81058 10.6975 7.86293 10.4738 7.92836 10.2501C8.05269 9.80929 8.20973 9.38165 8.39295 8.98033C8.76592 8.17769 9.25014 7.46058 9.83251 6.88821C9.97646 6.74347 10.127 6.61189 10.284 6.48031C10.4411 6.35531 10.6047 6.23689 10.7748 6.12505C10.9384 6.0132 11.1151 5.91452 11.2917 5.82241C11.3768 5.77636 11.4684 5.73031 11.56 5.69083C11.6058 5.6711 11.6516 5.65136 11.6974 5.63162C11.7432 5.61189 11.789 5.59215 11.8348 5.57241C12.0181 5.49346 12.2078 5.42767 12.4041 5.36846C12.4499 5.3553 12.5023 5.34215 12.5481 5.32241C12.5939 5.30925 12.6462 5.29609 12.692 5.28294C12.7902 5.25662 12.8883 5.2303 12.9865 5.21057C13.0323 5.19741 13.0846 5.19083 13.137 5.17767C13.1893 5.16451 13.2351 5.15793 13.2875 5.14478C13.3398 5.1382 13.3856 5.12504 13.438 5.11846L13.51 5.1053L13.5885 5.09214C13.6408 5.08557 13.6866 5.07899 13.739 5.07241C13.7979 5.06583 13.8502 5.05925 13.9091 5.05267C13.9549 5.04609 14.0334 5.03951 14.0792 5.03293C14.112 5.02635 14.1512 5.02635 14.1839 5.01978L14.2559 5.0132L14.2886 5.00662H14.3279C14.3868 5.00004 14.4391 5.00004 14.498 4.99346L14.5831 4.98688C14.5831 4.98688 14.6158 4.98688 14.5896 4.98688H14.6093H14.6485C14.6943 4.98688 14.7467 4.9803 14.7925 4.9803C14.9822 4.97372 15.1785 4.97372 15.3683 4.9803C15.7478 4.99346 16.1208 5.03951 16.4807 5.1053C17.207 5.24346 17.8875 5.47373 18.5092 5.78294C19.1308 6.08557 19.6804 6.46058 20.1647 6.86847C20.1974 6.89479 20.2235 6.92111 20.2563 6.94742C20.2824 6.97374 20.3152 7.00005 20.3413 7.02637C20.4002 7.079 20.4526 7.13163 20.5115 7.18427C20.5703 7.2369 20.6227 7.28953 20.675 7.34216C20.7274 7.39479 20.7797 7.44743 20.8321 7.50664C21.0349 7.72374 21.2247 7.94085 21.3948 8.16454C21.7351 8.60533 22.0099 9.0527 22.2258 9.47376C22.2389 9.50007 22.252 9.52639 22.2651 9.55271C22.2782 9.57902 22.2913 9.60534 22.3044 9.63165C22.3305 9.68429 22.3567 9.73692 22.3763 9.78955C22.4025 9.84218 22.4221 9.88823 22.4483 9.94087C22.4679 9.9935 22.4941 10.0396 22.5138 10.0922C22.5923 10.2896 22.6708 10.4803 22.7297 10.658C22.8278 10.9475 22.8998 11.204 22.9587 11.4277C22.9783 11.5198 23.0634 11.579 23.155 11.5659C23.2532 11.5593 23.3251 11.4804 23.3251 11.3817C23.3317 11.1448 23.3251 10.8619 23.2924 10.5396Z" fill="url(#paint0_linear_601_5417)"/>
</g>
</g>
</g>
<defs>
<linearGradient id="paint0_linear_601_5417" x1="12.3976" y1="29.2433" x2="12.3976" y2="7.43654" gradientUnits="userSpaceOnUse">
<stop stop-color="#FFF100"/>
<stop offset="1" stop-color="#F05A28"/>
</linearGradient>
<clipPath id="clip0_601_5417">
<rect width="24" height="24" fill="white" transform="translate(0.469971)"/>
</clipPath>
<clipPath id="clip1_601_5417">
<rect width="24" height="24" fill="white" transform="translate(0.469971)"/>
</clipPath>
<clipPath id="clip2_601_5417">
<rect width="24" height="24" fill="white" transform="translate(0.469971)"/>
</clipPath>
</defs>
</svg>
